%
M48
M72
T01C0.01378
T02C0.01575
T03C0.02362
T04C0.02400
T05C0.02756
T06C0.03200
T07C0.03937
T08C0.04400
T09C0.05200
T10C0.06299
T11C0.06693
T12C0.11811
%
T01
X95029Y91403
X67739Y122099
X43190Y140991
X41411Y146818
X67979Y158339
X91051Y158727
X100900Y151474
X112700Y154574
X119000Y151674
X125600Y160074
X127300Y166674
X125319Y173799
X140779Y174239
X140779Y166759
X124210Y189245
X130077Y193610
X144000Y193774
X160768Y192011
X167500Y192174
X174568Y190807
X174568Y207799
X167200Y211674
X154589Y210299
X149211Y216403
X170750Y232942
X166787Y251088
X155918Y265230
X152140Y265255
X148362Y265280
X144584Y265305
X141847Y262699
X138069Y262754
X135380Y260101
X132788Y255087
X130099Y257741
X127446Y260430
X124757Y263119
X122085Y265790
X119414Y268461
X120768Y274713
X111000Y261474
X106900Y273274
X97900Y267474
X98400Y254288
X94597Y254288
X89194Y252688
X81947Y249245
X87300Y234974
X77700Y234774
X73200Y215674
X61800Y211874
X60934Y219441
X47700Y234074
X39700Y242074
X49990Y251088
X61400Y256274
X79300Y262674
X86000Y261874
X102000Y234774
X113300Y219474
X135733Y252688
X149900Y258474
X181800Y263774
X180668Y271961
X190979Y250599
X193668Y247010
X190979Y240410
X190979Y235599
X192535Y231157
X197149Y237966
X215179Y245599
X226079Y247639
X230865Y235089
X237879Y239638
X257233Y232906
X260086Y235396
X260272Y252240
X268628Y252994
X279678Y269547
X280019Y276009
X279088Y279787
X284450Y285826
X292454Y285363
X297839Y278847
X306168Y274277
X306168Y263254
X308000Y256215
X296561Y253674
X296400Y259474
X287414Y260873
X288889Y269224
X300454Y293259
X290600Y301874
X315342Y342885
X222800Y297474
X203900Y271874
X214279Y219799
X222534Y213388
X225011Y210523
X224210Y206745
X224255Y217010
X223700Y194774
X218639Y189799
X214779Y194885
X210190Y184173
X202700Y188074
X189479Y182539
X180047Y174171
X182011Y168530
X180768Y162167
X188939Y166599
X196419Y166599
X199108Y150599
X201664Y131139
X184671Y131278
X165979Y131139
X165979Y123659
X157484Y133610
X137419Y132136
X137419Y124036
X143839Y113899
X125091Y124587
X122100Y131674
X173152Y157866
X170768Y163087
X218439Y181699
X221248Y175139
X236500Y183674
X249143Y176138
X244854Y169099
X237187Y163661
X244667Y156960
X237187Y150474
X242968Y144810
X234749Y128025
X245353Y125115
X253400Y118889
X256961Y120671
X259632Y123342
X260500Y129474
X260500Y134874
X267500Y120474
X275694Y105724
X284300Y107489
X285313Y103711
X288399Y101022
X300775Y115722
X300800Y119500
X296800Y123874
X297000Y133774
X306786Y123567
X314991Y123442
X307002Y101336
X315074Y100628
X290115Y83561
X291828Y69526
X241300Y79674
X232772Y85274
X232772Y101022
X287099Y129998
X266065Y207196
X291980Y231300
X289100Y241374
X194800Y217674
X123790Y301291
X123790Y305069
X114100Y313274
X105141Y306852
X104600Y303074
X97400Y297074
X89115Y295188
X79211Y295188
X72600Y191674
X47700Y191974
X192699Y26175
T02
X327300Y27274
X327300Y23274
X327300Y19274
X335300Y19274
X335300Y23274
X335300Y27274
X335300Y31274
X335300Y35274
X327300Y35274
X327300Y31274
X325300Y117274
X325300Y121274
X325300Y125274
X325300Y129274
X325300Y133274
X325300Y141274
X325300Y145274
X325300Y149274
X325300Y153274
X325300Y157274
X335300Y157274
X335300Y153274
X335300Y149274
X335300Y145274
X335300Y141274
X335300Y133274
X335300Y129274
X335300Y125274
X335300Y121274
X335300Y117274
X279908Y234558
X276365Y238102
X279908Y241645
X272821Y241645
X272821Y234558
X325300Y239274
X325300Y243274
X325300Y247274
X325300Y251274
X325300Y255274
X335300Y255274
X335300Y251274
X335300Y247274
X335300Y243274
X335300Y239274
T03
X315026Y204672
X315026Y176325
T04
X112079Y111449
X92079Y111449
T05
X304002Y177506
X307546Y182821
X307546Y198176
X304002Y203491
T06
X238079Y201099
X228079Y201099
X218079Y201099
X208079Y201099
X198079Y201099
X188079Y201099
X178079Y201099
X168079Y201099
X158079Y201099
X148079Y201099
X138079Y201099
X128079Y201099
X118079Y201099
X108079Y201099
X98079Y201099
X88079Y201099
X78079Y201099
X68079Y201099
X58079Y201099
X48079Y201099
X48079Y183599
X58079Y183599
X68079Y183599
X78079Y183599
X88079Y183599
X98079Y183599
X108079Y183599
X118079Y183599
X128079Y183599
X138079Y183599
X148079Y183599
X158079Y183599
X168079Y183599
X178079Y183599
X178079Y226099
X188079Y226099
X198079Y226099
X208079Y226099
X218079Y226099
X228079Y226099
X238079Y226099
X238079Y286099
X228079Y286099
X218079Y286099
X208079Y286099
X198079Y286099
X188079Y286099
X178079Y286099
X168079Y286099
X158079Y286099
X148079Y286099
X138079Y286099
X128079Y286099
X118079Y286099
X108079Y286099
X98079Y286099
X88079Y286099
X78079Y286099
X68079Y286099
X58079Y286099
X48079Y286099
X48079Y243599
X58079Y243599
X68079Y243599
X78079Y243599
X88079Y243599
X98079Y243599
X108079Y243599
X118079Y243599
X128079Y243599
X138079Y243599
X148079Y243599
X158079Y243599
X168079Y243599
X178079Y243599
X168079Y226099
X158079Y226099
X148079Y226099
X138079Y226099
X128079Y226099
X118079Y226099
X108079Y226099
X98079Y226099
X88079Y226099
X78079Y226099
X68079Y226099
X58079Y226099
X48079Y226099
X48079Y141099
X58079Y141099
X68079Y141099
X78079Y141099
X88079Y141099
X98079Y141099
X108079Y141099
X118079Y141099
X128079Y141099
X138079Y141099
X148079Y141099
X158079Y141099
X168079Y141099
X178079Y141099
X188079Y141099
X198079Y141099
X208079Y141099
X218079Y141099
X228079Y141099
X238079Y141099
T07
X242796Y27274
X232796Y17274
X252796Y17274
X225591Y325172
X215591Y325172
X205591Y325172
X195591Y325172
X185591Y325172
X175591Y325172
X165591Y325172
X155591Y325172
X145591Y325172
X135591Y325172
X125591Y325172
X115591Y325172
X115591Y345172
X125591Y345172
X135591Y345172
X145591Y345172
X155591Y345172
X165591Y345172
X175591Y345172
X185591Y345172
X195591Y345172
X205591Y345172
X215591Y345172
X225591Y345172
T08
X261143Y190376
X261143Y178565
X32796Y166754
X32796Y154943
T09
X186662Y96306
X206662Y96306
X196662Y56306
T10
X250489Y73463
X274111Y97085
T11
X165237Y61038
X165237Y33479
T12
X28859Y25022
X23048Y292117
X308387Y21085
M30
