G75*
%MOIN*%
%OFA0B0*%
%FSLAX25Y25*%
%IPPOS*%
%LPD*%
%AMOC8*
5,1,8,0,0,1.08239X$1,22.5*
%
%ADD10C,0.00000*%
%ADD11C,0.00600*%
%ADD12C,0.00800*%
%ADD13R,0.05118X0.06299*%
%ADD14R,0.06299X0.05118*%
%ADD15R,0.05118X0.05906*%
%ADD16R,0.05906X0.05118*%
%ADD17R,0.03543X0.07874*%
%ADD18R,0.05118X0.07874*%
%ADD19R,0.05512X0.03937*%
%ADD20R,0.03543X0.03150*%
%ADD21R,0.07874X0.03543*%
%ADD22R,0.07874X0.05118*%
%ADD23R,0.03150X0.03543*%
%ADD24R,0.08000X0.02600*%
%ADD25R,0.09449X0.09449*%
%ADD26C,0.01378*%
%ADD27R,0.02362X0.02756*%
%ADD28R,0.02756X0.02362*%
%ADD29R,0.06299X0.10630*%
%ADD30R,0.05512X0.04331*%
%ADD31R,0.04331X0.05512*%
%ADD32R,0.03937X0.05512*%
%ADD33R,0.10630X0.06299*%
%ADD34R,0.05315X0.01575*%
%ADD35R,0.07874X0.03937*%
%ADD36R,0.09843X0.09843*%
%ADD37C,0.00500*%
%ADD38R,0.02874X0.01102*%
%ADD39R,0.01102X0.02874*%
%ADD40R,0.02953X0.02953*%
%ADD41R,0.11024X0.07874*%
%ADD42R,0.10236X0.11024*%
%ADD43R,0.11024X0.08661*%
%ADD44R,0.11024X0.10236*%
%ADD45R,0.06500X0.02500*%
%ADD46R,0.06000X0.04000*%
D10*
X0022953Y0025022D02*
X0022955Y0025175D01*
X0022961Y0025329D01*
X0022971Y0025482D01*
X0022985Y0025634D01*
X0023003Y0025787D01*
X0023025Y0025938D01*
X0023050Y0026089D01*
X0023080Y0026240D01*
X0023114Y0026390D01*
X0023151Y0026538D01*
X0023192Y0026686D01*
X0023237Y0026832D01*
X0023286Y0026978D01*
X0023339Y0027122D01*
X0023395Y0027264D01*
X0023455Y0027405D01*
X0023519Y0027545D01*
X0023586Y0027683D01*
X0023657Y0027819D01*
X0023732Y0027953D01*
X0023809Y0028085D01*
X0023891Y0028215D01*
X0023975Y0028343D01*
X0024063Y0028469D01*
X0024154Y0028592D01*
X0024248Y0028713D01*
X0024346Y0028831D01*
X0024446Y0028947D01*
X0024550Y0029060D01*
X0024656Y0029171D01*
X0024765Y0029279D01*
X0024877Y0029384D01*
X0024991Y0029485D01*
X0025109Y0029584D01*
X0025228Y0029680D01*
X0025350Y0029773D01*
X0025475Y0029862D01*
X0025602Y0029949D01*
X0025731Y0030031D01*
X0025862Y0030111D01*
X0025995Y0030187D01*
X0026130Y0030260D01*
X0026267Y0030329D01*
X0026406Y0030394D01*
X0026546Y0030456D01*
X0026688Y0030514D01*
X0026831Y0030569D01*
X0026976Y0030620D01*
X0027122Y0030667D01*
X0027269Y0030710D01*
X0027417Y0030749D01*
X0027566Y0030785D01*
X0027716Y0030816D01*
X0027867Y0030844D01*
X0028018Y0030868D01*
X0028171Y0030888D01*
X0028323Y0030904D01*
X0028476Y0030916D01*
X0028629Y0030924D01*
X0028782Y0030928D01*
X0028936Y0030928D01*
X0029089Y0030924D01*
X0029242Y0030916D01*
X0029395Y0030904D01*
X0029547Y0030888D01*
X0029700Y0030868D01*
X0029851Y0030844D01*
X0030002Y0030816D01*
X0030152Y0030785D01*
X0030301Y0030749D01*
X0030449Y0030710D01*
X0030596Y0030667D01*
X0030742Y0030620D01*
X0030887Y0030569D01*
X0031030Y0030514D01*
X0031172Y0030456D01*
X0031312Y0030394D01*
X0031451Y0030329D01*
X0031588Y0030260D01*
X0031723Y0030187D01*
X0031856Y0030111D01*
X0031987Y0030031D01*
X0032116Y0029949D01*
X0032243Y0029862D01*
X0032368Y0029773D01*
X0032490Y0029680D01*
X0032609Y0029584D01*
X0032727Y0029485D01*
X0032841Y0029384D01*
X0032953Y0029279D01*
X0033062Y0029171D01*
X0033168Y0029060D01*
X0033272Y0028947D01*
X0033372Y0028831D01*
X0033470Y0028713D01*
X0033564Y0028592D01*
X0033655Y0028469D01*
X0033743Y0028343D01*
X0033827Y0028215D01*
X0033909Y0028085D01*
X0033986Y0027953D01*
X0034061Y0027819D01*
X0034132Y0027683D01*
X0034199Y0027545D01*
X0034263Y0027405D01*
X0034323Y0027264D01*
X0034379Y0027122D01*
X0034432Y0026978D01*
X0034481Y0026832D01*
X0034526Y0026686D01*
X0034567Y0026538D01*
X0034604Y0026390D01*
X0034638Y0026240D01*
X0034668Y0026089D01*
X0034693Y0025938D01*
X0034715Y0025787D01*
X0034733Y0025634D01*
X0034747Y0025482D01*
X0034757Y0025329D01*
X0034763Y0025175D01*
X0034765Y0025022D01*
X0034763Y0024869D01*
X0034757Y0024715D01*
X0034747Y0024562D01*
X0034733Y0024410D01*
X0034715Y0024257D01*
X0034693Y0024106D01*
X0034668Y0023955D01*
X0034638Y0023804D01*
X0034604Y0023654D01*
X0034567Y0023506D01*
X0034526Y0023358D01*
X0034481Y0023212D01*
X0034432Y0023066D01*
X0034379Y0022922D01*
X0034323Y0022780D01*
X0034263Y0022639D01*
X0034199Y0022499D01*
X0034132Y0022361D01*
X0034061Y0022225D01*
X0033986Y0022091D01*
X0033909Y0021959D01*
X0033827Y0021829D01*
X0033743Y0021701D01*
X0033655Y0021575D01*
X0033564Y0021452D01*
X0033470Y0021331D01*
X0033372Y0021213D01*
X0033272Y0021097D01*
X0033168Y0020984D01*
X0033062Y0020873D01*
X0032953Y0020765D01*
X0032841Y0020660D01*
X0032727Y0020559D01*
X0032609Y0020460D01*
X0032490Y0020364D01*
X0032368Y0020271D01*
X0032243Y0020182D01*
X0032116Y0020095D01*
X0031987Y0020013D01*
X0031856Y0019933D01*
X0031723Y0019857D01*
X0031588Y0019784D01*
X0031451Y0019715D01*
X0031312Y0019650D01*
X0031172Y0019588D01*
X0031030Y0019530D01*
X0030887Y0019475D01*
X0030742Y0019424D01*
X0030596Y0019377D01*
X0030449Y0019334D01*
X0030301Y0019295D01*
X0030152Y0019259D01*
X0030002Y0019228D01*
X0029851Y0019200D01*
X0029700Y0019176D01*
X0029547Y0019156D01*
X0029395Y0019140D01*
X0029242Y0019128D01*
X0029089Y0019120D01*
X0028936Y0019116D01*
X0028782Y0019116D01*
X0028629Y0019120D01*
X0028476Y0019128D01*
X0028323Y0019140D01*
X0028171Y0019156D01*
X0028018Y0019176D01*
X0027867Y0019200D01*
X0027716Y0019228D01*
X0027566Y0019259D01*
X0027417Y0019295D01*
X0027269Y0019334D01*
X0027122Y0019377D01*
X0026976Y0019424D01*
X0026831Y0019475D01*
X0026688Y0019530D01*
X0026546Y0019588D01*
X0026406Y0019650D01*
X0026267Y0019715D01*
X0026130Y0019784D01*
X0025995Y0019857D01*
X0025862Y0019933D01*
X0025731Y0020013D01*
X0025602Y0020095D01*
X0025475Y0020182D01*
X0025350Y0020271D01*
X0025228Y0020364D01*
X0025109Y0020460D01*
X0024991Y0020559D01*
X0024877Y0020660D01*
X0024765Y0020765D01*
X0024656Y0020873D01*
X0024550Y0020984D01*
X0024446Y0021097D01*
X0024346Y0021213D01*
X0024248Y0021331D01*
X0024154Y0021452D01*
X0024063Y0021575D01*
X0023975Y0021701D01*
X0023891Y0021829D01*
X0023809Y0021959D01*
X0023732Y0022091D01*
X0023657Y0022225D01*
X0023586Y0022361D01*
X0023519Y0022499D01*
X0023455Y0022639D01*
X0023395Y0022780D01*
X0023339Y0022922D01*
X0023286Y0023066D01*
X0023237Y0023212D01*
X0023192Y0023358D01*
X0023151Y0023506D01*
X0023114Y0023654D01*
X0023080Y0023804D01*
X0023050Y0023955D01*
X0023025Y0024106D01*
X0023003Y0024257D01*
X0022985Y0024410D01*
X0022971Y0024562D01*
X0022961Y0024715D01*
X0022955Y0024869D01*
X0022953Y0025022D01*
X0161891Y0033479D02*
X0161893Y0033594D01*
X0161899Y0033710D01*
X0161909Y0033825D01*
X0161923Y0033940D01*
X0161941Y0034054D01*
X0161963Y0034167D01*
X0161988Y0034280D01*
X0162018Y0034391D01*
X0162051Y0034502D01*
X0162088Y0034611D01*
X0162129Y0034719D01*
X0162174Y0034826D01*
X0162222Y0034931D01*
X0162274Y0035034D01*
X0162330Y0035135D01*
X0162389Y0035235D01*
X0162451Y0035332D01*
X0162517Y0035427D01*
X0162585Y0035520D01*
X0162657Y0035610D01*
X0162732Y0035698D01*
X0162811Y0035783D01*
X0162892Y0035865D01*
X0162975Y0035945D01*
X0163062Y0036021D01*
X0163151Y0036095D01*
X0163242Y0036165D01*
X0163336Y0036233D01*
X0163432Y0036297D01*
X0163531Y0036357D01*
X0163631Y0036414D01*
X0163733Y0036468D01*
X0163837Y0036518D01*
X0163943Y0036565D01*
X0164050Y0036608D01*
X0164159Y0036647D01*
X0164269Y0036682D01*
X0164380Y0036713D01*
X0164492Y0036741D01*
X0164605Y0036765D01*
X0164719Y0036785D01*
X0164834Y0036801D01*
X0164949Y0036813D01*
X0165064Y0036821D01*
X0165179Y0036825D01*
X0165295Y0036825D01*
X0165410Y0036821D01*
X0165525Y0036813D01*
X0165640Y0036801D01*
X0165755Y0036785D01*
X0165869Y0036765D01*
X0165982Y0036741D01*
X0166094Y0036713D01*
X0166205Y0036682D01*
X0166315Y0036647D01*
X0166424Y0036608D01*
X0166531Y0036565D01*
X0166637Y0036518D01*
X0166741Y0036468D01*
X0166843Y0036414D01*
X0166943Y0036357D01*
X0167042Y0036297D01*
X0167138Y0036233D01*
X0167232Y0036165D01*
X0167323Y0036095D01*
X0167412Y0036021D01*
X0167499Y0035945D01*
X0167582Y0035865D01*
X0167663Y0035783D01*
X0167742Y0035698D01*
X0167817Y0035610D01*
X0167889Y0035520D01*
X0167957Y0035427D01*
X0168023Y0035332D01*
X0168085Y0035235D01*
X0168144Y0035135D01*
X0168200Y0035034D01*
X0168252Y0034931D01*
X0168300Y0034826D01*
X0168345Y0034719D01*
X0168386Y0034611D01*
X0168423Y0034502D01*
X0168456Y0034391D01*
X0168486Y0034280D01*
X0168511Y0034167D01*
X0168533Y0034054D01*
X0168551Y0033940D01*
X0168565Y0033825D01*
X0168575Y0033710D01*
X0168581Y0033594D01*
X0168583Y0033479D01*
X0168581Y0033364D01*
X0168575Y0033248D01*
X0168565Y0033133D01*
X0168551Y0033018D01*
X0168533Y0032904D01*
X0168511Y0032791D01*
X0168486Y0032678D01*
X0168456Y0032567D01*
X0168423Y0032456D01*
X0168386Y0032347D01*
X0168345Y0032239D01*
X0168300Y0032132D01*
X0168252Y0032027D01*
X0168200Y0031924D01*
X0168144Y0031823D01*
X0168085Y0031723D01*
X0168023Y0031626D01*
X0167957Y0031531D01*
X0167889Y0031438D01*
X0167817Y0031348D01*
X0167742Y0031260D01*
X0167663Y0031175D01*
X0167582Y0031093D01*
X0167499Y0031013D01*
X0167412Y0030937D01*
X0167323Y0030863D01*
X0167232Y0030793D01*
X0167138Y0030725D01*
X0167042Y0030661D01*
X0166943Y0030601D01*
X0166843Y0030544D01*
X0166741Y0030490D01*
X0166637Y0030440D01*
X0166531Y0030393D01*
X0166424Y0030350D01*
X0166315Y0030311D01*
X0166205Y0030276D01*
X0166094Y0030245D01*
X0165982Y0030217D01*
X0165869Y0030193D01*
X0165755Y0030173D01*
X0165640Y0030157D01*
X0165525Y0030145D01*
X0165410Y0030137D01*
X0165295Y0030133D01*
X0165179Y0030133D01*
X0165064Y0030137D01*
X0164949Y0030145D01*
X0164834Y0030157D01*
X0164719Y0030173D01*
X0164605Y0030193D01*
X0164492Y0030217D01*
X0164380Y0030245D01*
X0164269Y0030276D01*
X0164159Y0030311D01*
X0164050Y0030350D01*
X0163943Y0030393D01*
X0163837Y0030440D01*
X0163733Y0030490D01*
X0163631Y0030544D01*
X0163531Y0030601D01*
X0163432Y0030661D01*
X0163336Y0030725D01*
X0163242Y0030793D01*
X0163151Y0030863D01*
X0163062Y0030937D01*
X0162975Y0031013D01*
X0162892Y0031093D01*
X0162811Y0031175D01*
X0162732Y0031260D01*
X0162657Y0031348D01*
X0162585Y0031438D01*
X0162517Y0031531D01*
X0162451Y0031626D01*
X0162389Y0031723D01*
X0162330Y0031823D01*
X0162274Y0031924D01*
X0162222Y0032027D01*
X0162174Y0032132D01*
X0162129Y0032239D01*
X0162088Y0032347D01*
X0162051Y0032456D01*
X0162018Y0032567D01*
X0161988Y0032678D01*
X0161963Y0032791D01*
X0161941Y0032904D01*
X0161923Y0033018D01*
X0161909Y0033133D01*
X0161899Y0033248D01*
X0161893Y0033364D01*
X0161891Y0033479D01*
X0161891Y0061038D02*
X0161893Y0061153D01*
X0161899Y0061269D01*
X0161909Y0061384D01*
X0161923Y0061499D01*
X0161941Y0061613D01*
X0161963Y0061726D01*
X0161988Y0061839D01*
X0162018Y0061950D01*
X0162051Y0062061D01*
X0162088Y0062170D01*
X0162129Y0062278D01*
X0162174Y0062385D01*
X0162222Y0062490D01*
X0162274Y0062593D01*
X0162330Y0062694D01*
X0162389Y0062794D01*
X0162451Y0062891D01*
X0162517Y0062986D01*
X0162585Y0063079D01*
X0162657Y0063169D01*
X0162732Y0063257D01*
X0162811Y0063342D01*
X0162892Y0063424D01*
X0162975Y0063504D01*
X0163062Y0063580D01*
X0163151Y0063654D01*
X0163242Y0063724D01*
X0163336Y0063792D01*
X0163432Y0063856D01*
X0163531Y0063916D01*
X0163631Y0063973D01*
X0163733Y0064027D01*
X0163837Y0064077D01*
X0163943Y0064124D01*
X0164050Y0064167D01*
X0164159Y0064206D01*
X0164269Y0064241D01*
X0164380Y0064272D01*
X0164492Y0064300D01*
X0164605Y0064324D01*
X0164719Y0064344D01*
X0164834Y0064360D01*
X0164949Y0064372D01*
X0165064Y0064380D01*
X0165179Y0064384D01*
X0165295Y0064384D01*
X0165410Y0064380D01*
X0165525Y0064372D01*
X0165640Y0064360D01*
X0165755Y0064344D01*
X0165869Y0064324D01*
X0165982Y0064300D01*
X0166094Y0064272D01*
X0166205Y0064241D01*
X0166315Y0064206D01*
X0166424Y0064167D01*
X0166531Y0064124D01*
X0166637Y0064077D01*
X0166741Y0064027D01*
X0166843Y0063973D01*
X0166943Y0063916D01*
X0167042Y0063856D01*
X0167138Y0063792D01*
X0167232Y0063724D01*
X0167323Y0063654D01*
X0167412Y0063580D01*
X0167499Y0063504D01*
X0167582Y0063424D01*
X0167663Y0063342D01*
X0167742Y0063257D01*
X0167817Y0063169D01*
X0167889Y0063079D01*
X0167957Y0062986D01*
X0168023Y0062891D01*
X0168085Y0062794D01*
X0168144Y0062694D01*
X0168200Y0062593D01*
X0168252Y0062490D01*
X0168300Y0062385D01*
X0168345Y0062278D01*
X0168386Y0062170D01*
X0168423Y0062061D01*
X0168456Y0061950D01*
X0168486Y0061839D01*
X0168511Y0061726D01*
X0168533Y0061613D01*
X0168551Y0061499D01*
X0168565Y0061384D01*
X0168575Y0061269D01*
X0168581Y0061153D01*
X0168583Y0061038D01*
X0168581Y0060923D01*
X0168575Y0060807D01*
X0168565Y0060692D01*
X0168551Y0060577D01*
X0168533Y0060463D01*
X0168511Y0060350D01*
X0168486Y0060237D01*
X0168456Y0060126D01*
X0168423Y0060015D01*
X0168386Y0059906D01*
X0168345Y0059798D01*
X0168300Y0059691D01*
X0168252Y0059586D01*
X0168200Y0059483D01*
X0168144Y0059382D01*
X0168085Y0059282D01*
X0168023Y0059185D01*
X0167957Y0059090D01*
X0167889Y0058997D01*
X0167817Y0058907D01*
X0167742Y0058819D01*
X0167663Y0058734D01*
X0167582Y0058652D01*
X0167499Y0058572D01*
X0167412Y0058496D01*
X0167323Y0058422D01*
X0167232Y0058352D01*
X0167138Y0058284D01*
X0167042Y0058220D01*
X0166943Y0058160D01*
X0166843Y0058103D01*
X0166741Y0058049D01*
X0166637Y0057999D01*
X0166531Y0057952D01*
X0166424Y0057909D01*
X0166315Y0057870D01*
X0166205Y0057835D01*
X0166094Y0057804D01*
X0165982Y0057776D01*
X0165869Y0057752D01*
X0165755Y0057732D01*
X0165640Y0057716D01*
X0165525Y0057704D01*
X0165410Y0057696D01*
X0165295Y0057692D01*
X0165179Y0057692D01*
X0165064Y0057696D01*
X0164949Y0057704D01*
X0164834Y0057716D01*
X0164719Y0057732D01*
X0164605Y0057752D01*
X0164492Y0057776D01*
X0164380Y0057804D01*
X0164269Y0057835D01*
X0164159Y0057870D01*
X0164050Y0057909D01*
X0163943Y0057952D01*
X0163837Y0057999D01*
X0163733Y0058049D01*
X0163631Y0058103D01*
X0163531Y0058160D01*
X0163432Y0058220D01*
X0163336Y0058284D01*
X0163242Y0058352D01*
X0163151Y0058422D01*
X0163062Y0058496D01*
X0162975Y0058572D01*
X0162892Y0058652D01*
X0162811Y0058734D01*
X0162732Y0058819D01*
X0162657Y0058907D01*
X0162585Y0058997D01*
X0162517Y0059090D01*
X0162451Y0059185D01*
X0162389Y0059282D01*
X0162330Y0059382D01*
X0162274Y0059483D01*
X0162222Y0059586D01*
X0162174Y0059691D01*
X0162129Y0059798D01*
X0162088Y0059906D01*
X0162051Y0060015D01*
X0162018Y0060126D01*
X0161988Y0060237D01*
X0161963Y0060350D01*
X0161941Y0060463D01*
X0161923Y0060577D01*
X0161909Y0060692D01*
X0161899Y0060807D01*
X0161893Y0060923D01*
X0161891Y0061038D01*
X0247339Y0073463D02*
X0247341Y0073575D01*
X0247347Y0073686D01*
X0247357Y0073798D01*
X0247371Y0073909D01*
X0247388Y0074019D01*
X0247410Y0074129D01*
X0247436Y0074238D01*
X0247465Y0074346D01*
X0247498Y0074452D01*
X0247535Y0074558D01*
X0247576Y0074662D01*
X0247621Y0074765D01*
X0247669Y0074866D01*
X0247720Y0074965D01*
X0247775Y0075062D01*
X0247834Y0075157D01*
X0247895Y0075251D01*
X0247960Y0075342D01*
X0248029Y0075430D01*
X0248100Y0075516D01*
X0248174Y0075600D01*
X0248252Y0075680D01*
X0248332Y0075758D01*
X0248415Y0075834D01*
X0248500Y0075906D01*
X0248588Y0075975D01*
X0248678Y0076041D01*
X0248771Y0076103D01*
X0248866Y0076163D01*
X0248963Y0076219D01*
X0249061Y0076271D01*
X0249162Y0076320D01*
X0249264Y0076365D01*
X0249368Y0076407D01*
X0249473Y0076445D01*
X0249580Y0076479D01*
X0249687Y0076509D01*
X0249796Y0076536D01*
X0249905Y0076558D01*
X0250016Y0076577D01*
X0250126Y0076592D01*
X0250238Y0076603D01*
X0250349Y0076610D01*
X0250461Y0076613D01*
X0250573Y0076612D01*
X0250685Y0076607D01*
X0250796Y0076598D01*
X0250907Y0076585D01*
X0251018Y0076568D01*
X0251128Y0076548D01*
X0251237Y0076523D01*
X0251345Y0076495D01*
X0251452Y0076462D01*
X0251558Y0076426D01*
X0251662Y0076386D01*
X0251765Y0076343D01*
X0251867Y0076296D01*
X0251966Y0076245D01*
X0252064Y0076191D01*
X0252160Y0076133D01*
X0252254Y0076072D01*
X0252345Y0076008D01*
X0252434Y0075941D01*
X0252521Y0075870D01*
X0252605Y0075796D01*
X0252687Y0075720D01*
X0252765Y0075640D01*
X0252841Y0075558D01*
X0252914Y0075473D01*
X0252984Y0075386D01*
X0253050Y0075296D01*
X0253114Y0075204D01*
X0253174Y0075110D01*
X0253231Y0075014D01*
X0253284Y0074915D01*
X0253334Y0074815D01*
X0253380Y0074714D01*
X0253423Y0074610D01*
X0253462Y0074505D01*
X0253497Y0074399D01*
X0253528Y0074292D01*
X0253556Y0074183D01*
X0253579Y0074074D01*
X0253599Y0073964D01*
X0253615Y0073853D01*
X0253627Y0073742D01*
X0253635Y0073631D01*
X0253639Y0073519D01*
X0253639Y0073407D01*
X0253635Y0073295D01*
X0253627Y0073184D01*
X0253615Y0073073D01*
X0253599Y0072962D01*
X0253579Y0072852D01*
X0253556Y0072743D01*
X0253528Y0072634D01*
X0253497Y0072527D01*
X0253462Y0072421D01*
X0253423Y0072316D01*
X0253380Y0072212D01*
X0253334Y0072111D01*
X0253284Y0072011D01*
X0253231Y0071912D01*
X0253174Y0071816D01*
X0253114Y0071722D01*
X0253050Y0071630D01*
X0252984Y0071540D01*
X0252914Y0071453D01*
X0252841Y0071368D01*
X0252765Y0071286D01*
X0252687Y0071206D01*
X0252605Y0071130D01*
X0252521Y0071056D01*
X0252434Y0070985D01*
X0252345Y0070918D01*
X0252254Y0070854D01*
X0252160Y0070793D01*
X0252064Y0070735D01*
X0251966Y0070681D01*
X0251867Y0070630D01*
X0251765Y0070583D01*
X0251662Y0070540D01*
X0251558Y0070500D01*
X0251452Y0070464D01*
X0251345Y0070431D01*
X0251237Y0070403D01*
X0251128Y0070378D01*
X0251018Y0070358D01*
X0250907Y0070341D01*
X0250796Y0070328D01*
X0250685Y0070319D01*
X0250573Y0070314D01*
X0250461Y0070313D01*
X0250349Y0070316D01*
X0250238Y0070323D01*
X0250126Y0070334D01*
X0250016Y0070349D01*
X0249905Y0070368D01*
X0249796Y0070390D01*
X0249687Y0070417D01*
X0249580Y0070447D01*
X0249473Y0070481D01*
X0249368Y0070519D01*
X0249264Y0070561D01*
X0249162Y0070606D01*
X0249061Y0070655D01*
X0248963Y0070707D01*
X0248866Y0070763D01*
X0248771Y0070823D01*
X0248678Y0070885D01*
X0248588Y0070951D01*
X0248500Y0071020D01*
X0248415Y0071092D01*
X0248332Y0071168D01*
X0248252Y0071246D01*
X0248174Y0071326D01*
X0248100Y0071410D01*
X0248029Y0071496D01*
X0247960Y0071584D01*
X0247895Y0071675D01*
X0247834Y0071769D01*
X0247775Y0071864D01*
X0247720Y0071961D01*
X0247669Y0072060D01*
X0247621Y0072161D01*
X0247576Y0072264D01*
X0247535Y0072368D01*
X0247498Y0072474D01*
X0247465Y0072580D01*
X0247436Y0072688D01*
X0247410Y0072797D01*
X0247388Y0072907D01*
X0247371Y0073017D01*
X0247357Y0073128D01*
X0247347Y0073240D01*
X0247341Y0073351D01*
X0247339Y0073463D01*
X0270961Y0097085D02*
X0270963Y0097197D01*
X0270969Y0097308D01*
X0270979Y0097420D01*
X0270993Y0097531D01*
X0271010Y0097641D01*
X0271032Y0097751D01*
X0271058Y0097860D01*
X0271087Y0097968D01*
X0271120Y0098074D01*
X0271157Y0098180D01*
X0271198Y0098284D01*
X0271243Y0098387D01*
X0271291Y0098488D01*
X0271342Y0098587D01*
X0271397Y0098684D01*
X0271456Y0098779D01*
X0271517Y0098873D01*
X0271582Y0098964D01*
X0271651Y0099052D01*
X0271722Y0099138D01*
X0271796Y0099222D01*
X0271874Y0099302D01*
X0271954Y0099380D01*
X0272037Y0099456D01*
X0272122Y0099528D01*
X0272210Y0099597D01*
X0272300Y0099663D01*
X0272393Y0099725D01*
X0272488Y0099785D01*
X0272585Y0099841D01*
X0272683Y0099893D01*
X0272784Y0099942D01*
X0272886Y0099987D01*
X0272990Y0100029D01*
X0273095Y0100067D01*
X0273202Y0100101D01*
X0273309Y0100131D01*
X0273418Y0100158D01*
X0273527Y0100180D01*
X0273638Y0100199D01*
X0273748Y0100214D01*
X0273860Y0100225D01*
X0273971Y0100232D01*
X0274083Y0100235D01*
X0274195Y0100234D01*
X0274307Y0100229D01*
X0274418Y0100220D01*
X0274529Y0100207D01*
X0274640Y0100190D01*
X0274750Y0100170D01*
X0274859Y0100145D01*
X0274967Y0100117D01*
X0275074Y0100084D01*
X0275180Y0100048D01*
X0275284Y0100008D01*
X0275387Y0099965D01*
X0275489Y0099918D01*
X0275588Y0099867D01*
X0275686Y0099813D01*
X0275782Y0099755D01*
X0275876Y0099694D01*
X0275967Y0099630D01*
X0276056Y0099563D01*
X0276143Y0099492D01*
X0276227Y0099418D01*
X0276309Y0099342D01*
X0276387Y0099262D01*
X0276463Y0099180D01*
X0276536Y0099095D01*
X0276606Y0099008D01*
X0276672Y0098918D01*
X0276736Y0098826D01*
X0276796Y0098732D01*
X0276853Y0098636D01*
X0276906Y0098537D01*
X0276956Y0098437D01*
X0277002Y0098336D01*
X0277045Y0098232D01*
X0277084Y0098127D01*
X0277119Y0098021D01*
X0277150Y0097914D01*
X0277178Y0097805D01*
X0277201Y0097696D01*
X0277221Y0097586D01*
X0277237Y0097475D01*
X0277249Y0097364D01*
X0277257Y0097253D01*
X0277261Y0097141D01*
X0277261Y0097029D01*
X0277257Y0096917D01*
X0277249Y0096806D01*
X0277237Y0096695D01*
X0277221Y0096584D01*
X0277201Y0096474D01*
X0277178Y0096365D01*
X0277150Y0096256D01*
X0277119Y0096149D01*
X0277084Y0096043D01*
X0277045Y0095938D01*
X0277002Y0095834D01*
X0276956Y0095733D01*
X0276906Y0095633D01*
X0276853Y0095534D01*
X0276796Y0095438D01*
X0276736Y0095344D01*
X0276672Y0095252D01*
X0276606Y0095162D01*
X0276536Y0095075D01*
X0276463Y0094990D01*
X0276387Y0094908D01*
X0276309Y0094828D01*
X0276227Y0094752D01*
X0276143Y0094678D01*
X0276056Y0094607D01*
X0275967Y0094540D01*
X0275876Y0094476D01*
X0275782Y0094415D01*
X0275686Y0094357D01*
X0275588Y0094303D01*
X0275489Y0094252D01*
X0275387Y0094205D01*
X0275284Y0094162D01*
X0275180Y0094122D01*
X0275074Y0094086D01*
X0274967Y0094053D01*
X0274859Y0094025D01*
X0274750Y0094000D01*
X0274640Y0093980D01*
X0274529Y0093963D01*
X0274418Y0093950D01*
X0274307Y0093941D01*
X0274195Y0093936D01*
X0274083Y0093935D01*
X0273971Y0093938D01*
X0273860Y0093945D01*
X0273748Y0093956D01*
X0273638Y0093971D01*
X0273527Y0093990D01*
X0273418Y0094012D01*
X0273309Y0094039D01*
X0273202Y0094069D01*
X0273095Y0094103D01*
X0272990Y0094141D01*
X0272886Y0094183D01*
X0272784Y0094228D01*
X0272683Y0094277D01*
X0272585Y0094329D01*
X0272488Y0094385D01*
X0272393Y0094445D01*
X0272300Y0094507D01*
X0272210Y0094573D01*
X0272122Y0094642D01*
X0272037Y0094714D01*
X0271954Y0094790D01*
X0271874Y0094868D01*
X0271796Y0094948D01*
X0271722Y0095032D01*
X0271651Y0095118D01*
X0271582Y0095206D01*
X0271517Y0095297D01*
X0271456Y0095391D01*
X0271397Y0095486D01*
X0271342Y0095583D01*
X0271291Y0095682D01*
X0271243Y0095783D01*
X0271198Y0095886D01*
X0271157Y0095990D01*
X0271120Y0096096D01*
X0271087Y0096202D01*
X0271058Y0096310D01*
X0271032Y0096419D01*
X0271010Y0096529D01*
X0270993Y0096639D01*
X0270979Y0096750D01*
X0270969Y0096862D01*
X0270963Y0096973D01*
X0270961Y0097085D01*
X0324513Y0117274D02*
X0324515Y0117330D01*
X0324521Y0117385D01*
X0324531Y0117439D01*
X0324544Y0117493D01*
X0324562Y0117546D01*
X0324583Y0117597D01*
X0324607Y0117647D01*
X0324635Y0117695D01*
X0324667Y0117741D01*
X0324701Y0117785D01*
X0324739Y0117826D01*
X0324779Y0117864D01*
X0324822Y0117899D01*
X0324867Y0117931D01*
X0324915Y0117960D01*
X0324964Y0117986D01*
X0325015Y0118008D01*
X0325067Y0118026D01*
X0325121Y0118040D01*
X0325176Y0118051D01*
X0325231Y0118058D01*
X0325286Y0118061D01*
X0325342Y0118060D01*
X0325397Y0118055D01*
X0325452Y0118046D01*
X0325506Y0118034D01*
X0325559Y0118017D01*
X0325611Y0117997D01*
X0325661Y0117973D01*
X0325709Y0117946D01*
X0325756Y0117916D01*
X0325800Y0117882D01*
X0325842Y0117845D01*
X0325880Y0117805D01*
X0325917Y0117763D01*
X0325950Y0117718D01*
X0325979Y0117672D01*
X0326006Y0117623D01*
X0326028Y0117572D01*
X0326048Y0117520D01*
X0326063Y0117466D01*
X0326075Y0117412D01*
X0326083Y0117357D01*
X0326087Y0117302D01*
X0326087Y0117246D01*
X0326083Y0117191D01*
X0326075Y0117136D01*
X0326063Y0117082D01*
X0326048Y0117028D01*
X0326028Y0116976D01*
X0326006Y0116925D01*
X0325979Y0116876D01*
X0325950Y0116830D01*
X0325917Y0116785D01*
X0325880Y0116743D01*
X0325842Y0116703D01*
X0325800Y0116666D01*
X0325756Y0116632D01*
X0325709Y0116602D01*
X0325661Y0116575D01*
X0325611Y0116551D01*
X0325559Y0116531D01*
X0325506Y0116514D01*
X0325452Y0116502D01*
X0325397Y0116493D01*
X0325342Y0116488D01*
X0325286Y0116487D01*
X0325231Y0116490D01*
X0325176Y0116497D01*
X0325121Y0116508D01*
X0325067Y0116522D01*
X0325015Y0116540D01*
X0324964Y0116562D01*
X0324915Y0116588D01*
X0324867Y0116617D01*
X0324822Y0116649D01*
X0324779Y0116684D01*
X0324739Y0116722D01*
X0324701Y0116763D01*
X0324667Y0116807D01*
X0324635Y0116853D01*
X0324607Y0116901D01*
X0324583Y0116951D01*
X0324562Y0117002D01*
X0324544Y0117055D01*
X0324531Y0117109D01*
X0324521Y0117163D01*
X0324515Y0117218D01*
X0324513Y0117274D01*
X0324513Y0121274D02*
X0324515Y0121330D01*
X0324521Y0121385D01*
X0324531Y0121439D01*
X0324544Y0121493D01*
X0324562Y0121546D01*
X0324583Y0121597D01*
X0324607Y0121647D01*
X0324635Y0121695D01*
X0324667Y0121741D01*
X0324701Y0121785D01*
X0324739Y0121826D01*
X0324779Y0121864D01*
X0324822Y0121899D01*
X0324867Y0121931D01*
X0324915Y0121960D01*
X0324964Y0121986D01*
X0325015Y0122008D01*
X0325067Y0122026D01*
X0325121Y0122040D01*
X0325176Y0122051D01*
X0325231Y0122058D01*
X0325286Y0122061D01*
X0325342Y0122060D01*
X0325397Y0122055D01*
X0325452Y0122046D01*
X0325506Y0122034D01*
X0325559Y0122017D01*
X0325611Y0121997D01*
X0325661Y0121973D01*
X0325709Y0121946D01*
X0325756Y0121916D01*
X0325800Y0121882D01*
X0325842Y0121845D01*
X0325880Y0121805D01*
X0325917Y0121763D01*
X0325950Y0121718D01*
X0325979Y0121672D01*
X0326006Y0121623D01*
X0326028Y0121572D01*
X0326048Y0121520D01*
X0326063Y0121466D01*
X0326075Y0121412D01*
X0326083Y0121357D01*
X0326087Y0121302D01*
X0326087Y0121246D01*
X0326083Y0121191D01*
X0326075Y0121136D01*
X0326063Y0121082D01*
X0326048Y0121028D01*
X0326028Y0120976D01*
X0326006Y0120925D01*
X0325979Y0120876D01*
X0325950Y0120830D01*
X0325917Y0120785D01*
X0325880Y0120743D01*
X0325842Y0120703D01*
X0325800Y0120666D01*
X0325756Y0120632D01*
X0325709Y0120602D01*
X0325661Y0120575D01*
X0325611Y0120551D01*
X0325559Y0120531D01*
X0325506Y0120514D01*
X0325452Y0120502D01*
X0325397Y0120493D01*
X0325342Y0120488D01*
X0325286Y0120487D01*
X0325231Y0120490D01*
X0325176Y0120497D01*
X0325121Y0120508D01*
X0325067Y0120522D01*
X0325015Y0120540D01*
X0324964Y0120562D01*
X0324915Y0120588D01*
X0324867Y0120617D01*
X0324822Y0120649D01*
X0324779Y0120684D01*
X0324739Y0120722D01*
X0324701Y0120763D01*
X0324667Y0120807D01*
X0324635Y0120853D01*
X0324607Y0120901D01*
X0324583Y0120951D01*
X0324562Y0121002D01*
X0324544Y0121055D01*
X0324531Y0121109D01*
X0324521Y0121163D01*
X0324515Y0121218D01*
X0324513Y0121274D01*
X0324513Y0125274D02*
X0324515Y0125330D01*
X0324521Y0125385D01*
X0324531Y0125439D01*
X0324544Y0125493D01*
X0324562Y0125546D01*
X0324583Y0125597D01*
X0324607Y0125647D01*
X0324635Y0125695D01*
X0324667Y0125741D01*
X0324701Y0125785D01*
X0324739Y0125826D01*
X0324779Y0125864D01*
X0324822Y0125899D01*
X0324867Y0125931D01*
X0324915Y0125960D01*
X0324964Y0125986D01*
X0325015Y0126008D01*
X0325067Y0126026D01*
X0325121Y0126040D01*
X0325176Y0126051D01*
X0325231Y0126058D01*
X0325286Y0126061D01*
X0325342Y0126060D01*
X0325397Y0126055D01*
X0325452Y0126046D01*
X0325506Y0126034D01*
X0325559Y0126017D01*
X0325611Y0125997D01*
X0325661Y0125973D01*
X0325709Y0125946D01*
X0325756Y0125916D01*
X0325800Y0125882D01*
X0325842Y0125845D01*
X0325880Y0125805D01*
X0325917Y0125763D01*
X0325950Y0125718D01*
X0325979Y0125672D01*
X0326006Y0125623D01*
X0326028Y0125572D01*
X0326048Y0125520D01*
X0326063Y0125466D01*
X0326075Y0125412D01*
X0326083Y0125357D01*
X0326087Y0125302D01*
X0326087Y0125246D01*
X0326083Y0125191D01*
X0326075Y0125136D01*
X0326063Y0125082D01*
X0326048Y0125028D01*
X0326028Y0124976D01*
X0326006Y0124925D01*
X0325979Y0124876D01*
X0325950Y0124830D01*
X0325917Y0124785D01*
X0325880Y0124743D01*
X0325842Y0124703D01*
X0325800Y0124666D01*
X0325756Y0124632D01*
X0325709Y0124602D01*
X0325661Y0124575D01*
X0325611Y0124551D01*
X0325559Y0124531D01*
X0325506Y0124514D01*
X0325452Y0124502D01*
X0325397Y0124493D01*
X0325342Y0124488D01*
X0325286Y0124487D01*
X0325231Y0124490D01*
X0325176Y0124497D01*
X0325121Y0124508D01*
X0325067Y0124522D01*
X0325015Y0124540D01*
X0324964Y0124562D01*
X0324915Y0124588D01*
X0324867Y0124617D01*
X0324822Y0124649D01*
X0324779Y0124684D01*
X0324739Y0124722D01*
X0324701Y0124763D01*
X0324667Y0124807D01*
X0324635Y0124853D01*
X0324607Y0124901D01*
X0324583Y0124951D01*
X0324562Y0125002D01*
X0324544Y0125055D01*
X0324531Y0125109D01*
X0324521Y0125163D01*
X0324515Y0125218D01*
X0324513Y0125274D01*
X0324513Y0129274D02*
X0324515Y0129330D01*
X0324521Y0129385D01*
X0324531Y0129439D01*
X0324544Y0129493D01*
X0324562Y0129546D01*
X0324583Y0129597D01*
X0324607Y0129647D01*
X0324635Y0129695D01*
X0324667Y0129741D01*
X0324701Y0129785D01*
X0324739Y0129826D01*
X0324779Y0129864D01*
X0324822Y0129899D01*
X0324867Y0129931D01*
X0324915Y0129960D01*
X0324964Y0129986D01*
X0325015Y0130008D01*
X0325067Y0130026D01*
X0325121Y0130040D01*
X0325176Y0130051D01*
X0325231Y0130058D01*
X0325286Y0130061D01*
X0325342Y0130060D01*
X0325397Y0130055D01*
X0325452Y0130046D01*
X0325506Y0130034D01*
X0325559Y0130017D01*
X0325611Y0129997D01*
X0325661Y0129973D01*
X0325709Y0129946D01*
X0325756Y0129916D01*
X0325800Y0129882D01*
X0325842Y0129845D01*
X0325880Y0129805D01*
X0325917Y0129763D01*
X0325950Y0129718D01*
X0325979Y0129672D01*
X0326006Y0129623D01*
X0326028Y0129572D01*
X0326048Y0129520D01*
X0326063Y0129466D01*
X0326075Y0129412D01*
X0326083Y0129357D01*
X0326087Y0129302D01*
X0326087Y0129246D01*
X0326083Y0129191D01*
X0326075Y0129136D01*
X0326063Y0129082D01*
X0326048Y0129028D01*
X0326028Y0128976D01*
X0326006Y0128925D01*
X0325979Y0128876D01*
X0325950Y0128830D01*
X0325917Y0128785D01*
X0325880Y0128743D01*
X0325842Y0128703D01*
X0325800Y0128666D01*
X0325756Y0128632D01*
X0325709Y0128602D01*
X0325661Y0128575D01*
X0325611Y0128551D01*
X0325559Y0128531D01*
X0325506Y0128514D01*
X0325452Y0128502D01*
X0325397Y0128493D01*
X0325342Y0128488D01*
X0325286Y0128487D01*
X0325231Y0128490D01*
X0325176Y0128497D01*
X0325121Y0128508D01*
X0325067Y0128522D01*
X0325015Y0128540D01*
X0324964Y0128562D01*
X0324915Y0128588D01*
X0324867Y0128617D01*
X0324822Y0128649D01*
X0324779Y0128684D01*
X0324739Y0128722D01*
X0324701Y0128763D01*
X0324667Y0128807D01*
X0324635Y0128853D01*
X0324607Y0128901D01*
X0324583Y0128951D01*
X0324562Y0129002D01*
X0324544Y0129055D01*
X0324531Y0129109D01*
X0324521Y0129163D01*
X0324515Y0129218D01*
X0324513Y0129274D01*
X0324513Y0133274D02*
X0324515Y0133330D01*
X0324521Y0133385D01*
X0324531Y0133439D01*
X0324544Y0133493D01*
X0324562Y0133546D01*
X0324583Y0133597D01*
X0324607Y0133647D01*
X0324635Y0133695D01*
X0324667Y0133741D01*
X0324701Y0133785D01*
X0324739Y0133826D01*
X0324779Y0133864D01*
X0324822Y0133899D01*
X0324867Y0133931D01*
X0324915Y0133960D01*
X0324964Y0133986D01*
X0325015Y0134008D01*
X0325067Y0134026D01*
X0325121Y0134040D01*
X0325176Y0134051D01*
X0325231Y0134058D01*
X0325286Y0134061D01*
X0325342Y0134060D01*
X0325397Y0134055D01*
X0325452Y0134046D01*
X0325506Y0134034D01*
X0325559Y0134017D01*
X0325611Y0133997D01*
X0325661Y0133973D01*
X0325709Y0133946D01*
X0325756Y0133916D01*
X0325800Y0133882D01*
X0325842Y0133845D01*
X0325880Y0133805D01*
X0325917Y0133763D01*
X0325950Y0133718D01*
X0325979Y0133672D01*
X0326006Y0133623D01*
X0326028Y0133572D01*
X0326048Y0133520D01*
X0326063Y0133466D01*
X0326075Y0133412D01*
X0326083Y0133357D01*
X0326087Y0133302D01*
X0326087Y0133246D01*
X0326083Y0133191D01*
X0326075Y0133136D01*
X0326063Y0133082D01*
X0326048Y0133028D01*
X0326028Y0132976D01*
X0326006Y0132925D01*
X0325979Y0132876D01*
X0325950Y0132830D01*
X0325917Y0132785D01*
X0325880Y0132743D01*
X0325842Y0132703D01*
X0325800Y0132666D01*
X0325756Y0132632D01*
X0325709Y0132602D01*
X0325661Y0132575D01*
X0325611Y0132551D01*
X0325559Y0132531D01*
X0325506Y0132514D01*
X0325452Y0132502D01*
X0325397Y0132493D01*
X0325342Y0132488D01*
X0325286Y0132487D01*
X0325231Y0132490D01*
X0325176Y0132497D01*
X0325121Y0132508D01*
X0325067Y0132522D01*
X0325015Y0132540D01*
X0324964Y0132562D01*
X0324915Y0132588D01*
X0324867Y0132617D01*
X0324822Y0132649D01*
X0324779Y0132684D01*
X0324739Y0132722D01*
X0324701Y0132763D01*
X0324667Y0132807D01*
X0324635Y0132853D01*
X0324607Y0132901D01*
X0324583Y0132951D01*
X0324562Y0133002D01*
X0324544Y0133055D01*
X0324531Y0133109D01*
X0324521Y0133163D01*
X0324515Y0133218D01*
X0324513Y0133274D01*
X0324513Y0141274D02*
X0324515Y0141330D01*
X0324521Y0141385D01*
X0324531Y0141439D01*
X0324544Y0141493D01*
X0324562Y0141546D01*
X0324583Y0141597D01*
X0324607Y0141647D01*
X0324635Y0141695D01*
X0324667Y0141741D01*
X0324701Y0141785D01*
X0324739Y0141826D01*
X0324779Y0141864D01*
X0324822Y0141899D01*
X0324867Y0141931D01*
X0324915Y0141960D01*
X0324964Y0141986D01*
X0325015Y0142008D01*
X0325067Y0142026D01*
X0325121Y0142040D01*
X0325176Y0142051D01*
X0325231Y0142058D01*
X0325286Y0142061D01*
X0325342Y0142060D01*
X0325397Y0142055D01*
X0325452Y0142046D01*
X0325506Y0142034D01*
X0325559Y0142017D01*
X0325611Y0141997D01*
X0325661Y0141973D01*
X0325709Y0141946D01*
X0325756Y0141916D01*
X0325800Y0141882D01*
X0325842Y0141845D01*
X0325880Y0141805D01*
X0325917Y0141763D01*
X0325950Y0141718D01*
X0325979Y0141672D01*
X0326006Y0141623D01*
X0326028Y0141572D01*
X0326048Y0141520D01*
X0326063Y0141466D01*
X0326075Y0141412D01*
X0326083Y0141357D01*
X0326087Y0141302D01*
X0326087Y0141246D01*
X0326083Y0141191D01*
X0326075Y0141136D01*
X0326063Y0141082D01*
X0326048Y0141028D01*
X0326028Y0140976D01*
X0326006Y0140925D01*
X0325979Y0140876D01*
X0325950Y0140830D01*
X0325917Y0140785D01*
X0325880Y0140743D01*
X0325842Y0140703D01*
X0325800Y0140666D01*
X0325756Y0140632D01*
X0325709Y0140602D01*
X0325661Y0140575D01*
X0325611Y0140551D01*
X0325559Y0140531D01*
X0325506Y0140514D01*
X0325452Y0140502D01*
X0325397Y0140493D01*
X0325342Y0140488D01*
X0325286Y0140487D01*
X0325231Y0140490D01*
X0325176Y0140497D01*
X0325121Y0140508D01*
X0325067Y0140522D01*
X0325015Y0140540D01*
X0324964Y0140562D01*
X0324915Y0140588D01*
X0324867Y0140617D01*
X0324822Y0140649D01*
X0324779Y0140684D01*
X0324739Y0140722D01*
X0324701Y0140763D01*
X0324667Y0140807D01*
X0324635Y0140853D01*
X0324607Y0140901D01*
X0324583Y0140951D01*
X0324562Y0141002D01*
X0324544Y0141055D01*
X0324531Y0141109D01*
X0324521Y0141163D01*
X0324515Y0141218D01*
X0324513Y0141274D01*
X0324513Y0145274D02*
X0324515Y0145330D01*
X0324521Y0145385D01*
X0324531Y0145439D01*
X0324544Y0145493D01*
X0324562Y0145546D01*
X0324583Y0145597D01*
X0324607Y0145647D01*
X0324635Y0145695D01*
X0324667Y0145741D01*
X0324701Y0145785D01*
X0324739Y0145826D01*
X0324779Y0145864D01*
X0324822Y0145899D01*
X0324867Y0145931D01*
X0324915Y0145960D01*
X0324964Y0145986D01*
X0325015Y0146008D01*
X0325067Y0146026D01*
X0325121Y0146040D01*
X0325176Y0146051D01*
X0325231Y0146058D01*
X0325286Y0146061D01*
X0325342Y0146060D01*
X0325397Y0146055D01*
X0325452Y0146046D01*
X0325506Y0146034D01*
X0325559Y0146017D01*
X0325611Y0145997D01*
X0325661Y0145973D01*
X0325709Y0145946D01*
X0325756Y0145916D01*
X0325800Y0145882D01*
X0325842Y0145845D01*
X0325880Y0145805D01*
X0325917Y0145763D01*
X0325950Y0145718D01*
X0325979Y0145672D01*
X0326006Y0145623D01*
X0326028Y0145572D01*
X0326048Y0145520D01*
X0326063Y0145466D01*
X0326075Y0145412D01*
X0326083Y0145357D01*
X0326087Y0145302D01*
X0326087Y0145246D01*
X0326083Y0145191D01*
X0326075Y0145136D01*
X0326063Y0145082D01*
X0326048Y0145028D01*
X0326028Y0144976D01*
X0326006Y0144925D01*
X0325979Y0144876D01*
X0325950Y0144830D01*
X0325917Y0144785D01*
X0325880Y0144743D01*
X0325842Y0144703D01*
X0325800Y0144666D01*
X0325756Y0144632D01*
X0325709Y0144602D01*
X0325661Y0144575D01*
X0325611Y0144551D01*
X0325559Y0144531D01*
X0325506Y0144514D01*
X0325452Y0144502D01*
X0325397Y0144493D01*
X0325342Y0144488D01*
X0325286Y0144487D01*
X0325231Y0144490D01*
X0325176Y0144497D01*
X0325121Y0144508D01*
X0325067Y0144522D01*
X0325015Y0144540D01*
X0324964Y0144562D01*
X0324915Y0144588D01*
X0324867Y0144617D01*
X0324822Y0144649D01*
X0324779Y0144684D01*
X0324739Y0144722D01*
X0324701Y0144763D01*
X0324667Y0144807D01*
X0324635Y0144853D01*
X0324607Y0144901D01*
X0324583Y0144951D01*
X0324562Y0145002D01*
X0324544Y0145055D01*
X0324531Y0145109D01*
X0324521Y0145163D01*
X0324515Y0145218D01*
X0324513Y0145274D01*
X0324513Y0149274D02*
X0324515Y0149330D01*
X0324521Y0149385D01*
X0324531Y0149439D01*
X0324544Y0149493D01*
X0324562Y0149546D01*
X0324583Y0149597D01*
X0324607Y0149647D01*
X0324635Y0149695D01*
X0324667Y0149741D01*
X0324701Y0149785D01*
X0324739Y0149826D01*
X0324779Y0149864D01*
X0324822Y0149899D01*
X0324867Y0149931D01*
X0324915Y0149960D01*
X0324964Y0149986D01*
X0325015Y0150008D01*
X0325067Y0150026D01*
X0325121Y0150040D01*
X0325176Y0150051D01*
X0325231Y0150058D01*
X0325286Y0150061D01*
X0325342Y0150060D01*
X0325397Y0150055D01*
X0325452Y0150046D01*
X0325506Y0150034D01*
X0325559Y0150017D01*
X0325611Y0149997D01*
X0325661Y0149973D01*
X0325709Y0149946D01*
X0325756Y0149916D01*
X0325800Y0149882D01*
X0325842Y0149845D01*
X0325880Y0149805D01*
X0325917Y0149763D01*
X0325950Y0149718D01*
X0325979Y0149672D01*
X0326006Y0149623D01*
X0326028Y0149572D01*
X0326048Y0149520D01*
X0326063Y0149466D01*
X0326075Y0149412D01*
X0326083Y0149357D01*
X0326087Y0149302D01*
X0326087Y0149246D01*
X0326083Y0149191D01*
X0326075Y0149136D01*
X0326063Y0149082D01*
X0326048Y0149028D01*
X0326028Y0148976D01*
X0326006Y0148925D01*
X0325979Y0148876D01*
X0325950Y0148830D01*
X0325917Y0148785D01*
X0325880Y0148743D01*
X0325842Y0148703D01*
X0325800Y0148666D01*
X0325756Y0148632D01*
X0325709Y0148602D01*
X0325661Y0148575D01*
X0325611Y0148551D01*
X0325559Y0148531D01*
X0325506Y0148514D01*
X0325452Y0148502D01*
X0325397Y0148493D01*
X0325342Y0148488D01*
X0325286Y0148487D01*
X0325231Y0148490D01*
X0325176Y0148497D01*
X0325121Y0148508D01*
X0325067Y0148522D01*
X0325015Y0148540D01*
X0324964Y0148562D01*
X0324915Y0148588D01*
X0324867Y0148617D01*
X0324822Y0148649D01*
X0324779Y0148684D01*
X0324739Y0148722D01*
X0324701Y0148763D01*
X0324667Y0148807D01*
X0324635Y0148853D01*
X0324607Y0148901D01*
X0324583Y0148951D01*
X0324562Y0149002D01*
X0324544Y0149055D01*
X0324531Y0149109D01*
X0324521Y0149163D01*
X0324515Y0149218D01*
X0324513Y0149274D01*
X0324513Y0153274D02*
X0324515Y0153330D01*
X0324521Y0153385D01*
X0324531Y0153439D01*
X0324544Y0153493D01*
X0324562Y0153546D01*
X0324583Y0153597D01*
X0324607Y0153647D01*
X0324635Y0153695D01*
X0324667Y0153741D01*
X0324701Y0153785D01*
X0324739Y0153826D01*
X0324779Y0153864D01*
X0324822Y0153899D01*
X0324867Y0153931D01*
X0324915Y0153960D01*
X0324964Y0153986D01*
X0325015Y0154008D01*
X0325067Y0154026D01*
X0325121Y0154040D01*
X0325176Y0154051D01*
X0325231Y0154058D01*
X0325286Y0154061D01*
X0325342Y0154060D01*
X0325397Y0154055D01*
X0325452Y0154046D01*
X0325506Y0154034D01*
X0325559Y0154017D01*
X0325611Y0153997D01*
X0325661Y0153973D01*
X0325709Y0153946D01*
X0325756Y0153916D01*
X0325800Y0153882D01*
X0325842Y0153845D01*
X0325880Y0153805D01*
X0325917Y0153763D01*
X0325950Y0153718D01*
X0325979Y0153672D01*
X0326006Y0153623D01*
X0326028Y0153572D01*
X0326048Y0153520D01*
X0326063Y0153466D01*
X0326075Y0153412D01*
X0326083Y0153357D01*
X0326087Y0153302D01*
X0326087Y0153246D01*
X0326083Y0153191D01*
X0326075Y0153136D01*
X0326063Y0153082D01*
X0326048Y0153028D01*
X0326028Y0152976D01*
X0326006Y0152925D01*
X0325979Y0152876D01*
X0325950Y0152830D01*
X0325917Y0152785D01*
X0325880Y0152743D01*
X0325842Y0152703D01*
X0325800Y0152666D01*
X0325756Y0152632D01*
X0325709Y0152602D01*
X0325661Y0152575D01*
X0325611Y0152551D01*
X0325559Y0152531D01*
X0325506Y0152514D01*
X0325452Y0152502D01*
X0325397Y0152493D01*
X0325342Y0152488D01*
X0325286Y0152487D01*
X0325231Y0152490D01*
X0325176Y0152497D01*
X0325121Y0152508D01*
X0325067Y0152522D01*
X0325015Y0152540D01*
X0324964Y0152562D01*
X0324915Y0152588D01*
X0324867Y0152617D01*
X0324822Y0152649D01*
X0324779Y0152684D01*
X0324739Y0152722D01*
X0324701Y0152763D01*
X0324667Y0152807D01*
X0324635Y0152853D01*
X0324607Y0152901D01*
X0324583Y0152951D01*
X0324562Y0153002D01*
X0324544Y0153055D01*
X0324531Y0153109D01*
X0324521Y0153163D01*
X0324515Y0153218D01*
X0324513Y0153274D01*
X0324513Y0157274D02*
X0324515Y0157330D01*
X0324521Y0157385D01*
X0324531Y0157439D01*
X0324544Y0157493D01*
X0324562Y0157546D01*
X0324583Y0157597D01*
X0324607Y0157647D01*
X0324635Y0157695D01*
X0324667Y0157741D01*
X0324701Y0157785D01*
X0324739Y0157826D01*
X0324779Y0157864D01*
X0324822Y0157899D01*
X0324867Y0157931D01*
X0324915Y0157960D01*
X0324964Y0157986D01*
X0325015Y0158008D01*
X0325067Y0158026D01*
X0325121Y0158040D01*
X0325176Y0158051D01*
X0325231Y0158058D01*
X0325286Y0158061D01*
X0325342Y0158060D01*
X0325397Y0158055D01*
X0325452Y0158046D01*
X0325506Y0158034D01*
X0325559Y0158017D01*
X0325611Y0157997D01*
X0325661Y0157973D01*
X0325709Y0157946D01*
X0325756Y0157916D01*
X0325800Y0157882D01*
X0325842Y0157845D01*
X0325880Y0157805D01*
X0325917Y0157763D01*
X0325950Y0157718D01*
X0325979Y0157672D01*
X0326006Y0157623D01*
X0326028Y0157572D01*
X0326048Y0157520D01*
X0326063Y0157466D01*
X0326075Y0157412D01*
X0326083Y0157357D01*
X0326087Y0157302D01*
X0326087Y0157246D01*
X0326083Y0157191D01*
X0326075Y0157136D01*
X0326063Y0157082D01*
X0326048Y0157028D01*
X0326028Y0156976D01*
X0326006Y0156925D01*
X0325979Y0156876D01*
X0325950Y0156830D01*
X0325917Y0156785D01*
X0325880Y0156743D01*
X0325842Y0156703D01*
X0325800Y0156666D01*
X0325756Y0156632D01*
X0325709Y0156602D01*
X0325661Y0156575D01*
X0325611Y0156551D01*
X0325559Y0156531D01*
X0325506Y0156514D01*
X0325452Y0156502D01*
X0325397Y0156493D01*
X0325342Y0156488D01*
X0325286Y0156487D01*
X0325231Y0156490D01*
X0325176Y0156497D01*
X0325121Y0156508D01*
X0325067Y0156522D01*
X0325015Y0156540D01*
X0324964Y0156562D01*
X0324915Y0156588D01*
X0324867Y0156617D01*
X0324822Y0156649D01*
X0324779Y0156684D01*
X0324739Y0156722D01*
X0324701Y0156763D01*
X0324667Y0156807D01*
X0324635Y0156853D01*
X0324607Y0156901D01*
X0324583Y0156951D01*
X0324562Y0157002D01*
X0324544Y0157055D01*
X0324531Y0157109D01*
X0324521Y0157163D01*
X0324515Y0157218D01*
X0324513Y0157274D01*
X0334513Y0157274D02*
X0334515Y0157330D01*
X0334521Y0157385D01*
X0334531Y0157439D01*
X0334544Y0157493D01*
X0334562Y0157546D01*
X0334583Y0157597D01*
X0334607Y0157647D01*
X0334635Y0157695D01*
X0334667Y0157741D01*
X0334701Y0157785D01*
X0334739Y0157826D01*
X0334779Y0157864D01*
X0334822Y0157899D01*
X0334867Y0157931D01*
X0334915Y0157960D01*
X0334964Y0157986D01*
X0335015Y0158008D01*
X0335067Y0158026D01*
X0335121Y0158040D01*
X0335176Y0158051D01*
X0335231Y0158058D01*
X0335286Y0158061D01*
X0335342Y0158060D01*
X0335397Y0158055D01*
X0335452Y0158046D01*
X0335506Y0158034D01*
X0335559Y0158017D01*
X0335611Y0157997D01*
X0335661Y0157973D01*
X0335709Y0157946D01*
X0335756Y0157916D01*
X0335800Y0157882D01*
X0335842Y0157845D01*
X0335880Y0157805D01*
X0335917Y0157763D01*
X0335950Y0157718D01*
X0335979Y0157672D01*
X0336006Y0157623D01*
X0336028Y0157572D01*
X0336048Y0157520D01*
X0336063Y0157466D01*
X0336075Y0157412D01*
X0336083Y0157357D01*
X0336087Y0157302D01*
X0336087Y0157246D01*
X0336083Y0157191D01*
X0336075Y0157136D01*
X0336063Y0157082D01*
X0336048Y0157028D01*
X0336028Y0156976D01*
X0336006Y0156925D01*
X0335979Y0156876D01*
X0335950Y0156830D01*
X0335917Y0156785D01*
X0335880Y0156743D01*
X0335842Y0156703D01*
X0335800Y0156666D01*
X0335756Y0156632D01*
X0335709Y0156602D01*
X0335661Y0156575D01*
X0335611Y0156551D01*
X0335559Y0156531D01*
X0335506Y0156514D01*
X0335452Y0156502D01*
X0335397Y0156493D01*
X0335342Y0156488D01*
X0335286Y0156487D01*
X0335231Y0156490D01*
X0335176Y0156497D01*
X0335121Y0156508D01*
X0335067Y0156522D01*
X0335015Y0156540D01*
X0334964Y0156562D01*
X0334915Y0156588D01*
X0334867Y0156617D01*
X0334822Y0156649D01*
X0334779Y0156684D01*
X0334739Y0156722D01*
X0334701Y0156763D01*
X0334667Y0156807D01*
X0334635Y0156853D01*
X0334607Y0156901D01*
X0334583Y0156951D01*
X0334562Y0157002D01*
X0334544Y0157055D01*
X0334531Y0157109D01*
X0334521Y0157163D01*
X0334515Y0157218D01*
X0334513Y0157274D01*
X0334513Y0153274D02*
X0334515Y0153330D01*
X0334521Y0153385D01*
X0334531Y0153439D01*
X0334544Y0153493D01*
X0334562Y0153546D01*
X0334583Y0153597D01*
X0334607Y0153647D01*
X0334635Y0153695D01*
X0334667Y0153741D01*
X0334701Y0153785D01*
X0334739Y0153826D01*
X0334779Y0153864D01*
X0334822Y0153899D01*
X0334867Y0153931D01*
X0334915Y0153960D01*
X0334964Y0153986D01*
X0335015Y0154008D01*
X0335067Y0154026D01*
X0335121Y0154040D01*
X0335176Y0154051D01*
X0335231Y0154058D01*
X0335286Y0154061D01*
X0335342Y0154060D01*
X0335397Y0154055D01*
X0335452Y0154046D01*
X0335506Y0154034D01*
X0335559Y0154017D01*
X0335611Y0153997D01*
X0335661Y0153973D01*
X0335709Y0153946D01*
X0335756Y0153916D01*
X0335800Y0153882D01*
X0335842Y0153845D01*
X0335880Y0153805D01*
X0335917Y0153763D01*
X0335950Y0153718D01*
X0335979Y0153672D01*
X0336006Y0153623D01*
X0336028Y0153572D01*
X0336048Y0153520D01*
X0336063Y0153466D01*
X0336075Y0153412D01*
X0336083Y0153357D01*
X0336087Y0153302D01*
X0336087Y0153246D01*
X0336083Y0153191D01*
X0336075Y0153136D01*
X0336063Y0153082D01*
X0336048Y0153028D01*
X0336028Y0152976D01*
X0336006Y0152925D01*
X0335979Y0152876D01*
X0335950Y0152830D01*
X0335917Y0152785D01*
X0335880Y0152743D01*
X0335842Y0152703D01*
X0335800Y0152666D01*
X0335756Y0152632D01*
X0335709Y0152602D01*
X0335661Y0152575D01*
X0335611Y0152551D01*
X0335559Y0152531D01*
X0335506Y0152514D01*
X0335452Y0152502D01*
X0335397Y0152493D01*
X0335342Y0152488D01*
X0335286Y0152487D01*
X0335231Y0152490D01*
X0335176Y0152497D01*
X0335121Y0152508D01*
X0335067Y0152522D01*
X0335015Y0152540D01*
X0334964Y0152562D01*
X0334915Y0152588D01*
X0334867Y0152617D01*
X0334822Y0152649D01*
X0334779Y0152684D01*
X0334739Y0152722D01*
X0334701Y0152763D01*
X0334667Y0152807D01*
X0334635Y0152853D01*
X0334607Y0152901D01*
X0334583Y0152951D01*
X0334562Y0153002D01*
X0334544Y0153055D01*
X0334531Y0153109D01*
X0334521Y0153163D01*
X0334515Y0153218D01*
X0334513Y0153274D01*
X0334513Y0149274D02*
X0334515Y0149330D01*
X0334521Y0149385D01*
X0334531Y0149439D01*
X0334544Y0149493D01*
X0334562Y0149546D01*
X0334583Y0149597D01*
X0334607Y0149647D01*
X0334635Y0149695D01*
X0334667Y0149741D01*
X0334701Y0149785D01*
X0334739Y0149826D01*
X0334779Y0149864D01*
X0334822Y0149899D01*
X0334867Y0149931D01*
X0334915Y0149960D01*
X0334964Y0149986D01*
X0335015Y0150008D01*
X0335067Y0150026D01*
X0335121Y0150040D01*
X0335176Y0150051D01*
X0335231Y0150058D01*
X0335286Y0150061D01*
X0335342Y0150060D01*
X0335397Y0150055D01*
X0335452Y0150046D01*
X0335506Y0150034D01*
X0335559Y0150017D01*
X0335611Y0149997D01*
X0335661Y0149973D01*
X0335709Y0149946D01*
X0335756Y0149916D01*
X0335800Y0149882D01*
X0335842Y0149845D01*
X0335880Y0149805D01*
X0335917Y0149763D01*
X0335950Y0149718D01*
X0335979Y0149672D01*
X0336006Y0149623D01*
X0336028Y0149572D01*
X0336048Y0149520D01*
X0336063Y0149466D01*
X0336075Y0149412D01*
X0336083Y0149357D01*
X0336087Y0149302D01*
X0336087Y0149246D01*
X0336083Y0149191D01*
X0336075Y0149136D01*
X0336063Y0149082D01*
X0336048Y0149028D01*
X0336028Y0148976D01*
X0336006Y0148925D01*
X0335979Y0148876D01*
X0335950Y0148830D01*
X0335917Y0148785D01*
X0335880Y0148743D01*
X0335842Y0148703D01*
X0335800Y0148666D01*
X0335756Y0148632D01*
X0335709Y0148602D01*
X0335661Y0148575D01*
X0335611Y0148551D01*
X0335559Y0148531D01*
X0335506Y0148514D01*
X0335452Y0148502D01*
X0335397Y0148493D01*
X0335342Y0148488D01*
X0335286Y0148487D01*
X0335231Y0148490D01*
X0335176Y0148497D01*
X0335121Y0148508D01*
X0335067Y0148522D01*
X0335015Y0148540D01*
X0334964Y0148562D01*
X0334915Y0148588D01*
X0334867Y0148617D01*
X0334822Y0148649D01*
X0334779Y0148684D01*
X0334739Y0148722D01*
X0334701Y0148763D01*
X0334667Y0148807D01*
X0334635Y0148853D01*
X0334607Y0148901D01*
X0334583Y0148951D01*
X0334562Y0149002D01*
X0334544Y0149055D01*
X0334531Y0149109D01*
X0334521Y0149163D01*
X0334515Y0149218D01*
X0334513Y0149274D01*
X0334513Y0145274D02*
X0334515Y0145330D01*
X0334521Y0145385D01*
X0334531Y0145439D01*
X0334544Y0145493D01*
X0334562Y0145546D01*
X0334583Y0145597D01*
X0334607Y0145647D01*
X0334635Y0145695D01*
X0334667Y0145741D01*
X0334701Y0145785D01*
X0334739Y0145826D01*
X0334779Y0145864D01*
X0334822Y0145899D01*
X0334867Y0145931D01*
X0334915Y0145960D01*
X0334964Y0145986D01*
X0335015Y0146008D01*
X0335067Y0146026D01*
X0335121Y0146040D01*
X0335176Y0146051D01*
X0335231Y0146058D01*
X0335286Y0146061D01*
X0335342Y0146060D01*
X0335397Y0146055D01*
X0335452Y0146046D01*
X0335506Y0146034D01*
X0335559Y0146017D01*
X0335611Y0145997D01*
X0335661Y0145973D01*
X0335709Y0145946D01*
X0335756Y0145916D01*
X0335800Y0145882D01*
X0335842Y0145845D01*
X0335880Y0145805D01*
X0335917Y0145763D01*
X0335950Y0145718D01*
X0335979Y0145672D01*
X0336006Y0145623D01*
X0336028Y0145572D01*
X0336048Y0145520D01*
X0336063Y0145466D01*
X0336075Y0145412D01*
X0336083Y0145357D01*
X0336087Y0145302D01*
X0336087Y0145246D01*
X0336083Y0145191D01*
X0336075Y0145136D01*
X0336063Y0145082D01*
X0336048Y0145028D01*
X0336028Y0144976D01*
X0336006Y0144925D01*
X0335979Y0144876D01*
X0335950Y0144830D01*
X0335917Y0144785D01*
X0335880Y0144743D01*
X0335842Y0144703D01*
X0335800Y0144666D01*
X0335756Y0144632D01*
X0335709Y0144602D01*
X0335661Y0144575D01*
X0335611Y0144551D01*
X0335559Y0144531D01*
X0335506Y0144514D01*
X0335452Y0144502D01*
X0335397Y0144493D01*
X0335342Y0144488D01*
X0335286Y0144487D01*
X0335231Y0144490D01*
X0335176Y0144497D01*
X0335121Y0144508D01*
X0335067Y0144522D01*
X0335015Y0144540D01*
X0334964Y0144562D01*
X0334915Y0144588D01*
X0334867Y0144617D01*
X0334822Y0144649D01*
X0334779Y0144684D01*
X0334739Y0144722D01*
X0334701Y0144763D01*
X0334667Y0144807D01*
X0334635Y0144853D01*
X0334607Y0144901D01*
X0334583Y0144951D01*
X0334562Y0145002D01*
X0334544Y0145055D01*
X0334531Y0145109D01*
X0334521Y0145163D01*
X0334515Y0145218D01*
X0334513Y0145274D01*
X0334513Y0141274D02*
X0334515Y0141330D01*
X0334521Y0141385D01*
X0334531Y0141439D01*
X0334544Y0141493D01*
X0334562Y0141546D01*
X0334583Y0141597D01*
X0334607Y0141647D01*
X0334635Y0141695D01*
X0334667Y0141741D01*
X0334701Y0141785D01*
X0334739Y0141826D01*
X0334779Y0141864D01*
X0334822Y0141899D01*
X0334867Y0141931D01*
X0334915Y0141960D01*
X0334964Y0141986D01*
X0335015Y0142008D01*
X0335067Y0142026D01*
X0335121Y0142040D01*
X0335176Y0142051D01*
X0335231Y0142058D01*
X0335286Y0142061D01*
X0335342Y0142060D01*
X0335397Y0142055D01*
X0335452Y0142046D01*
X0335506Y0142034D01*
X0335559Y0142017D01*
X0335611Y0141997D01*
X0335661Y0141973D01*
X0335709Y0141946D01*
X0335756Y0141916D01*
X0335800Y0141882D01*
X0335842Y0141845D01*
X0335880Y0141805D01*
X0335917Y0141763D01*
X0335950Y0141718D01*
X0335979Y0141672D01*
X0336006Y0141623D01*
X0336028Y0141572D01*
X0336048Y0141520D01*
X0336063Y0141466D01*
X0336075Y0141412D01*
X0336083Y0141357D01*
X0336087Y0141302D01*
X0336087Y0141246D01*
X0336083Y0141191D01*
X0336075Y0141136D01*
X0336063Y0141082D01*
X0336048Y0141028D01*
X0336028Y0140976D01*
X0336006Y0140925D01*
X0335979Y0140876D01*
X0335950Y0140830D01*
X0335917Y0140785D01*
X0335880Y0140743D01*
X0335842Y0140703D01*
X0335800Y0140666D01*
X0335756Y0140632D01*
X0335709Y0140602D01*
X0335661Y0140575D01*
X0335611Y0140551D01*
X0335559Y0140531D01*
X0335506Y0140514D01*
X0335452Y0140502D01*
X0335397Y0140493D01*
X0335342Y0140488D01*
X0335286Y0140487D01*
X0335231Y0140490D01*
X0335176Y0140497D01*
X0335121Y0140508D01*
X0335067Y0140522D01*
X0335015Y0140540D01*
X0334964Y0140562D01*
X0334915Y0140588D01*
X0334867Y0140617D01*
X0334822Y0140649D01*
X0334779Y0140684D01*
X0334739Y0140722D01*
X0334701Y0140763D01*
X0334667Y0140807D01*
X0334635Y0140853D01*
X0334607Y0140901D01*
X0334583Y0140951D01*
X0334562Y0141002D01*
X0334544Y0141055D01*
X0334531Y0141109D01*
X0334521Y0141163D01*
X0334515Y0141218D01*
X0334513Y0141274D01*
X0334513Y0133274D02*
X0334515Y0133330D01*
X0334521Y0133385D01*
X0334531Y0133439D01*
X0334544Y0133493D01*
X0334562Y0133546D01*
X0334583Y0133597D01*
X0334607Y0133647D01*
X0334635Y0133695D01*
X0334667Y0133741D01*
X0334701Y0133785D01*
X0334739Y0133826D01*
X0334779Y0133864D01*
X0334822Y0133899D01*
X0334867Y0133931D01*
X0334915Y0133960D01*
X0334964Y0133986D01*
X0335015Y0134008D01*
X0335067Y0134026D01*
X0335121Y0134040D01*
X0335176Y0134051D01*
X0335231Y0134058D01*
X0335286Y0134061D01*
X0335342Y0134060D01*
X0335397Y0134055D01*
X0335452Y0134046D01*
X0335506Y0134034D01*
X0335559Y0134017D01*
X0335611Y0133997D01*
X0335661Y0133973D01*
X0335709Y0133946D01*
X0335756Y0133916D01*
X0335800Y0133882D01*
X0335842Y0133845D01*
X0335880Y0133805D01*
X0335917Y0133763D01*
X0335950Y0133718D01*
X0335979Y0133672D01*
X0336006Y0133623D01*
X0336028Y0133572D01*
X0336048Y0133520D01*
X0336063Y0133466D01*
X0336075Y0133412D01*
X0336083Y0133357D01*
X0336087Y0133302D01*
X0336087Y0133246D01*
X0336083Y0133191D01*
X0336075Y0133136D01*
X0336063Y0133082D01*
X0336048Y0133028D01*
X0336028Y0132976D01*
X0336006Y0132925D01*
X0335979Y0132876D01*
X0335950Y0132830D01*
X0335917Y0132785D01*
X0335880Y0132743D01*
X0335842Y0132703D01*
X0335800Y0132666D01*
X0335756Y0132632D01*
X0335709Y0132602D01*
X0335661Y0132575D01*
X0335611Y0132551D01*
X0335559Y0132531D01*
X0335506Y0132514D01*
X0335452Y0132502D01*
X0335397Y0132493D01*
X0335342Y0132488D01*
X0335286Y0132487D01*
X0335231Y0132490D01*
X0335176Y0132497D01*
X0335121Y0132508D01*
X0335067Y0132522D01*
X0335015Y0132540D01*
X0334964Y0132562D01*
X0334915Y0132588D01*
X0334867Y0132617D01*
X0334822Y0132649D01*
X0334779Y0132684D01*
X0334739Y0132722D01*
X0334701Y0132763D01*
X0334667Y0132807D01*
X0334635Y0132853D01*
X0334607Y0132901D01*
X0334583Y0132951D01*
X0334562Y0133002D01*
X0334544Y0133055D01*
X0334531Y0133109D01*
X0334521Y0133163D01*
X0334515Y0133218D01*
X0334513Y0133274D01*
X0334513Y0129274D02*
X0334515Y0129330D01*
X0334521Y0129385D01*
X0334531Y0129439D01*
X0334544Y0129493D01*
X0334562Y0129546D01*
X0334583Y0129597D01*
X0334607Y0129647D01*
X0334635Y0129695D01*
X0334667Y0129741D01*
X0334701Y0129785D01*
X0334739Y0129826D01*
X0334779Y0129864D01*
X0334822Y0129899D01*
X0334867Y0129931D01*
X0334915Y0129960D01*
X0334964Y0129986D01*
X0335015Y0130008D01*
X0335067Y0130026D01*
X0335121Y0130040D01*
X0335176Y0130051D01*
X0335231Y0130058D01*
X0335286Y0130061D01*
X0335342Y0130060D01*
X0335397Y0130055D01*
X0335452Y0130046D01*
X0335506Y0130034D01*
X0335559Y0130017D01*
X0335611Y0129997D01*
X0335661Y0129973D01*
X0335709Y0129946D01*
X0335756Y0129916D01*
X0335800Y0129882D01*
X0335842Y0129845D01*
X0335880Y0129805D01*
X0335917Y0129763D01*
X0335950Y0129718D01*
X0335979Y0129672D01*
X0336006Y0129623D01*
X0336028Y0129572D01*
X0336048Y0129520D01*
X0336063Y0129466D01*
X0336075Y0129412D01*
X0336083Y0129357D01*
X0336087Y0129302D01*
X0336087Y0129246D01*
X0336083Y0129191D01*
X0336075Y0129136D01*
X0336063Y0129082D01*
X0336048Y0129028D01*
X0336028Y0128976D01*
X0336006Y0128925D01*
X0335979Y0128876D01*
X0335950Y0128830D01*
X0335917Y0128785D01*
X0335880Y0128743D01*
X0335842Y0128703D01*
X0335800Y0128666D01*
X0335756Y0128632D01*
X0335709Y0128602D01*
X0335661Y0128575D01*
X0335611Y0128551D01*
X0335559Y0128531D01*
X0335506Y0128514D01*
X0335452Y0128502D01*
X0335397Y0128493D01*
X0335342Y0128488D01*
X0335286Y0128487D01*
X0335231Y0128490D01*
X0335176Y0128497D01*
X0335121Y0128508D01*
X0335067Y0128522D01*
X0335015Y0128540D01*
X0334964Y0128562D01*
X0334915Y0128588D01*
X0334867Y0128617D01*
X0334822Y0128649D01*
X0334779Y0128684D01*
X0334739Y0128722D01*
X0334701Y0128763D01*
X0334667Y0128807D01*
X0334635Y0128853D01*
X0334607Y0128901D01*
X0334583Y0128951D01*
X0334562Y0129002D01*
X0334544Y0129055D01*
X0334531Y0129109D01*
X0334521Y0129163D01*
X0334515Y0129218D01*
X0334513Y0129274D01*
X0334513Y0125274D02*
X0334515Y0125330D01*
X0334521Y0125385D01*
X0334531Y0125439D01*
X0334544Y0125493D01*
X0334562Y0125546D01*
X0334583Y0125597D01*
X0334607Y0125647D01*
X0334635Y0125695D01*
X0334667Y0125741D01*
X0334701Y0125785D01*
X0334739Y0125826D01*
X0334779Y0125864D01*
X0334822Y0125899D01*
X0334867Y0125931D01*
X0334915Y0125960D01*
X0334964Y0125986D01*
X0335015Y0126008D01*
X0335067Y0126026D01*
X0335121Y0126040D01*
X0335176Y0126051D01*
X0335231Y0126058D01*
X0335286Y0126061D01*
X0335342Y0126060D01*
X0335397Y0126055D01*
X0335452Y0126046D01*
X0335506Y0126034D01*
X0335559Y0126017D01*
X0335611Y0125997D01*
X0335661Y0125973D01*
X0335709Y0125946D01*
X0335756Y0125916D01*
X0335800Y0125882D01*
X0335842Y0125845D01*
X0335880Y0125805D01*
X0335917Y0125763D01*
X0335950Y0125718D01*
X0335979Y0125672D01*
X0336006Y0125623D01*
X0336028Y0125572D01*
X0336048Y0125520D01*
X0336063Y0125466D01*
X0336075Y0125412D01*
X0336083Y0125357D01*
X0336087Y0125302D01*
X0336087Y0125246D01*
X0336083Y0125191D01*
X0336075Y0125136D01*
X0336063Y0125082D01*
X0336048Y0125028D01*
X0336028Y0124976D01*
X0336006Y0124925D01*
X0335979Y0124876D01*
X0335950Y0124830D01*
X0335917Y0124785D01*
X0335880Y0124743D01*
X0335842Y0124703D01*
X0335800Y0124666D01*
X0335756Y0124632D01*
X0335709Y0124602D01*
X0335661Y0124575D01*
X0335611Y0124551D01*
X0335559Y0124531D01*
X0335506Y0124514D01*
X0335452Y0124502D01*
X0335397Y0124493D01*
X0335342Y0124488D01*
X0335286Y0124487D01*
X0335231Y0124490D01*
X0335176Y0124497D01*
X0335121Y0124508D01*
X0335067Y0124522D01*
X0335015Y0124540D01*
X0334964Y0124562D01*
X0334915Y0124588D01*
X0334867Y0124617D01*
X0334822Y0124649D01*
X0334779Y0124684D01*
X0334739Y0124722D01*
X0334701Y0124763D01*
X0334667Y0124807D01*
X0334635Y0124853D01*
X0334607Y0124901D01*
X0334583Y0124951D01*
X0334562Y0125002D01*
X0334544Y0125055D01*
X0334531Y0125109D01*
X0334521Y0125163D01*
X0334515Y0125218D01*
X0334513Y0125274D01*
X0334513Y0121274D02*
X0334515Y0121330D01*
X0334521Y0121385D01*
X0334531Y0121439D01*
X0334544Y0121493D01*
X0334562Y0121546D01*
X0334583Y0121597D01*
X0334607Y0121647D01*
X0334635Y0121695D01*
X0334667Y0121741D01*
X0334701Y0121785D01*
X0334739Y0121826D01*
X0334779Y0121864D01*
X0334822Y0121899D01*
X0334867Y0121931D01*
X0334915Y0121960D01*
X0334964Y0121986D01*
X0335015Y0122008D01*
X0335067Y0122026D01*
X0335121Y0122040D01*
X0335176Y0122051D01*
X0335231Y0122058D01*
X0335286Y0122061D01*
X0335342Y0122060D01*
X0335397Y0122055D01*
X0335452Y0122046D01*
X0335506Y0122034D01*
X0335559Y0122017D01*
X0335611Y0121997D01*
X0335661Y0121973D01*
X0335709Y0121946D01*
X0335756Y0121916D01*
X0335800Y0121882D01*
X0335842Y0121845D01*
X0335880Y0121805D01*
X0335917Y0121763D01*
X0335950Y0121718D01*
X0335979Y0121672D01*
X0336006Y0121623D01*
X0336028Y0121572D01*
X0336048Y0121520D01*
X0336063Y0121466D01*
X0336075Y0121412D01*
X0336083Y0121357D01*
X0336087Y0121302D01*
X0336087Y0121246D01*
X0336083Y0121191D01*
X0336075Y0121136D01*
X0336063Y0121082D01*
X0336048Y0121028D01*
X0336028Y0120976D01*
X0336006Y0120925D01*
X0335979Y0120876D01*
X0335950Y0120830D01*
X0335917Y0120785D01*
X0335880Y0120743D01*
X0335842Y0120703D01*
X0335800Y0120666D01*
X0335756Y0120632D01*
X0335709Y0120602D01*
X0335661Y0120575D01*
X0335611Y0120551D01*
X0335559Y0120531D01*
X0335506Y0120514D01*
X0335452Y0120502D01*
X0335397Y0120493D01*
X0335342Y0120488D01*
X0335286Y0120487D01*
X0335231Y0120490D01*
X0335176Y0120497D01*
X0335121Y0120508D01*
X0335067Y0120522D01*
X0335015Y0120540D01*
X0334964Y0120562D01*
X0334915Y0120588D01*
X0334867Y0120617D01*
X0334822Y0120649D01*
X0334779Y0120684D01*
X0334739Y0120722D01*
X0334701Y0120763D01*
X0334667Y0120807D01*
X0334635Y0120853D01*
X0334607Y0120901D01*
X0334583Y0120951D01*
X0334562Y0121002D01*
X0334544Y0121055D01*
X0334531Y0121109D01*
X0334521Y0121163D01*
X0334515Y0121218D01*
X0334513Y0121274D01*
X0334513Y0117274D02*
X0334515Y0117330D01*
X0334521Y0117385D01*
X0334531Y0117439D01*
X0334544Y0117493D01*
X0334562Y0117546D01*
X0334583Y0117597D01*
X0334607Y0117647D01*
X0334635Y0117695D01*
X0334667Y0117741D01*
X0334701Y0117785D01*
X0334739Y0117826D01*
X0334779Y0117864D01*
X0334822Y0117899D01*
X0334867Y0117931D01*
X0334915Y0117960D01*
X0334964Y0117986D01*
X0335015Y0118008D01*
X0335067Y0118026D01*
X0335121Y0118040D01*
X0335176Y0118051D01*
X0335231Y0118058D01*
X0335286Y0118061D01*
X0335342Y0118060D01*
X0335397Y0118055D01*
X0335452Y0118046D01*
X0335506Y0118034D01*
X0335559Y0118017D01*
X0335611Y0117997D01*
X0335661Y0117973D01*
X0335709Y0117946D01*
X0335756Y0117916D01*
X0335800Y0117882D01*
X0335842Y0117845D01*
X0335880Y0117805D01*
X0335917Y0117763D01*
X0335950Y0117718D01*
X0335979Y0117672D01*
X0336006Y0117623D01*
X0336028Y0117572D01*
X0336048Y0117520D01*
X0336063Y0117466D01*
X0336075Y0117412D01*
X0336083Y0117357D01*
X0336087Y0117302D01*
X0336087Y0117246D01*
X0336083Y0117191D01*
X0336075Y0117136D01*
X0336063Y0117082D01*
X0336048Y0117028D01*
X0336028Y0116976D01*
X0336006Y0116925D01*
X0335979Y0116876D01*
X0335950Y0116830D01*
X0335917Y0116785D01*
X0335880Y0116743D01*
X0335842Y0116703D01*
X0335800Y0116666D01*
X0335756Y0116632D01*
X0335709Y0116602D01*
X0335661Y0116575D01*
X0335611Y0116551D01*
X0335559Y0116531D01*
X0335506Y0116514D01*
X0335452Y0116502D01*
X0335397Y0116493D01*
X0335342Y0116488D01*
X0335286Y0116487D01*
X0335231Y0116490D01*
X0335176Y0116497D01*
X0335121Y0116508D01*
X0335067Y0116522D01*
X0335015Y0116540D01*
X0334964Y0116562D01*
X0334915Y0116588D01*
X0334867Y0116617D01*
X0334822Y0116649D01*
X0334779Y0116684D01*
X0334739Y0116722D01*
X0334701Y0116763D01*
X0334667Y0116807D01*
X0334635Y0116853D01*
X0334607Y0116901D01*
X0334583Y0116951D01*
X0334562Y0117002D01*
X0334544Y0117055D01*
X0334531Y0117109D01*
X0334521Y0117163D01*
X0334515Y0117218D01*
X0334513Y0117274D01*
X0316207Y0175144D02*
X0313845Y0175144D01*
X0313779Y0175152D01*
X0313715Y0175164D01*
X0313651Y0175180D01*
X0313588Y0175199D01*
X0313527Y0175223D01*
X0313467Y0175250D01*
X0313409Y0175280D01*
X0313353Y0175314D01*
X0313299Y0175351D01*
X0313247Y0175392D01*
X0313198Y0175436D01*
X0313151Y0175482D01*
X0313108Y0175531D01*
X0313067Y0175583D01*
X0313030Y0175637D01*
X0312996Y0175693D01*
X0312966Y0175751D01*
X0312939Y0175811D01*
X0312915Y0175872D01*
X0312896Y0175935D01*
X0312880Y0175999D01*
X0312868Y0176063D01*
X0312860Y0176129D01*
X0312856Y0176194D01*
X0312856Y0176260D01*
X0312860Y0176325D01*
X0312860Y0176326D02*
X0312856Y0176391D01*
X0312856Y0176457D01*
X0312860Y0176522D01*
X0312868Y0176588D01*
X0312880Y0176652D01*
X0312896Y0176716D01*
X0312915Y0176779D01*
X0312939Y0176840D01*
X0312966Y0176900D01*
X0312996Y0176958D01*
X0313030Y0177014D01*
X0313067Y0177068D01*
X0313108Y0177120D01*
X0313151Y0177169D01*
X0313198Y0177215D01*
X0313247Y0177259D01*
X0313299Y0177300D01*
X0313353Y0177337D01*
X0313409Y0177371D01*
X0313467Y0177401D01*
X0313527Y0177428D01*
X0313588Y0177452D01*
X0313651Y0177471D01*
X0313715Y0177487D01*
X0313779Y0177499D01*
X0313845Y0177507D01*
X0313845Y0177506D02*
X0316207Y0177506D01*
X0316207Y0177507D02*
X0316270Y0177499D01*
X0316332Y0177488D01*
X0316394Y0177473D01*
X0316454Y0177455D01*
X0316514Y0177433D01*
X0316572Y0177408D01*
X0316628Y0177379D01*
X0316683Y0177347D01*
X0316735Y0177312D01*
X0316786Y0177274D01*
X0316834Y0177234D01*
X0316880Y0177190D01*
X0316923Y0177144D01*
X0316964Y0177095D01*
X0317002Y0177044D01*
X0317036Y0176992D01*
X0317068Y0176937D01*
X0317096Y0176880D01*
X0317121Y0176822D01*
X0317142Y0176762D01*
X0317160Y0176702D01*
X0317174Y0176640D01*
X0317185Y0176578D01*
X0317192Y0176515D01*
X0317196Y0176452D01*
X0317195Y0176389D01*
X0317192Y0176326D01*
X0317192Y0176325D02*
X0317195Y0176262D01*
X0317196Y0176199D01*
X0317192Y0176136D01*
X0317185Y0176073D01*
X0317174Y0176011D01*
X0317160Y0175949D01*
X0317142Y0175889D01*
X0317121Y0175829D01*
X0317096Y0175771D01*
X0317068Y0175714D01*
X0317036Y0175659D01*
X0317002Y0175607D01*
X0316964Y0175556D01*
X0316923Y0175507D01*
X0316880Y0175461D01*
X0316834Y0175417D01*
X0316786Y0175377D01*
X0316735Y0175339D01*
X0316683Y0175304D01*
X0316628Y0175272D01*
X0316572Y0175243D01*
X0316514Y0175218D01*
X0316454Y0175196D01*
X0316394Y0175178D01*
X0316332Y0175163D01*
X0316270Y0175152D01*
X0316207Y0175144D01*
X0306168Y0182821D02*
X0306170Y0182895D01*
X0306176Y0182969D01*
X0306186Y0183042D01*
X0306200Y0183115D01*
X0306217Y0183187D01*
X0306239Y0183257D01*
X0306264Y0183327D01*
X0306293Y0183395D01*
X0306326Y0183461D01*
X0306362Y0183526D01*
X0306402Y0183588D01*
X0306444Y0183649D01*
X0306490Y0183707D01*
X0306539Y0183762D01*
X0306591Y0183815D01*
X0306646Y0183865D01*
X0306703Y0183911D01*
X0306763Y0183955D01*
X0306825Y0183995D01*
X0306889Y0184032D01*
X0306955Y0184066D01*
X0307023Y0184096D01*
X0307092Y0184122D01*
X0307163Y0184145D01*
X0307234Y0184163D01*
X0307307Y0184178D01*
X0307380Y0184189D01*
X0307454Y0184196D01*
X0307528Y0184199D01*
X0307601Y0184198D01*
X0307675Y0184193D01*
X0307749Y0184184D01*
X0307822Y0184171D01*
X0307894Y0184154D01*
X0307965Y0184134D01*
X0308035Y0184109D01*
X0308103Y0184081D01*
X0308170Y0184050D01*
X0308235Y0184014D01*
X0308298Y0183976D01*
X0308359Y0183934D01*
X0308418Y0183888D01*
X0308474Y0183840D01*
X0308527Y0183789D01*
X0308577Y0183735D01*
X0308625Y0183678D01*
X0308669Y0183619D01*
X0308711Y0183557D01*
X0308749Y0183494D01*
X0308783Y0183428D01*
X0308814Y0183361D01*
X0308841Y0183292D01*
X0308864Y0183222D01*
X0308884Y0183151D01*
X0308900Y0183078D01*
X0308912Y0183005D01*
X0308920Y0182932D01*
X0308924Y0182858D01*
X0308924Y0182784D01*
X0308920Y0182710D01*
X0308912Y0182637D01*
X0308900Y0182564D01*
X0308884Y0182491D01*
X0308864Y0182420D01*
X0308841Y0182350D01*
X0308814Y0182281D01*
X0308783Y0182214D01*
X0308749Y0182148D01*
X0308711Y0182085D01*
X0308669Y0182023D01*
X0308625Y0181964D01*
X0308577Y0181907D01*
X0308527Y0181853D01*
X0308474Y0181802D01*
X0308418Y0181754D01*
X0308359Y0181708D01*
X0308298Y0181666D01*
X0308235Y0181628D01*
X0308170Y0181592D01*
X0308103Y0181561D01*
X0308035Y0181533D01*
X0307965Y0181508D01*
X0307894Y0181488D01*
X0307822Y0181471D01*
X0307749Y0181458D01*
X0307675Y0181449D01*
X0307601Y0181444D01*
X0307528Y0181443D01*
X0307454Y0181446D01*
X0307380Y0181453D01*
X0307307Y0181464D01*
X0307234Y0181479D01*
X0307163Y0181497D01*
X0307092Y0181520D01*
X0307023Y0181546D01*
X0306955Y0181576D01*
X0306889Y0181610D01*
X0306825Y0181647D01*
X0306763Y0181687D01*
X0306703Y0181731D01*
X0306646Y0181777D01*
X0306591Y0181827D01*
X0306539Y0181880D01*
X0306490Y0181935D01*
X0306444Y0181993D01*
X0306402Y0182054D01*
X0306362Y0182116D01*
X0306326Y0182181D01*
X0306293Y0182247D01*
X0306264Y0182315D01*
X0306239Y0182385D01*
X0306217Y0182455D01*
X0306200Y0182527D01*
X0306186Y0182600D01*
X0306176Y0182673D01*
X0306170Y0182747D01*
X0306168Y0182821D01*
X0306168Y0198176D02*
X0306170Y0198250D01*
X0306176Y0198324D01*
X0306186Y0198397D01*
X0306200Y0198470D01*
X0306217Y0198542D01*
X0306239Y0198612D01*
X0306264Y0198682D01*
X0306293Y0198750D01*
X0306326Y0198816D01*
X0306362Y0198881D01*
X0306402Y0198943D01*
X0306444Y0199004D01*
X0306490Y0199062D01*
X0306539Y0199117D01*
X0306591Y0199170D01*
X0306646Y0199220D01*
X0306703Y0199266D01*
X0306763Y0199310D01*
X0306825Y0199350D01*
X0306889Y0199387D01*
X0306955Y0199421D01*
X0307023Y0199451D01*
X0307092Y0199477D01*
X0307163Y0199500D01*
X0307234Y0199518D01*
X0307307Y0199533D01*
X0307380Y0199544D01*
X0307454Y0199551D01*
X0307528Y0199554D01*
X0307601Y0199553D01*
X0307675Y0199548D01*
X0307749Y0199539D01*
X0307822Y0199526D01*
X0307894Y0199509D01*
X0307965Y0199489D01*
X0308035Y0199464D01*
X0308103Y0199436D01*
X0308170Y0199405D01*
X0308235Y0199369D01*
X0308298Y0199331D01*
X0308359Y0199289D01*
X0308418Y0199243D01*
X0308474Y0199195D01*
X0308527Y0199144D01*
X0308577Y0199090D01*
X0308625Y0199033D01*
X0308669Y0198974D01*
X0308711Y0198912D01*
X0308749Y0198849D01*
X0308783Y0198783D01*
X0308814Y0198716D01*
X0308841Y0198647D01*
X0308864Y0198577D01*
X0308884Y0198506D01*
X0308900Y0198433D01*
X0308912Y0198360D01*
X0308920Y0198287D01*
X0308924Y0198213D01*
X0308924Y0198139D01*
X0308920Y0198065D01*
X0308912Y0197992D01*
X0308900Y0197919D01*
X0308884Y0197846D01*
X0308864Y0197775D01*
X0308841Y0197705D01*
X0308814Y0197636D01*
X0308783Y0197569D01*
X0308749Y0197503D01*
X0308711Y0197440D01*
X0308669Y0197378D01*
X0308625Y0197319D01*
X0308577Y0197262D01*
X0308527Y0197208D01*
X0308474Y0197157D01*
X0308418Y0197109D01*
X0308359Y0197063D01*
X0308298Y0197021D01*
X0308235Y0196983D01*
X0308170Y0196947D01*
X0308103Y0196916D01*
X0308035Y0196888D01*
X0307965Y0196863D01*
X0307894Y0196843D01*
X0307822Y0196826D01*
X0307749Y0196813D01*
X0307675Y0196804D01*
X0307601Y0196799D01*
X0307528Y0196798D01*
X0307454Y0196801D01*
X0307380Y0196808D01*
X0307307Y0196819D01*
X0307234Y0196834D01*
X0307163Y0196852D01*
X0307092Y0196875D01*
X0307023Y0196901D01*
X0306955Y0196931D01*
X0306889Y0196965D01*
X0306825Y0197002D01*
X0306763Y0197042D01*
X0306703Y0197086D01*
X0306646Y0197132D01*
X0306591Y0197182D01*
X0306539Y0197235D01*
X0306490Y0197290D01*
X0306444Y0197348D01*
X0306402Y0197409D01*
X0306362Y0197471D01*
X0306326Y0197536D01*
X0306293Y0197602D01*
X0306264Y0197670D01*
X0306239Y0197740D01*
X0306217Y0197810D01*
X0306200Y0197882D01*
X0306186Y0197955D01*
X0306176Y0198028D01*
X0306170Y0198102D01*
X0306168Y0198176D01*
X0313845Y0203491D02*
X0316207Y0203491D01*
X0316207Y0203490D02*
X0316270Y0203498D01*
X0316332Y0203509D01*
X0316394Y0203524D01*
X0316454Y0203542D01*
X0316514Y0203564D01*
X0316572Y0203589D01*
X0316628Y0203618D01*
X0316683Y0203650D01*
X0316735Y0203685D01*
X0316786Y0203723D01*
X0316834Y0203763D01*
X0316880Y0203807D01*
X0316923Y0203853D01*
X0316964Y0203902D01*
X0317002Y0203953D01*
X0317036Y0204005D01*
X0317068Y0204060D01*
X0317096Y0204117D01*
X0317121Y0204175D01*
X0317142Y0204235D01*
X0317160Y0204295D01*
X0317174Y0204357D01*
X0317185Y0204419D01*
X0317192Y0204482D01*
X0317196Y0204545D01*
X0317195Y0204608D01*
X0317192Y0204671D01*
X0317192Y0204672D02*
X0317195Y0204735D01*
X0317196Y0204798D01*
X0317192Y0204861D01*
X0317185Y0204924D01*
X0317174Y0204986D01*
X0317160Y0205048D01*
X0317142Y0205108D01*
X0317121Y0205168D01*
X0317096Y0205226D01*
X0317068Y0205283D01*
X0317036Y0205338D01*
X0317002Y0205390D01*
X0316964Y0205441D01*
X0316923Y0205490D01*
X0316880Y0205536D01*
X0316834Y0205580D01*
X0316786Y0205620D01*
X0316735Y0205658D01*
X0316683Y0205693D01*
X0316628Y0205725D01*
X0316572Y0205754D01*
X0316514Y0205779D01*
X0316454Y0205801D01*
X0316394Y0205819D01*
X0316332Y0205834D01*
X0316270Y0205845D01*
X0316207Y0205853D01*
X0313845Y0205853D01*
X0313779Y0205845D01*
X0313715Y0205833D01*
X0313651Y0205817D01*
X0313588Y0205798D01*
X0313527Y0205774D01*
X0313467Y0205747D01*
X0313409Y0205717D01*
X0313353Y0205683D01*
X0313299Y0205646D01*
X0313247Y0205605D01*
X0313198Y0205561D01*
X0313151Y0205515D01*
X0313108Y0205466D01*
X0313067Y0205414D01*
X0313030Y0205360D01*
X0312996Y0205304D01*
X0312966Y0205246D01*
X0312939Y0205186D01*
X0312915Y0205125D01*
X0312896Y0205062D01*
X0312880Y0204998D01*
X0312868Y0204934D01*
X0312860Y0204868D01*
X0312856Y0204803D01*
X0312856Y0204737D01*
X0312860Y0204672D01*
X0312860Y0204671D02*
X0312856Y0204606D01*
X0312856Y0204540D01*
X0312860Y0204475D01*
X0312868Y0204409D01*
X0312880Y0204345D01*
X0312896Y0204281D01*
X0312915Y0204218D01*
X0312939Y0204157D01*
X0312966Y0204097D01*
X0312996Y0204039D01*
X0313030Y0203983D01*
X0313067Y0203929D01*
X0313108Y0203877D01*
X0313151Y0203828D01*
X0313198Y0203782D01*
X0313247Y0203738D01*
X0313299Y0203697D01*
X0313353Y0203660D01*
X0313409Y0203626D01*
X0313467Y0203596D01*
X0313527Y0203569D01*
X0313588Y0203545D01*
X0313651Y0203526D01*
X0313715Y0203510D01*
X0313779Y0203498D01*
X0313845Y0203490D01*
X0324513Y0239274D02*
X0324515Y0239330D01*
X0324521Y0239385D01*
X0324531Y0239439D01*
X0324544Y0239493D01*
X0324562Y0239546D01*
X0324583Y0239597D01*
X0324607Y0239647D01*
X0324635Y0239695D01*
X0324667Y0239741D01*
X0324701Y0239785D01*
X0324739Y0239826D01*
X0324779Y0239864D01*
X0324822Y0239899D01*
X0324867Y0239931D01*
X0324915Y0239960D01*
X0324964Y0239986D01*
X0325015Y0240008D01*
X0325067Y0240026D01*
X0325121Y0240040D01*
X0325176Y0240051D01*
X0325231Y0240058D01*
X0325286Y0240061D01*
X0325342Y0240060D01*
X0325397Y0240055D01*
X0325452Y0240046D01*
X0325506Y0240034D01*
X0325559Y0240017D01*
X0325611Y0239997D01*
X0325661Y0239973D01*
X0325709Y0239946D01*
X0325756Y0239916D01*
X0325800Y0239882D01*
X0325842Y0239845D01*
X0325880Y0239805D01*
X0325917Y0239763D01*
X0325950Y0239718D01*
X0325979Y0239672D01*
X0326006Y0239623D01*
X0326028Y0239572D01*
X0326048Y0239520D01*
X0326063Y0239466D01*
X0326075Y0239412D01*
X0326083Y0239357D01*
X0326087Y0239302D01*
X0326087Y0239246D01*
X0326083Y0239191D01*
X0326075Y0239136D01*
X0326063Y0239082D01*
X0326048Y0239028D01*
X0326028Y0238976D01*
X0326006Y0238925D01*
X0325979Y0238876D01*
X0325950Y0238830D01*
X0325917Y0238785D01*
X0325880Y0238743D01*
X0325842Y0238703D01*
X0325800Y0238666D01*
X0325756Y0238632D01*
X0325709Y0238602D01*
X0325661Y0238575D01*
X0325611Y0238551D01*
X0325559Y0238531D01*
X0325506Y0238514D01*
X0325452Y0238502D01*
X0325397Y0238493D01*
X0325342Y0238488D01*
X0325286Y0238487D01*
X0325231Y0238490D01*
X0325176Y0238497D01*
X0325121Y0238508D01*
X0325067Y0238522D01*
X0325015Y0238540D01*
X0324964Y0238562D01*
X0324915Y0238588D01*
X0324867Y0238617D01*
X0324822Y0238649D01*
X0324779Y0238684D01*
X0324739Y0238722D01*
X0324701Y0238763D01*
X0324667Y0238807D01*
X0324635Y0238853D01*
X0324607Y0238901D01*
X0324583Y0238951D01*
X0324562Y0239002D01*
X0324544Y0239055D01*
X0324531Y0239109D01*
X0324521Y0239163D01*
X0324515Y0239218D01*
X0324513Y0239274D01*
X0324513Y0243274D02*
X0324515Y0243330D01*
X0324521Y0243385D01*
X0324531Y0243439D01*
X0324544Y0243493D01*
X0324562Y0243546D01*
X0324583Y0243597D01*
X0324607Y0243647D01*
X0324635Y0243695D01*
X0324667Y0243741D01*
X0324701Y0243785D01*
X0324739Y0243826D01*
X0324779Y0243864D01*
X0324822Y0243899D01*
X0324867Y0243931D01*
X0324915Y0243960D01*
X0324964Y0243986D01*
X0325015Y0244008D01*
X0325067Y0244026D01*
X0325121Y0244040D01*
X0325176Y0244051D01*
X0325231Y0244058D01*
X0325286Y0244061D01*
X0325342Y0244060D01*
X0325397Y0244055D01*
X0325452Y0244046D01*
X0325506Y0244034D01*
X0325559Y0244017D01*
X0325611Y0243997D01*
X0325661Y0243973D01*
X0325709Y0243946D01*
X0325756Y0243916D01*
X0325800Y0243882D01*
X0325842Y0243845D01*
X0325880Y0243805D01*
X0325917Y0243763D01*
X0325950Y0243718D01*
X0325979Y0243672D01*
X0326006Y0243623D01*
X0326028Y0243572D01*
X0326048Y0243520D01*
X0326063Y0243466D01*
X0326075Y0243412D01*
X0326083Y0243357D01*
X0326087Y0243302D01*
X0326087Y0243246D01*
X0326083Y0243191D01*
X0326075Y0243136D01*
X0326063Y0243082D01*
X0326048Y0243028D01*
X0326028Y0242976D01*
X0326006Y0242925D01*
X0325979Y0242876D01*
X0325950Y0242830D01*
X0325917Y0242785D01*
X0325880Y0242743D01*
X0325842Y0242703D01*
X0325800Y0242666D01*
X0325756Y0242632D01*
X0325709Y0242602D01*
X0325661Y0242575D01*
X0325611Y0242551D01*
X0325559Y0242531D01*
X0325506Y0242514D01*
X0325452Y0242502D01*
X0325397Y0242493D01*
X0325342Y0242488D01*
X0325286Y0242487D01*
X0325231Y0242490D01*
X0325176Y0242497D01*
X0325121Y0242508D01*
X0325067Y0242522D01*
X0325015Y0242540D01*
X0324964Y0242562D01*
X0324915Y0242588D01*
X0324867Y0242617D01*
X0324822Y0242649D01*
X0324779Y0242684D01*
X0324739Y0242722D01*
X0324701Y0242763D01*
X0324667Y0242807D01*
X0324635Y0242853D01*
X0324607Y0242901D01*
X0324583Y0242951D01*
X0324562Y0243002D01*
X0324544Y0243055D01*
X0324531Y0243109D01*
X0324521Y0243163D01*
X0324515Y0243218D01*
X0324513Y0243274D01*
X0324513Y0247274D02*
X0324515Y0247330D01*
X0324521Y0247385D01*
X0324531Y0247439D01*
X0324544Y0247493D01*
X0324562Y0247546D01*
X0324583Y0247597D01*
X0324607Y0247647D01*
X0324635Y0247695D01*
X0324667Y0247741D01*
X0324701Y0247785D01*
X0324739Y0247826D01*
X0324779Y0247864D01*
X0324822Y0247899D01*
X0324867Y0247931D01*
X0324915Y0247960D01*
X0324964Y0247986D01*
X0325015Y0248008D01*
X0325067Y0248026D01*
X0325121Y0248040D01*
X0325176Y0248051D01*
X0325231Y0248058D01*
X0325286Y0248061D01*
X0325342Y0248060D01*
X0325397Y0248055D01*
X0325452Y0248046D01*
X0325506Y0248034D01*
X0325559Y0248017D01*
X0325611Y0247997D01*
X0325661Y0247973D01*
X0325709Y0247946D01*
X0325756Y0247916D01*
X0325800Y0247882D01*
X0325842Y0247845D01*
X0325880Y0247805D01*
X0325917Y0247763D01*
X0325950Y0247718D01*
X0325979Y0247672D01*
X0326006Y0247623D01*
X0326028Y0247572D01*
X0326048Y0247520D01*
X0326063Y0247466D01*
X0326075Y0247412D01*
X0326083Y0247357D01*
X0326087Y0247302D01*
X0326087Y0247246D01*
X0326083Y0247191D01*
X0326075Y0247136D01*
X0326063Y0247082D01*
X0326048Y0247028D01*
X0326028Y0246976D01*
X0326006Y0246925D01*
X0325979Y0246876D01*
X0325950Y0246830D01*
X0325917Y0246785D01*
X0325880Y0246743D01*
X0325842Y0246703D01*
X0325800Y0246666D01*
X0325756Y0246632D01*
X0325709Y0246602D01*
X0325661Y0246575D01*
X0325611Y0246551D01*
X0325559Y0246531D01*
X0325506Y0246514D01*
X0325452Y0246502D01*
X0325397Y0246493D01*
X0325342Y0246488D01*
X0325286Y0246487D01*
X0325231Y0246490D01*
X0325176Y0246497D01*
X0325121Y0246508D01*
X0325067Y0246522D01*
X0325015Y0246540D01*
X0324964Y0246562D01*
X0324915Y0246588D01*
X0324867Y0246617D01*
X0324822Y0246649D01*
X0324779Y0246684D01*
X0324739Y0246722D01*
X0324701Y0246763D01*
X0324667Y0246807D01*
X0324635Y0246853D01*
X0324607Y0246901D01*
X0324583Y0246951D01*
X0324562Y0247002D01*
X0324544Y0247055D01*
X0324531Y0247109D01*
X0324521Y0247163D01*
X0324515Y0247218D01*
X0324513Y0247274D01*
X0324513Y0251274D02*
X0324515Y0251330D01*
X0324521Y0251385D01*
X0324531Y0251439D01*
X0324544Y0251493D01*
X0324562Y0251546D01*
X0324583Y0251597D01*
X0324607Y0251647D01*
X0324635Y0251695D01*
X0324667Y0251741D01*
X0324701Y0251785D01*
X0324739Y0251826D01*
X0324779Y0251864D01*
X0324822Y0251899D01*
X0324867Y0251931D01*
X0324915Y0251960D01*
X0324964Y0251986D01*
X0325015Y0252008D01*
X0325067Y0252026D01*
X0325121Y0252040D01*
X0325176Y0252051D01*
X0325231Y0252058D01*
X0325286Y0252061D01*
X0325342Y0252060D01*
X0325397Y0252055D01*
X0325452Y0252046D01*
X0325506Y0252034D01*
X0325559Y0252017D01*
X0325611Y0251997D01*
X0325661Y0251973D01*
X0325709Y0251946D01*
X0325756Y0251916D01*
X0325800Y0251882D01*
X0325842Y0251845D01*
X0325880Y0251805D01*
X0325917Y0251763D01*
X0325950Y0251718D01*
X0325979Y0251672D01*
X0326006Y0251623D01*
X0326028Y0251572D01*
X0326048Y0251520D01*
X0326063Y0251466D01*
X0326075Y0251412D01*
X0326083Y0251357D01*
X0326087Y0251302D01*
X0326087Y0251246D01*
X0326083Y0251191D01*
X0326075Y0251136D01*
X0326063Y0251082D01*
X0326048Y0251028D01*
X0326028Y0250976D01*
X0326006Y0250925D01*
X0325979Y0250876D01*
X0325950Y0250830D01*
X0325917Y0250785D01*
X0325880Y0250743D01*
X0325842Y0250703D01*
X0325800Y0250666D01*
X0325756Y0250632D01*
X0325709Y0250602D01*
X0325661Y0250575D01*
X0325611Y0250551D01*
X0325559Y0250531D01*
X0325506Y0250514D01*
X0325452Y0250502D01*
X0325397Y0250493D01*
X0325342Y0250488D01*
X0325286Y0250487D01*
X0325231Y0250490D01*
X0325176Y0250497D01*
X0325121Y0250508D01*
X0325067Y0250522D01*
X0325015Y0250540D01*
X0324964Y0250562D01*
X0324915Y0250588D01*
X0324867Y0250617D01*
X0324822Y0250649D01*
X0324779Y0250684D01*
X0324739Y0250722D01*
X0324701Y0250763D01*
X0324667Y0250807D01*
X0324635Y0250853D01*
X0324607Y0250901D01*
X0324583Y0250951D01*
X0324562Y0251002D01*
X0324544Y0251055D01*
X0324531Y0251109D01*
X0324521Y0251163D01*
X0324515Y0251218D01*
X0324513Y0251274D01*
X0324513Y0255274D02*
X0324515Y0255330D01*
X0324521Y0255385D01*
X0324531Y0255439D01*
X0324544Y0255493D01*
X0324562Y0255546D01*
X0324583Y0255597D01*
X0324607Y0255647D01*
X0324635Y0255695D01*
X0324667Y0255741D01*
X0324701Y0255785D01*
X0324739Y0255826D01*
X0324779Y0255864D01*
X0324822Y0255899D01*
X0324867Y0255931D01*
X0324915Y0255960D01*
X0324964Y0255986D01*
X0325015Y0256008D01*
X0325067Y0256026D01*
X0325121Y0256040D01*
X0325176Y0256051D01*
X0325231Y0256058D01*
X0325286Y0256061D01*
X0325342Y0256060D01*
X0325397Y0256055D01*
X0325452Y0256046D01*
X0325506Y0256034D01*
X0325559Y0256017D01*
X0325611Y0255997D01*
X0325661Y0255973D01*
X0325709Y0255946D01*
X0325756Y0255916D01*
X0325800Y0255882D01*
X0325842Y0255845D01*
X0325880Y0255805D01*
X0325917Y0255763D01*
X0325950Y0255718D01*
X0325979Y0255672D01*
X0326006Y0255623D01*
X0326028Y0255572D01*
X0326048Y0255520D01*
X0326063Y0255466D01*
X0326075Y0255412D01*
X0326083Y0255357D01*
X0326087Y0255302D01*
X0326087Y0255246D01*
X0326083Y0255191D01*
X0326075Y0255136D01*
X0326063Y0255082D01*
X0326048Y0255028D01*
X0326028Y0254976D01*
X0326006Y0254925D01*
X0325979Y0254876D01*
X0325950Y0254830D01*
X0325917Y0254785D01*
X0325880Y0254743D01*
X0325842Y0254703D01*
X0325800Y0254666D01*
X0325756Y0254632D01*
X0325709Y0254602D01*
X0325661Y0254575D01*
X0325611Y0254551D01*
X0325559Y0254531D01*
X0325506Y0254514D01*
X0325452Y0254502D01*
X0325397Y0254493D01*
X0325342Y0254488D01*
X0325286Y0254487D01*
X0325231Y0254490D01*
X0325176Y0254497D01*
X0325121Y0254508D01*
X0325067Y0254522D01*
X0325015Y0254540D01*
X0324964Y0254562D01*
X0324915Y0254588D01*
X0324867Y0254617D01*
X0324822Y0254649D01*
X0324779Y0254684D01*
X0324739Y0254722D01*
X0324701Y0254763D01*
X0324667Y0254807D01*
X0324635Y0254853D01*
X0324607Y0254901D01*
X0324583Y0254951D01*
X0324562Y0255002D01*
X0324544Y0255055D01*
X0324531Y0255109D01*
X0324521Y0255163D01*
X0324515Y0255218D01*
X0324513Y0255274D01*
X0334513Y0255274D02*
X0334515Y0255330D01*
X0334521Y0255385D01*
X0334531Y0255439D01*
X0334544Y0255493D01*
X0334562Y0255546D01*
X0334583Y0255597D01*
X0334607Y0255647D01*
X0334635Y0255695D01*
X0334667Y0255741D01*
X0334701Y0255785D01*
X0334739Y0255826D01*
X0334779Y0255864D01*
X0334822Y0255899D01*
X0334867Y0255931D01*
X0334915Y0255960D01*
X0334964Y0255986D01*
X0335015Y0256008D01*
X0335067Y0256026D01*
X0335121Y0256040D01*
X0335176Y0256051D01*
X0335231Y0256058D01*
X0335286Y0256061D01*
X0335342Y0256060D01*
X0335397Y0256055D01*
X0335452Y0256046D01*
X0335506Y0256034D01*
X0335559Y0256017D01*
X0335611Y0255997D01*
X0335661Y0255973D01*
X0335709Y0255946D01*
X0335756Y0255916D01*
X0335800Y0255882D01*
X0335842Y0255845D01*
X0335880Y0255805D01*
X0335917Y0255763D01*
X0335950Y0255718D01*
X0335979Y0255672D01*
X0336006Y0255623D01*
X0336028Y0255572D01*
X0336048Y0255520D01*
X0336063Y0255466D01*
X0336075Y0255412D01*
X0336083Y0255357D01*
X0336087Y0255302D01*
X0336087Y0255246D01*
X0336083Y0255191D01*
X0336075Y0255136D01*
X0336063Y0255082D01*
X0336048Y0255028D01*
X0336028Y0254976D01*
X0336006Y0254925D01*
X0335979Y0254876D01*
X0335950Y0254830D01*
X0335917Y0254785D01*
X0335880Y0254743D01*
X0335842Y0254703D01*
X0335800Y0254666D01*
X0335756Y0254632D01*
X0335709Y0254602D01*
X0335661Y0254575D01*
X0335611Y0254551D01*
X0335559Y0254531D01*
X0335506Y0254514D01*
X0335452Y0254502D01*
X0335397Y0254493D01*
X0335342Y0254488D01*
X0335286Y0254487D01*
X0335231Y0254490D01*
X0335176Y0254497D01*
X0335121Y0254508D01*
X0335067Y0254522D01*
X0335015Y0254540D01*
X0334964Y0254562D01*
X0334915Y0254588D01*
X0334867Y0254617D01*
X0334822Y0254649D01*
X0334779Y0254684D01*
X0334739Y0254722D01*
X0334701Y0254763D01*
X0334667Y0254807D01*
X0334635Y0254853D01*
X0334607Y0254901D01*
X0334583Y0254951D01*
X0334562Y0255002D01*
X0334544Y0255055D01*
X0334531Y0255109D01*
X0334521Y0255163D01*
X0334515Y0255218D01*
X0334513Y0255274D01*
X0334513Y0251274D02*
X0334515Y0251330D01*
X0334521Y0251385D01*
X0334531Y0251439D01*
X0334544Y0251493D01*
X0334562Y0251546D01*
X0334583Y0251597D01*
X0334607Y0251647D01*
X0334635Y0251695D01*
X0334667Y0251741D01*
X0334701Y0251785D01*
X0334739Y0251826D01*
X0334779Y0251864D01*
X0334822Y0251899D01*
X0334867Y0251931D01*
X0334915Y0251960D01*
X0334964Y0251986D01*
X0335015Y0252008D01*
X0335067Y0252026D01*
X0335121Y0252040D01*
X0335176Y0252051D01*
X0335231Y0252058D01*
X0335286Y0252061D01*
X0335342Y0252060D01*
X0335397Y0252055D01*
X0335452Y0252046D01*
X0335506Y0252034D01*
X0335559Y0252017D01*
X0335611Y0251997D01*
X0335661Y0251973D01*
X0335709Y0251946D01*
X0335756Y0251916D01*
X0335800Y0251882D01*
X0335842Y0251845D01*
X0335880Y0251805D01*
X0335917Y0251763D01*
X0335950Y0251718D01*
X0335979Y0251672D01*
X0336006Y0251623D01*
X0336028Y0251572D01*
X0336048Y0251520D01*
X0336063Y0251466D01*
X0336075Y0251412D01*
X0336083Y0251357D01*
X0336087Y0251302D01*
X0336087Y0251246D01*
X0336083Y0251191D01*
X0336075Y0251136D01*
X0336063Y0251082D01*
X0336048Y0251028D01*
X0336028Y0250976D01*
X0336006Y0250925D01*
X0335979Y0250876D01*
X0335950Y0250830D01*
X0335917Y0250785D01*
X0335880Y0250743D01*
X0335842Y0250703D01*
X0335800Y0250666D01*
X0335756Y0250632D01*
X0335709Y0250602D01*
X0335661Y0250575D01*
X0335611Y0250551D01*
X0335559Y0250531D01*
X0335506Y0250514D01*
X0335452Y0250502D01*
X0335397Y0250493D01*
X0335342Y0250488D01*
X0335286Y0250487D01*
X0335231Y0250490D01*
X0335176Y0250497D01*
X0335121Y0250508D01*
X0335067Y0250522D01*
X0335015Y0250540D01*
X0334964Y0250562D01*
X0334915Y0250588D01*
X0334867Y0250617D01*
X0334822Y0250649D01*
X0334779Y0250684D01*
X0334739Y0250722D01*
X0334701Y0250763D01*
X0334667Y0250807D01*
X0334635Y0250853D01*
X0334607Y0250901D01*
X0334583Y0250951D01*
X0334562Y0251002D01*
X0334544Y0251055D01*
X0334531Y0251109D01*
X0334521Y0251163D01*
X0334515Y0251218D01*
X0334513Y0251274D01*
X0334513Y0247274D02*
X0334515Y0247330D01*
X0334521Y0247385D01*
X0334531Y0247439D01*
X0334544Y0247493D01*
X0334562Y0247546D01*
X0334583Y0247597D01*
X0334607Y0247647D01*
X0334635Y0247695D01*
X0334667Y0247741D01*
X0334701Y0247785D01*
X0334739Y0247826D01*
X0334779Y0247864D01*
X0334822Y0247899D01*
X0334867Y0247931D01*
X0334915Y0247960D01*
X0334964Y0247986D01*
X0335015Y0248008D01*
X0335067Y0248026D01*
X0335121Y0248040D01*
X0335176Y0248051D01*
X0335231Y0248058D01*
X0335286Y0248061D01*
X0335342Y0248060D01*
X0335397Y0248055D01*
X0335452Y0248046D01*
X0335506Y0248034D01*
X0335559Y0248017D01*
X0335611Y0247997D01*
X0335661Y0247973D01*
X0335709Y0247946D01*
X0335756Y0247916D01*
X0335800Y0247882D01*
X0335842Y0247845D01*
X0335880Y0247805D01*
X0335917Y0247763D01*
X0335950Y0247718D01*
X0335979Y0247672D01*
X0336006Y0247623D01*
X0336028Y0247572D01*
X0336048Y0247520D01*
X0336063Y0247466D01*
X0336075Y0247412D01*
X0336083Y0247357D01*
X0336087Y0247302D01*
X0336087Y0247246D01*
X0336083Y0247191D01*
X0336075Y0247136D01*
X0336063Y0247082D01*
X0336048Y0247028D01*
X0336028Y0246976D01*
X0336006Y0246925D01*
X0335979Y0246876D01*
X0335950Y0246830D01*
X0335917Y0246785D01*
X0335880Y0246743D01*
X0335842Y0246703D01*
X0335800Y0246666D01*
X0335756Y0246632D01*
X0335709Y0246602D01*
X0335661Y0246575D01*
X0335611Y0246551D01*
X0335559Y0246531D01*
X0335506Y0246514D01*
X0335452Y0246502D01*
X0335397Y0246493D01*
X0335342Y0246488D01*
X0335286Y0246487D01*
X0335231Y0246490D01*
X0335176Y0246497D01*
X0335121Y0246508D01*
X0335067Y0246522D01*
X0335015Y0246540D01*
X0334964Y0246562D01*
X0334915Y0246588D01*
X0334867Y0246617D01*
X0334822Y0246649D01*
X0334779Y0246684D01*
X0334739Y0246722D01*
X0334701Y0246763D01*
X0334667Y0246807D01*
X0334635Y0246853D01*
X0334607Y0246901D01*
X0334583Y0246951D01*
X0334562Y0247002D01*
X0334544Y0247055D01*
X0334531Y0247109D01*
X0334521Y0247163D01*
X0334515Y0247218D01*
X0334513Y0247274D01*
X0334513Y0243274D02*
X0334515Y0243330D01*
X0334521Y0243385D01*
X0334531Y0243439D01*
X0334544Y0243493D01*
X0334562Y0243546D01*
X0334583Y0243597D01*
X0334607Y0243647D01*
X0334635Y0243695D01*
X0334667Y0243741D01*
X0334701Y0243785D01*
X0334739Y0243826D01*
X0334779Y0243864D01*
X0334822Y0243899D01*
X0334867Y0243931D01*
X0334915Y0243960D01*
X0334964Y0243986D01*
X0335015Y0244008D01*
X0335067Y0244026D01*
X0335121Y0244040D01*
X0335176Y0244051D01*
X0335231Y0244058D01*
X0335286Y0244061D01*
X0335342Y0244060D01*
X0335397Y0244055D01*
X0335452Y0244046D01*
X0335506Y0244034D01*
X0335559Y0244017D01*
X0335611Y0243997D01*
X0335661Y0243973D01*
X0335709Y0243946D01*
X0335756Y0243916D01*
X0335800Y0243882D01*
X0335842Y0243845D01*
X0335880Y0243805D01*
X0335917Y0243763D01*
X0335950Y0243718D01*
X0335979Y0243672D01*
X0336006Y0243623D01*
X0336028Y0243572D01*
X0336048Y0243520D01*
X0336063Y0243466D01*
X0336075Y0243412D01*
X0336083Y0243357D01*
X0336087Y0243302D01*
X0336087Y0243246D01*
X0336083Y0243191D01*
X0336075Y0243136D01*
X0336063Y0243082D01*
X0336048Y0243028D01*
X0336028Y0242976D01*
X0336006Y0242925D01*
X0335979Y0242876D01*
X0335950Y0242830D01*
X0335917Y0242785D01*
X0335880Y0242743D01*
X0335842Y0242703D01*
X0335800Y0242666D01*
X0335756Y0242632D01*
X0335709Y0242602D01*
X0335661Y0242575D01*
X0335611Y0242551D01*
X0335559Y0242531D01*
X0335506Y0242514D01*
X0335452Y0242502D01*
X0335397Y0242493D01*
X0335342Y0242488D01*
X0335286Y0242487D01*
X0335231Y0242490D01*
X0335176Y0242497D01*
X0335121Y0242508D01*
X0335067Y0242522D01*
X0335015Y0242540D01*
X0334964Y0242562D01*
X0334915Y0242588D01*
X0334867Y0242617D01*
X0334822Y0242649D01*
X0334779Y0242684D01*
X0334739Y0242722D01*
X0334701Y0242763D01*
X0334667Y0242807D01*
X0334635Y0242853D01*
X0334607Y0242901D01*
X0334583Y0242951D01*
X0334562Y0243002D01*
X0334544Y0243055D01*
X0334531Y0243109D01*
X0334521Y0243163D01*
X0334515Y0243218D01*
X0334513Y0243274D01*
X0334513Y0239274D02*
X0334515Y0239330D01*
X0334521Y0239385D01*
X0334531Y0239439D01*
X0334544Y0239493D01*
X0334562Y0239546D01*
X0334583Y0239597D01*
X0334607Y0239647D01*
X0334635Y0239695D01*
X0334667Y0239741D01*
X0334701Y0239785D01*
X0334739Y0239826D01*
X0334779Y0239864D01*
X0334822Y0239899D01*
X0334867Y0239931D01*
X0334915Y0239960D01*
X0334964Y0239986D01*
X0335015Y0240008D01*
X0335067Y0240026D01*
X0335121Y0240040D01*
X0335176Y0240051D01*
X0335231Y0240058D01*
X0335286Y0240061D01*
X0335342Y0240060D01*
X0335397Y0240055D01*
X0335452Y0240046D01*
X0335506Y0240034D01*
X0335559Y0240017D01*
X0335611Y0239997D01*
X0335661Y0239973D01*
X0335709Y0239946D01*
X0335756Y0239916D01*
X0335800Y0239882D01*
X0335842Y0239845D01*
X0335880Y0239805D01*
X0335917Y0239763D01*
X0335950Y0239718D01*
X0335979Y0239672D01*
X0336006Y0239623D01*
X0336028Y0239572D01*
X0336048Y0239520D01*
X0336063Y0239466D01*
X0336075Y0239412D01*
X0336083Y0239357D01*
X0336087Y0239302D01*
X0336087Y0239246D01*
X0336083Y0239191D01*
X0336075Y0239136D01*
X0336063Y0239082D01*
X0336048Y0239028D01*
X0336028Y0238976D01*
X0336006Y0238925D01*
X0335979Y0238876D01*
X0335950Y0238830D01*
X0335917Y0238785D01*
X0335880Y0238743D01*
X0335842Y0238703D01*
X0335800Y0238666D01*
X0335756Y0238632D01*
X0335709Y0238602D01*
X0335661Y0238575D01*
X0335611Y0238551D01*
X0335559Y0238531D01*
X0335506Y0238514D01*
X0335452Y0238502D01*
X0335397Y0238493D01*
X0335342Y0238488D01*
X0335286Y0238487D01*
X0335231Y0238490D01*
X0335176Y0238497D01*
X0335121Y0238508D01*
X0335067Y0238522D01*
X0335015Y0238540D01*
X0334964Y0238562D01*
X0334915Y0238588D01*
X0334867Y0238617D01*
X0334822Y0238649D01*
X0334779Y0238684D01*
X0334739Y0238722D01*
X0334701Y0238763D01*
X0334667Y0238807D01*
X0334635Y0238853D01*
X0334607Y0238901D01*
X0334583Y0238951D01*
X0334562Y0239002D01*
X0334544Y0239055D01*
X0334531Y0239109D01*
X0334521Y0239163D01*
X0334515Y0239218D01*
X0334513Y0239274D01*
X0334513Y0035274D02*
X0334515Y0035330D01*
X0334521Y0035385D01*
X0334531Y0035439D01*
X0334544Y0035493D01*
X0334562Y0035546D01*
X0334583Y0035597D01*
X0334607Y0035647D01*
X0334635Y0035695D01*
X0334667Y0035741D01*
X0334701Y0035785D01*
X0334739Y0035826D01*
X0334779Y0035864D01*
X0334822Y0035899D01*
X0334867Y0035931D01*
X0334915Y0035960D01*
X0334964Y0035986D01*
X0335015Y0036008D01*
X0335067Y0036026D01*
X0335121Y0036040D01*
X0335176Y0036051D01*
X0335231Y0036058D01*
X0335286Y0036061D01*
X0335342Y0036060D01*
X0335397Y0036055D01*
X0335452Y0036046D01*
X0335506Y0036034D01*
X0335559Y0036017D01*
X0335611Y0035997D01*
X0335661Y0035973D01*
X0335709Y0035946D01*
X0335756Y0035916D01*
X0335800Y0035882D01*
X0335842Y0035845D01*
X0335880Y0035805D01*
X0335917Y0035763D01*
X0335950Y0035718D01*
X0335979Y0035672D01*
X0336006Y0035623D01*
X0336028Y0035572D01*
X0336048Y0035520D01*
X0336063Y0035466D01*
X0336075Y0035412D01*
X0336083Y0035357D01*
X0336087Y0035302D01*
X0336087Y0035246D01*
X0336083Y0035191D01*
X0336075Y0035136D01*
X0336063Y0035082D01*
X0336048Y0035028D01*
X0336028Y0034976D01*
X0336006Y0034925D01*
X0335979Y0034876D01*
X0335950Y0034830D01*
X0335917Y0034785D01*
X0335880Y0034743D01*
X0335842Y0034703D01*
X0335800Y0034666D01*
X0335756Y0034632D01*
X0335709Y0034602D01*
X0335661Y0034575D01*
X0335611Y0034551D01*
X0335559Y0034531D01*
X0335506Y0034514D01*
X0335452Y0034502D01*
X0335397Y0034493D01*
X0335342Y0034488D01*
X0335286Y0034487D01*
X0335231Y0034490D01*
X0335176Y0034497D01*
X0335121Y0034508D01*
X0335067Y0034522D01*
X0335015Y0034540D01*
X0334964Y0034562D01*
X0334915Y0034588D01*
X0334867Y0034617D01*
X0334822Y0034649D01*
X0334779Y0034684D01*
X0334739Y0034722D01*
X0334701Y0034763D01*
X0334667Y0034807D01*
X0334635Y0034853D01*
X0334607Y0034901D01*
X0334583Y0034951D01*
X0334562Y0035002D01*
X0334544Y0035055D01*
X0334531Y0035109D01*
X0334521Y0035163D01*
X0334515Y0035218D01*
X0334513Y0035274D01*
X0334513Y0031274D02*
X0334515Y0031330D01*
X0334521Y0031385D01*
X0334531Y0031439D01*
X0334544Y0031493D01*
X0334562Y0031546D01*
X0334583Y0031597D01*
X0334607Y0031647D01*
X0334635Y0031695D01*
X0334667Y0031741D01*
X0334701Y0031785D01*
X0334739Y0031826D01*
X0334779Y0031864D01*
X0334822Y0031899D01*
X0334867Y0031931D01*
X0334915Y0031960D01*
X0334964Y0031986D01*
X0335015Y0032008D01*
X0335067Y0032026D01*
X0335121Y0032040D01*
X0335176Y0032051D01*
X0335231Y0032058D01*
X0335286Y0032061D01*
X0335342Y0032060D01*
X0335397Y0032055D01*
X0335452Y0032046D01*
X0335506Y0032034D01*
X0335559Y0032017D01*
X0335611Y0031997D01*
X0335661Y0031973D01*
X0335709Y0031946D01*
X0335756Y0031916D01*
X0335800Y0031882D01*
X0335842Y0031845D01*
X0335880Y0031805D01*
X0335917Y0031763D01*
X0335950Y0031718D01*
X0335979Y0031672D01*
X0336006Y0031623D01*
X0336028Y0031572D01*
X0336048Y0031520D01*
X0336063Y0031466D01*
X0336075Y0031412D01*
X0336083Y0031357D01*
X0336087Y0031302D01*
X0336087Y0031246D01*
X0336083Y0031191D01*
X0336075Y0031136D01*
X0336063Y0031082D01*
X0336048Y0031028D01*
X0336028Y0030976D01*
X0336006Y0030925D01*
X0335979Y0030876D01*
X0335950Y0030830D01*
X0335917Y0030785D01*
X0335880Y0030743D01*
X0335842Y0030703D01*
X0335800Y0030666D01*
X0335756Y0030632D01*
X0335709Y0030602D01*
X0335661Y0030575D01*
X0335611Y0030551D01*
X0335559Y0030531D01*
X0335506Y0030514D01*
X0335452Y0030502D01*
X0335397Y0030493D01*
X0335342Y0030488D01*
X0335286Y0030487D01*
X0335231Y0030490D01*
X0335176Y0030497D01*
X0335121Y0030508D01*
X0335067Y0030522D01*
X0335015Y0030540D01*
X0334964Y0030562D01*
X0334915Y0030588D01*
X0334867Y0030617D01*
X0334822Y0030649D01*
X0334779Y0030684D01*
X0334739Y0030722D01*
X0334701Y0030763D01*
X0334667Y0030807D01*
X0334635Y0030853D01*
X0334607Y0030901D01*
X0334583Y0030951D01*
X0334562Y0031002D01*
X0334544Y0031055D01*
X0334531Y0031109D01*
X0334521Y0031163D01*
X0334515Y0031218D01*
X0334513Y0031274D01*
X0334513Y0027274D02*
X0334515Y0027330D01*
X0334521Y0027385D01*
X0334531Y0027439D01*
X0334544Y0027493D01*
X0334562Y0027546D01*
X0334583Y0027597D01*
X0334607Y0027647D01*
X0334635Y0027695D01*
X0334667Y0027741D01*
X0334701Y0027785D01*
X0334739Y0027826D01*
X0334779Y0027864D01*
X0334822Y0027899D01*
X0334867Y0027931D01*
X0334915Y0027960D01*
X0334964Y0027986D01*
X0335015Y0028008D01*
X0335067Y0028026D01*
X0335121Y0028040D01*
X0335176Y0028051D01*
X0335231Y0028058D01*
X0335286Y0028061D01*
X0335342Y0028060D01*
X0335397Y0028055D01*
X0335452Y0028046D01*
X0335506Y0028034D01*
X0335559Y0028017D01*
X0335611Y0027997D01*
X0335661Y0027973D01*
X0335709Y0027946D01*
X0335756Y0027916D01*
X0335800Y0027882D01*
X0335842Y0027845D01*
X0335880Y0027805D01*
X0335917Y0027763D01*
X0335950Y0027718D01*
X0335979Y0027672D01*
X0336006Y0027623D01*
X0336028Y0027572D01*
X0336048Y0027520D01*
X0336063Y0027466D01*
X0336075Y0027412D01*
X0336083Y0027357D01*
X0336087Y0027302D01*
X0336087Y0027246D01*
X0336083Y0027191D01*
X0336075Y0027136D01*
X0336063Y0027082D01*
X0336048Y0027028D01*
X0336028Y0026976D01*
X0336006Y0026925D01*
X0335979Y0026876D01*
X0335950Y0026830D01*
X0335917Y0026785D01*
X0335880Y0026743D01*
X0335842Y0026703D01*
X0335800Y0026666D01*
X0335756Y0026632D01*
X0335709Y0026602D01*
X0335661Y0026575D01*
X0335611Y0026551D01*
X0335559Y0026531D01*
X0335506Y0026514D01*
X0335452Y0026502D01*
X0335397Y0026493D01*
X0335342Y0026488D01*
X0335286Y0026487D01*
X0335231Y0026490D01*
X0335176Y0026497D01*
X0335121Y0026508D01*
X0335067Y0026522D01*
X0335015Y0026540D01*
X0334964Y0026562D01*
X0334915Y0026588D01*
X0334867Y0026617D01*
X0334822Y0026649D01*
X0334779Y0026684D01*
X0334739Y0026722D01*
X0334701Y0026763D01*
X0334667Y0026807D01*
X0334635Y0026853D01*
X0334607Y0026901D01*
X0334583Y0026951D01*
X0334562Y0027002D01*
X0334544Y0027055D01*
X0334531Y0027109D01*
X0334521Y0027163D01*
X0334515Y0027218D01*
X0334513Y0027274D01*
X0334513Y0023274D02*
X0334515Y0023330D01*
X0334521Y0023385D01*
X0334531Y0023439D01*
X0334544Y0023493D01*
X0334562Y0023546D01*
X0334583Y0023597D01*
X0334607Y0023647D01*
X0334635Y0023695D01*
X0334667Y0023741D01*
X0334701Y0023785D01*
X0334739Y0023826D01*
X0334779Y0023864D01*
X0334822Y0023899D01*
X0334867Y0023931D01*
X0334915Y0023960D01*
X0334964Y0023986D01*
X0335015Y0024008D01*
X0335067Y0024026D01*
X0335121Y0024040D01*
X0335176Y0024051D01*
X0335231Y0024058D01*
X0335286Y0024061D01*
X0335342Y0024060D01*
X0335397Y0024055D01*
X0335452Y0024046D01*
X0335506Y0024034D01*
X0335559Y0024017D01*
X0335611Y0023997D01*
X0335661Y0023973D01*
X0335709Y0023946D01*
X0335756Y0023916D01*
X0335800Y0023882D01*
X0335842Y0023845D01*
X0335880Y0023805D01*
X0335917Y0023763D01*
X0335950Y0023718D01*
X0335979Y0023672D01*
X0336006Y0023623D01*
X0336028Y0023572D01*
X0336048Y0023520D01*
X0336063Y0023466D01*
X0336075Y0023412D01*
X0336083Y0023357D01*
X0336087Y0023302D01*
X0336087Y0023246D01*
X0336083Y0023191D01*
X0336075Y0023136D01*
X0336063Y0023082D01*
X0336048Y0023028D01*
X0336028Y0022976D01*
X0336006Y0022925D01*
X0335979Y0022876D01*
X0335950Y0022830D01*
X0335917Y0022785D01*
X0335880Y0022743D01*
X0335842Y0022703D01*
X0335800Y0022666D01*
X0335756Y0022632D01*
X0335709Y0022602D01*
X0335661Y0022575D01*
X0335611Y0022551D01*
X0335559Y0022531D01*
X0335506Y0022514D01*
X0335452Y0022502D01*
X0335397Y0022493D01*
X0335342Y0022488D01*
X0335286Y0022487D01*
X0335231Y0022490D01*
X0335176Y0022497D01*
X0335121Y0022508D01*
X0335067Y0022522D01*
X0335015Y0022540D01*
X0334964Y0022562D01*
X0334915Y0022588D01*
X0334867Y0022617D01*
X0334822Y0022649D01*
X0334779Y0022684D01*
X0334739Y0022722D01*
X0334701Y0022763D01*
X0334667Y0022807D01*
X0334635Y0022853D01*
X0334607Y0022901D01*
X0334583Y0022951D01*
X0334562Y0023002D01*
X0334544Y0023055D01*
X0334531Y0023109D01*
X0334521Y0023163D01*
X0334515Y0023218D01*
X0334513Y0023274D01*
X0334513Y0019274D02*
X0334515Y0019330D01*
X0334521Y0019385D01*
X0334531Y0019439D01*
X0334544Y0019493D01*
X0334562Y0019546D01*
X0334583Y0019597D01*
X0334607Y0019647D01*
X0334635Y0019695D01*
X0334667Y0019741D01*
X0334701Y0019785D01*
X0334739Y0019826D01*
X0334779Y0019864D01*
X0334822Y0019899D01*
X0334867Y0019931D01*
X0334915Y0019960D01*
X0334964Y0019986D01*
X0335015Y0020008D01*
X0335067Y0020026D01*
X0335121Y0020040D01*
X0335176Y0020051D01*
X0335231Y0020058D01*
X0335286Y0020061D01*
X0335342Y0020060D01*
X0335397Y0020055D01*
X0335452Y0020046D01*
X0335506Y0020034D01*
X0335559Y0020017D01*
X0335611Y0019997D01*
X0335661Y0019973D01*
X0335709Y0019946D01*
X0335756Y0019916D01*
X0335800Y0019882D01*
X0335842Y0019845D01*
X0335880Y0019805D01*
X0335917Y0019763D01*
X0335950Y0019718D01*
X0335979Y0019672D01*
X0336006Y0019623D01*
X0336028Y0019572D01*
X0336048Y0019520D01*
X0336063Y0019466D01*
X0336075Y0019412D01*
X0336083Y0019357D01*
X0336087Y0019302D01*
X0336087Y0019246D01*
X0336083Y0019191D01*
X0336075Y0019136D01*
X0336063Y0019082D01*
X0336048Y0019028D01*
X0336028Y0018976D01*
X0336006Y0018925D01*
X0335979Y0018876D01*
X0335950Y0018830D01*
X0335917Y0018785D01*
X0335880Y0018743D01*
X0335842Y0018703D01*
X0335800Y0018666D01*
X0335756Y0018632D01*
X0335709Y0018602D01*
X0335661Y0018575D01*
X0335611Y0018551D01*
X0335559Y0018531D01*
X0335506Y0018514D01*
X0335452Y0018502D01*
X0335397Y0018493D01*
X0335342Y0018488D01*
X0335286Y0018487D01*
X0335231Y0018490D01*
X0335176Y0018497D01*
X0335121Y0018508D01*
X0335067Y0018522D01*
X0335015Y0018540D01*
X0334964Y0018562D01*
X0334915Y0018588D01*
X0334867Y0018617D01*
X0334822Y0018649D01*
X0334779Y0018684D01*
X0334739Y0018722D01*
X0334701Y0018763D01*
X0334667Y0018807D01*
X0334635Y0018853D01*
X0334607Y0018901D01*
X0334583Y0018951D01*
X0334562Y0019002D01*
X0334544Y0019055D01*
X0334531Y0019109D01*
X0334521Y0019163D01*
X0334515Y0019218D01*
X0334513Y0019274D01*
X0326513Y0019274D02*
X0326515Y0019330D01*
X0326521Y0019385D01*
X0326531Y0019439D01*
X0326544Y0019493D01*
X0326562Y0019546D01*
X0326583Y0019597D01*
X0326607Y0019647D01*
X0326635Y0019695D01*
X0326667Y0019741D01*
X0326701Y0019785D01*
X0326739Y0019826D01*
X0326779Y0019864D01*
X0326822Y0019899D01*
X0326867Y0019931D01*
X0326915Y0019960D01*
X0326964Y0019986D01*
X0327015Y0020008D01*
X0327067Y0020026D01*
X0327121Y0020040D01*
X0327176Y0020051D01*
X0327231Y0020058D01*
X0327286Y0020061D01*
X0327342Y0020060D01*
X0327397Y0020055D01*
X0327452Y0020046D01*
X0327506Y0020034D01*
X0327559Y0020017D01*
X0327611Y0019997D01*
X0327661Y0019973D01*
X0327709Y0019946D01*
X0327756Y0019916D01*
X0327800Y0019882D01*
X0327842Y0019845D01*
X0327880Y0019805D01*
X0327917Y0019763D01*
X0327950Y0019718D01*
X0327979Y0019672D01*
X0328006Y0019623D01*
X0328028Y0019572D01*
X0328048Y0019520D01*
X0328063Y0019466D01*
X0328075Y0019412D01*
X0328083Y0019357D01*
X0328087Y0019302D01*
X0328087Y0019246D01*
X0328083Y0019191D01*
X0328075Y0019136D01*
X0328063Y0019082D01*
X0328048Y0019028D01*
X0328028Y0018976D01*
X0328006Y0018925D01*
X0327979Y0018876D01*
X0327950Y0018830D01*
X0327917Y0018785D01*
X0327880Y0018743D01*
X0327842Y0018703D01*
X0327800Y0018666D01*
X0327756Y0018632D01*
X0327709Y0018602D01*
X0327661Y0018575D01*
X0327611Y0018551D01*
X0327559Y0018531D01*
X0327506Y0018514D01*
X0327452Y0018502D01*
X0327397Y0018493D01*
X0327342Y0018488D01*
X0327286Y0018487D01*
X0327231Y0018490D01*
X0327176Y0018497D01*
X0327121Y0018508D01*
X0327067Y0018522D01*
X0327015Y0018540D01*
X0326964Y0018562D01*
X0326915Y0018588D01*
X0326867Y0018617D01*
X0326822Y0018649D01*
X0326779Y0018684D01*
X0326739Y0018722D01*
X0326701Y0018763D01*
X0326667Y0018807D01*
X0326635Y0018853D01*
X0326607Y0018901D01*
X0326583Y0018951D01*
X0326562Y0019002D01*
X0326544Y0019055D01*
X0326531Y0019109D01*
X0326521Y0019163D01*
X0326515Y0019218D01*
X0326513Y0019274D01*
X0326513Y0023274D02*
X0326515Y0023330D01*
X0326521Y0023385D01*
X0326531Y0023439D01*
X0326544Y0023493D01*
X0326562Y0023546D01*
X0326583Y0023597D01*
X0326607Y0023647D01*
X0326635Y0023695D01*
X0326667Y0023741D01*
X0326701Y0023785D01*
X0326739Y0023826D01*
X0326779Y0023864D01*
X0326822Y0023899D01*
X0326867Y0023931D01*
X0326915Y0023960D01*
X0326964Y0023986D01*
X0327015Y0024008D01*
X0327067Y0024026D01*
X0327121Y0024040D01*
X0327176Y0024051D01*
X0327231Y0024058D01*
X0327286Y0024061D01*
X0327342Y0024060D01*
X0327397Y0024055D01*
X0327452Y0024046D01*
X0327506Y0024034D01*
X0327559Y0024017D01*
X0327611Y0023997D01*
X0327661Y0023973D01*
X0327709Y0023946D01*
X0327756Y0023916D01*
X0327800Y0023882D01*
X0327842Y0023845D01*
X0327880Y0023805D01*
X0327917Y0023763D01*
X0327950Y0023718D01*
X0327979Y0023672D01*
X0328006Y0023623D01*
X0328028Y0023572D01*
X0328048Y0023520D01*
X0328063Y0023466D01*
X0328075Y0023412D01*
X0328083Y0023357D01*
X0328087Y0023302D01*
X0328087Y0023246D01*
X0328083Y0023191D01*
X0328075Y0023136D01*
X0328063Y0023082D01*
X0328048Y0023028D01*
X0328028Y0022976D01*
X0328006Y0022925D01*
X0327979Y0022876D01*
X0327950Y0022830D01*
X0327917Y0022785D01*
X0327880Y0022743D01*
X0327842Y0022703D01*
X0327800Y0022666D01*
X0327756Y0022632D01*
X0327709Y0022602D01*
X0327661Y0022575D01*
X0327611Y0022551D01*
X0327559Y0022531D01*
X0327506Y0022514D01*
X0327452Y0022502D01*
X0327397Y0022493D01*
X0327342Y0022488D01*
X0327286Y0022487D01*
X0327231Y0022490D01*
X0327176Y0022497D01*
X0327121Y0022508D01*
X0327067Y0022522D01*
X0327015Y0022540D01*
X0326964Y0022562D01*
X0326915Y0022588D01*
X0326867Y0022617D01*
X0326822Y0022649D01*
X0326779Y0022684D01*
X0326739Y0022722D01*
X0326701Y0022763D01*
X0326667Y0022807D01*
X0326635Y0022853D01*
X0326607Y0022901D01*
X0326583Y0022951D01*
X0326562Y0023002D01*
X0326544Y0023055D01*
X0326531Y0023109D01*
X0326521Y0023163D01*
X0326515Y0023218D01*
X0326513Y0023274D01*
X0326513Y0027274D02*
X0326515Y0027330D01*
X0326521Y0027385D01*
X0326531Y0027439D01*
X0326544Y0027493D01*
X0326562Y0027546D01*
X0326583Y0027597D01*
X0326607Y0027647D01*
X0326635Y0027695D01*
X0326667Y0027741D01*
X0326701Y0027785D01*
X0326739Y0027826D01*
X0326779Y0027864D01*
X0326822Y0027899D01*
X0326867Y0027931D01*
X0326915Y0027960D01*
X0326964Y0027986D01*
X0327015Y0028008D01*
X0327067Y0028026D01*
X0327121Y0028040D01*
X0327176Y0028051D01*
X0327231Y0028058D01*
X0327286Y0028061D01*
X0327342Y0028060D01*
X0327397Y0028055D01*
X0327452Y0028046D01*
X0327506Y0028034D01*
X0327559Y0028017D01*
X0327611Y0027997D01*
X0327661Y0027973D01*
X0327709Y0027946D01*
X0327756Y0027916D01*
X0327800Y0027882D01*
X0327842Y0027845D01*
X0327880Y0027805D01*
X0327917Y0027763D01*
X0327950Y0027718D01*
X0327979Y0027672D01*
X0328006Y0027623D01*
X0328028Y0027572D01*
X0328048Y0027520D01*
X0328063Y0027466D01*
X0328075Y0027412D01*
X0328083Y0027357D01*
X0328087Y0027302D01*
X0328087Y0027246D01*
X0328083Y0027191D01*
X0328075Y0027136D01*
X0328063Y0027082D01*
X0328048Y0027028D01*
X0328028Y0026976D01*
X0328006Y0026925D01*
X0327979Y0026876D01*
X0327950Y0026830D01*
X0327917Y0026785D01*
X0327880Y0026743D01*
X0327842Y0026703D01*
X0327800Y0026666D01*
X0327756Y0026632D01*
X0327709Y0026602D01*
X0327661Y0026575D01*
X0327611Y0026551D01*
X0327559Y0026531D01*
X0327506Y0026514D01*
X0327452Y0026502D01*
X0327397Y0026493D01*
X0327342Y0026488D01*
X0327286Y0026487D01*
X0327231Y0026490D01*
X0327176Y0026497D01*
X0327121Y0026508D01*
X0327067Y0026522D01*
X0327015Y0026540D01*
X0326964Y0026562D01*
X0326915Y0026588D01*
X0326867Y0026617D01*
X0326822Y0026649D01*
X0326779Y0026684D01*
X0326739Y0026722D01*
X0326701Y0026763D01*
X0326667Y0026807D01*
X0326635Y0026853D01*
X0326607Y0026901D01*
X0326583Y0026951D01*
X0326562Y0027002D01*
X0326544Y0027055D01*
X0326531Y0027109D01*
X0326521Y0027163D01*
X0326515Y0027218D01*
X0326513Y0027274D01*
X0326513Y0031274D02*
X0326515Y0031330D01*
X0326521Y0031385D01*
X0326531Y0031439D01*
X0326544Y0031493D01*
X0326562Y0031546D01*
X0326583Y0031597D01*
X0326607Y0031647D01*
X0326635Y0031695D01*
X0326667Y0031741D01*
X0326701Y0031785D01*
X0326739Y0031826D01*
X0326779Y0031864D01*
X0326822Y0031899D01*
X0326867Y0031931D01*
X0326915Y0031960D01*
X0326964Y0031986D01*
X0327015Y0032008D01*
X0327067Y0032026D01*
X0327121Y0032040D01*
X0327176Y0032051D01*
X0327231Y0032058D01*
X0327286Y0032061D01*
X0327342Y0032060D01*
X0327397Y0032055D01*
X0327452Y0032046D01*
X0327506Y0032034D01*
X0327559Y0032017D01*
X0327611Y0031997D01*
X0327661Y0031973D01*
X0327709Y0031946D01*
X0327756Y0031916D01*
X0327800Y0031882D01*
X0327842Y0031845D01*
X0327880Y0031805D01*
X0327917Y0031763D01*
X0327950Y0031718D01*
X0327979Y0031672D01*
X0328006Y0031623D01*
X0328028Y0031572D01*
X0328048Y0031520D01*
X0328063Y0031466D01*
X0328075Y0031412D01*
X0328083Y0031357D01*
X0328087Y0031302D01*
X0328087Y0031246D01*
X0328083Y0031191D01*
X0328075Y0031136D01*
X0328063Y0031082D01*
X0328048Y0031028D01*
X0328028Y0030976D01*
X0328006Y0030925D01*
X0327979Y0030876D01*
X0327950Y0030830D01*
X0327917Y0030785D01*
X0327880Y0030743D01*
X0327842Y0030703D01*
X0327800Y0030666D01*
X0327756Y0030632D01*
X0327709Y0030602D01*
X0327661Y0030575D01*
X0327611Y0030551D01*
X0327559Y0030531D01*
X0327506Y0030514D01*
X0327452Y0030502D01*
X0327397Y0030493D01*
X0327342Y0030488D01*
X0327286Y0030487D01*
X0327231Y0030490D01*
X0327176Y0030497D01*
X0327121Y0030508D01*
X0327067Y0030522D01*
X0327015Y0030540D01*
X0326964Y0030562D01*
X0326915Y0030588D01*
X0326867Y0030617D01*
X0326822Y0030649D01*
X0326779Y0030684D01*
X0326739Y0030722D01*
X0326701Y0030763D01*
X0326667Y0030807D01*
X0326635Y0030853D01*
X0326607Y0030901D01*
X0326583Y0030951D01*
X0326562Y0031002D01*
X0326544Y0031055D01*
X0326531Y0031109D01*
X0326521Y0031163D01*
X0326515Y0031218D01*
X0326513Y0031274D01*
X0326513Y0035274D02*
X0326515Y0035330D01*
X0326521Y0035385D01*
X0326531Y0035439D01*
X0326544Y0035493D01*
X0326562Y0035546D01*
X0326583Y0035597D01*
X0326607Y0035647D01*
X0326635Y0035695D01*
X0326667Y0035741D01*
X0326701Y0035785D01*
X0326739Y0035826D01*
X0326779Y0035864D01*
X0326822Y0035899D01*
X0326867Y0035931D01*
X0326915Y0035960D01*
X0326964Y0035986D01*
X0327015Y0036008D01*
X0327067Y0036026D01*
X0327121Y0036040D01*
X0327176Y0036051D01*
X0327231Y0036058D01*
X0327286Y0036061D01*
X0327342Y0036060D01*
X0327397Y0036055D01*
X0327452Y0036046D01*
X0327506Y0036034D01*
X0327559Y0036017D01*
X0327611Y0035997D01*
X0327661Y0035973D01*
X0327709Y0035946D01*
X0327756Y0035916D01*
X0327800Y0035882D01*
X0327842Y0035845D01*
X0327880Y0035805D01*
X0327917Y0035763D01*
X0327950Y0035718D01*
X0327979Y0035672D01*
X0328006Y0035623D01*
X0328028Y0035572D01*
X0328048Y0035520D01*
X0328063Y0035466D01*
X0328075Y0035412D01*
X0328083Y0035357D01*
X0328087Y0035302D01*
X0328087Y0035246D01*
X0328083Y0035191D01*
X0328075Y0035136D01*
X0328063Y0035082D01*
X0328048Y0035028D01*
X0328028Y0034976D01*
X0328006Y0034925D01*
X0327979Y0034876D01*
X0327950Y0034830D01*
X0327917Y0034785D01*
X0327880Y0034743D01*
X0327842Y0034703D01*
X0327800Y0034666D01*
X0327756Y0034632D01*
X0327709Y0034602D01*
X0327661Y0034575D01*
X0327611Y0034551D01*
X0327559Y0034531D01*
X0327506Y0034514D01*
X0327452Y0034502D01*
X0327397Y0034493D01*
X0327342Y0034488D01*
X0327286Y0034487D01*
X0327231Y0034490D01*
X0327176Y0034497D01*
X0327121Y0034508D01*
X0327067Y0034522D01*
X0327015Y0034540D01*
X0326964Y0034562D01*
X0326915Y0034588D01*
X0326867Y0034617D01*
X0326822Y0034649D01*
X0326779Y0034684D01*
X0326739Y0034722D01*
X0326701Y0034763D01*
X0326667Y0034807D01*
X0326635Y0034853D01*
X0326607Y0034901D01*
X0326583Y0034951D01*
X0326562Y0035002D01*
X0326544Y0035055D01*
X0326531Y0035109D01*
X0326521Y0035163D01*
X0326515Y0035218D01*
X0326513Y0035274D01*
X0302481Y0021085D02*
X0302483Y0021238D01*
X0302489Y0021392D01*
X0302499Y0021545D01*
X0302513Y0021697D01*
X0302531Y0021850D01*
X0302553Y0022001D01*
X0302578Y0022152D01*
X0302608Y0022303D01*
X0302642Y0022453D01*
X0302679Y0022601D01*
X0302720Y0022749D01*
X0302765Y0022895D01*
X0302814Y0023041D01*
X0302867Y0023185D01*
X0302923Y0023327D01*
X0302983Y0023468D01*
X0303047Y0023608D01*
X0303114Y0023746D01*
X0303185Y0023882D01*
X0303260Y0024016D01*
X0303337Y0024148D01*
X0303419Y0024278D01*
X0303503Y0024406D01*
X0303591Y0024532D01*
X0303682Y0024655D01*
X0303776Y0024776D01*
X0303874Y0024894D01*
X0303974Y0025010D01*
X0304078Y0025123D01*
X0304184Y0025234D01*
X0304293Y0025342D01*
X0304405Y0025447D01*
X0304519Y0025548D01*
X0304637Y0025647D01*
X0304756Y0025743D01*
X0304878Y0025836D01*
X0305003Y0025925D01*
X0305130Y0026012D01*
X0305259Y0026094D01*
X0305390Y0026174D01*
X0305523Y0026250D01*
X0305658Y0026323D01*
X0305795Y0026392D01*
X0305934Y0026457D01*
X0306074Y0026519D01*
X0306216Y0026577D01*
X0306359Y0026632D01*
X0306504Y0026683D01*
X0306650Y0026730D01*
X0306797Y0026773D01*
X0306945Y0026812D01*
X0307094Y0026848D01*
X0307244Y0026879D01*
X0307395Y0026907D01*
X0307546Y0026931D01*
X0307699Y0026951D01*
X0307851Y0026967D01*
X0308004Y0026979D01*
X0308157Y0026987D01*
X0308310Y0026991D01*
X0308464Y0026991D01*
X0308617Y0026987D01*
X0308770Y0026979D01*
X0308923Y0026967D01*
X0309075Y0026951D01*
X0309228Y0026931D01*
X0309379Y0026907D01*
X0309530Y0026879D01*
X0309680Y0026848D01*
X0309829Y0026812D01*
X0309977Y0026773D01*
X0310124Y0026730D01*
X0310270Y0026683D01*
X0310415Y0026632D01*
X0310558Y0026577D01*
X0310700Y0026519D01*
X0310840Y0026457D01*
X0310979Y0026392D01*
X0311116Y0026323D01*
X0311251Y0026250D01*
X0311384Y0026174D01*
X0311515Y0026094D01*
X0311644Y0026012D01*
X0311771Y0025925D01*
X0311896Y0025836D01*
X0312018Y0025743D01*
X0312137Y0025647D01*
X0312255Y0025548D01*
X0312369Y0025447D01*
X0312481Y0025342D01*
X0312590Y0025234D01*
X0312696Y0025123D01*
X0312800Y0025010D01*
X0312900Y0024894D01*
X0312998Y0024776D01*
X0313092Y0024655D01*
X0313183Y0024532D01*
X0313271Y0024406D01*
X0313355Y0024278D01*
X0313437Y0024148D01*
X0313514Y0024016D01*
X0313589Y0023882D01*
X0313660Y0023746D01*
X0313727Y0023608D01*
X0313791Y0023468D01*
X0313851Y0023327D01*
X0313907Y0023185D01*
X0313960Y0023041D01*
X0314009Y0022895D01*
X0314054Y0022749D01*
X0314095Y0022601D01*
X0314132Y0022453D01*
X0314166Y0022303D01*
X0314196Y0022152D01*
X0314221Y0022001D01*
X0314243Y0021850D01*
X0314261Y0021697D01*
X0314275Y0021545D01*
X0314285Y0021392D01*
X0314291Y0021238D01*
X0314293Y0021085D01*
X0314291Y0020932D01*
X0314285Y0020778D01*
X0314275Y0020625D01*
X0314261Y0020473D01*
X0314243Y0020320D01*
X0314221Y0020169D01*
X0314196Y0020018D01*
X0314166Y0019867D01*
X0314132Y0019717D01*
X0314095Y0019569D01*
X0314054Y0019421D01*
X0314009Y0019275D01*
X0313960Y0019129D01*
X0313907Y0018985D01*
X0313851Y0018843D01*
X0313791Y0018702D01*
X0313727Y0018562D01*
X0313660Y0018424D01*
X0313589Y0018288D01*
X0313514Y0018154D01*
X0313437Y0018022D01*
X0313355Y0017892D01*
X0313271Y0017764D01*
X0313183Y0017638D01*
X0313092Y0017515D01*
X0312998Y0017394D01*
X0312900Y0017276D01*
X0312800Y0017160D01*
X0312696Y0017047D01*
X0312590Y0016936D01*
X0312481Y0016828D01*
X0312369Y0016723D01*
X0312255Y0016622D01*
X0312137Y0016523D01*
X0312018Y0016427D01*
X0311896Y0016334D01*
X0311771Y0016245D01*
X0311644Y0016158D01*
X0311515Y0016076D01*
X0311384Y0015996D01*
X0311251Y0015920D01*
X0311116Y0015847D01*
X0310979Y0015778D01*
X0310840Y0015713D01*
X0310700Y0015651D01*
X0310558Y0015593D01*
X0310415Y0015538D01*
X0310270Y0015487D01*
X0310124Y0015440D01*
X0309977Y0015397D01*
X0309829Y0015358D01*
X0309680Y0015322D01*
X0309530Y0015291D01*
X0309379Y0015263D01*
X0309228Y0015239D01*
X0309075Y0015219D01*
X0308923Y0015203D01*
X0308770Y0015191D01*
X0308617Y0015183D01*
X0308464Y0015179D01*
X0308310Y0015179D01*
X0308157Y0015183D01*
X0308004Y0015191D01*
X0307851Y0015203D01*
X0307699Y0015219D01*
X0307546Y0015239D01*
X0307395Y0015263D01*
X0307244Y0015291D01*
X0307094Y0015322D01*
X0306945Y0015358D01*
X0306797Y0015397D01*
X0306650Y0015440D01*
X0306504Y0015487D01*
X0306359Y0015538D01*
X0306216Y0015593D01*
X0306074Y0015651D01*
X0305934Y0015713D01*
X0305795Y0015778D01*
X0305658Y0015847D01*
X0305523Y0015920D01*
X0305390Y0015996D01*
X0305259Y0016076D01*
X0305130Y0016158D01*
X0305003Y0016245D01*
X0304878Y0016334D01*
X0304756Y0016427D01*
X0304637Y0016523D01*
X0304519Y0016622D01*
X0304405Y0016723D01*
X0304293Y0016828D01*
X0304184Y0016936D01*
X0304078Y0017047D01*
X0303974Y0017160D01*
X0303874Y0017276D01*
X0303776Y0017394D01*
X0303682Y0017515D01*
X0303591Y0017638D01*
X0303503Y0017764D01*
X0303419Y0017892D01*
X0303337Y0018022D01*
X0303260Y0018154D01*
X0303185Y0018288D01*
X0303114Y0018424D01*
X0303047Y0018562D01*
X0302983Y0018702D01*
X0302923Y0018843D01*
X0302867Y0018985D01*
X0302814Y0019129D01*
X0302765Y0019275D01*
X0302720Y0019421D01*
X0302679Y0019569D01*
X0302642Y0019717D01*
X0302608Y0019867D01*
X0302578Y0020018D01*
X0302553Y0020169D01*
X0302531Y0020320D01*
X0302513Y0020473D01*
X0302499Y0020625D01*
X0302489Y0020778D01*
X0302483Y0020932D01*
X0302481Y0021085D01*
X0017142Y0292117D02*
X0017144Y0292270D01*
X0017150Y0292424D01*
X0017160Y0292577D01*
X0017174Y0292729D01*
X0017192Y0292882D01*
X0017214Y0293033D01*
X0017239Y0293184D01*
X0017269Y0293335D01*
X0017303Y0293485D01*
X0017340Y0293633D01*
X0017381Y0293781D01*
X0017426Y0293927D01*
X0017475Y0294073D01*
X0017528Y0294217D01*
X0017584Y0294359D01*
X0017644Y0294500D01*
X0017708Y0294640D01*
X0017775Y0294778D01*
X0017846Y0294914D01*
X0017921Y0295048D01*
X0017998Y0295180D01*
X0018080Y0295310D01*
X0018164Y0295438D01*
X0018252Y0295564D01*
X0018343Y0295687D01*
X0018437Y0295808D01*
X0018535Y0295926D01*
X0018635Y0296042D01*
X0018739Y0296155D01*
X0018845Y0296266D01*
X0018954Y0296374D01*
X0019066Y0296479D01*
X0019180Y0296580D01*
X0019298Y0296679D01*
X0019417Y0296775D01*
X0019539Y0296868D01*
X0019664Y0296957D01*
X0019791Y0297044D01*
X0019920Y0297126D01*
X0020051Y0297206D01*
X0020184Y0297282D01*
X0020319Y0297355D01*
X0020456Y0297424D01*
X0020595Y0297489D01*
X0020735Y0297551D01*
X0020877Y0297609D01*
X0021020Y0297664D01*
X0021165Y0297715D01*
X0021311Y0297762D01*
X0021458Y0297805D01*
X0021606Y0297844D01*
X0021755Y0297880D01*
X0021905Y0297911D01*
X0022056Y0297939D01*
X0022207Y0297963D01*
X0022360Y0297983D01*
X0022512Y0297999D01*
X0022665Y0298011D01*
X0022818Y0298019D01*
X0022971Y0298023D01*
X0023125Y0298023D01*
X0023278Y0298019D01*
X0023431Y0298011D01*
X0023584Y0297999D01*
X0023736Y0297983D01*
X0023889Y0297963D01*
X0024040Y0297939D01*
X0024191Y0297911D01*
X0024341Y0297880D01*
X0024490Y0297844D01*
X0024638Y0297805D01*
X0024785Y0297762D01*
X0024931Y0297715D01*
X0025076Y0297664D01*
X0025219Y0297609D01*
X0025361Y0297551D01*
X0025501Y0297489D01*
X0025640Y0297424D01*
X0025777Y0297355D01*
X0025912Y0297282D01*
X0026045Y0297206D01*
X0026176Y0297126D01*
X0026305Y0297044D01*
X0026432Y0296957D01*
X0026557Y0296868D01*
X0026679Y0296775D01*
X0026798Y0296679D01*
X0026916Y0296580D01*
X0027030Y0296479D01*
X0027142Y0296374D01*
X0027251Y0296266D01*
X0027357Y0296155D01*
X0027461Y0296042D01*
X0027561Y0295926D01*
X0027659Y0295808D01*
X0027753Y0295687D01*
X0027844Y0295564D01*
X0027932Y0295438D01*
X0028016Y0295310D01*
X0028098Y0295180D01*
X0028175Y0295048D01*
X0028250Y0294914D01*
X0028321Y0294778D01*
X0028388Y0294640D01*
X0028452Y0294500D01*
X0028512Y0294359D01*
X0028568Y0294217D01*
X0028621Y0294073D01*
X0028670Y0293927D01*
X0028715Y0293781D01*
X0028756Y0293633D01*
X0028793Y0293485D01*
X0028827Y0293335D01*
X0028857Y0293184D01*
X0028882Y0293033D01*
X0028904Y0292882D01*
X0028922Y0292729D01*
X0028936Y0292577D01*
X0028946Y0292424D01*
X0028952Y0292270D01*
X0028954Y0292117D01*
X0028952Y0291964D01*
X0028946Y0291810D01*
X0028936Y0291657D01*
X0028922Y0291505D01*
X0028904Y0291352D01*
X0028882Y0291201D01*
X0028857Y0291050D01*
X0028827Y0290899D01*
X0028793Y0290749D01*
X0028756Y0290601D01*
X0028715Y0290453D01*
X0028670Y0290307D01*
X0028621Y0290161D01*
X0028568Y0290017D01*
X0028512Y0289875D01*
X0028452Y0289734D01*
X0028388Y0289594D01*
X0028321Y0289456D01*
X0028250Y0289320D01*
X0028175Y0289186D01*
X0028098Y0289054D01*
X0028016Y0288924D01*
X0027932Y0288796D01*
X0027844Y0288670D01*
X0027753Y0288547D01*
X0027659Y0288426D01*
X0027561Y0288308D01*
X0027461Y0288192D01*
X0027357Y0288079D01*
X0027251Y0287968D01*
X0027142Y0287860D01*
X0027030Y0287755D01*
X0026916Y0287654D01*
X0026798Y0287555D01*
X0026679Y0287459D01*
X0026557Y0287366D01*
X0026432Y0287277D01*
X0026305Y0287190D01*
X0026176Y0287108D01*
X0026045Y0287028D01*
X0025912Y0286952D01*
X0025777Y0286879D01*
X0025640Y0286810D01*
X0025501Y0286745D01*
X0025361Y0286683D01*
X0025219Y0286625D01*
X0025076Y0286570D01*
X0024931Y0286519D01*
X0024785Y0286472D01*
X0024638Y0286429D01*
X0024490Y0286390D01*
X0024341Y0286354D01*
X0024191Y0286323D01*
X0024040Y0286295D01*
X0023889Y0286271D01*
X0023736Y0286251D01*
X0023584Y0286235D01*
X0023431Y0286223D01*
X0023278Y0286215D01*
X0023125Y0286211D01*
X0022971Y0286211D01*
X0022818Y0286215D01*
X0022665Y0286223D01*
X0022512Y0286235D01*
X0022360Y0286251D01*
X0022207Y0286271D01*
X0022056Y0286295D01*
X0021905Y0286323D01*
X0021755Y0286354D01*
X0021606Y0286390D01*
X0021458Y0286429D01*
X0021311Y0286472D01*
X0021165Y0286519D01*
X0021020Y0286570D01*
X0020877Y0286625D01*
X0020735Y0286683D01*
X0020595Y0286745D01*
X0020456Y0286810D01*
X0020319Y0286879D01*
X0020184Y0286952D01*
X0020051Y0287028D01*
X0019920Y0287108D01*
X0019791Y0287190D01*
X0019664Y0287277D01*
X0019539Y0287366D01*
X0019417Y0287459D01*
X0019298Y0287555D01*
X0019180Y0287654D01*
X0019066Y0287755D01*
X0018954Y0287860D01*
X0018845Y0287968D01*
X0018739Y0288079D01*
X0018635Y0288192D01*
X0018535Y0288308D01*
X0018437Y0288426D01*
X0018343Y0288547D01*
X0018252Y0288670D01*
X0018164Y0288796D01*
X0018080Y0288924D01*
X0017998Y0289054D01*
X0017921Y0289186D01*
X0017846Y0289320D01*
X0017775Y0289456D01*
X0017708Y0289594D01*
X0017644Y0289734D01*
X0017584Y0289875D01*
X0017528Y0290017D01*
X0017475Y0290161D01*
X0017426Y0290307D01*
X0017381Y0290453D01*
X0017340Y0290601D01*
X0017303Y0290749D01*
X0017269Y0290899D01*
X0017239Y0291050D01*
X0017214Y0291201D01*
X0017192Y0291352D01*
X0017174Y0291505D01*
X0017160Y0291657D01*
X0017150Y0291810D01*
X0017144Y0291964D01*
X0017142Y0292117D01*
D11*
X0013300Y0357274D02*
X0013300Y0014274D01*
X0013302Y0014134D01*
X0013308Y0013994D01*
X0013318Y0013854D01*
X0013331Y0013714D01*
X0013349Y0013575D01*
X0013371Y0013436D01*
X0013396Y0013299D01*
X0013425Y0013161D01*
X0013458Y0013025D01*
X0013495Y0012890D01*
X0013536Y0012756D01*
X0013581Y0012623D01*
X0013629Y0012491D01*
X0013681Y0012361D01*
X0013736Y0012232D01*
X0013795Y0012105D01*
X0013858Y0011979D01*
X0013924Y0011855D01*
X0013993Y0011734D01*
X0014066Y0011614D01*
X0014143Y0011496D01*
X0014222Y0011381D01*
X0014305Y0011267D01*
X0014391Y0011157D01*
X0014480Y0011048D01*
X0014572Y0010942D01*
X0014667Y0010839D01*
X0014764Y0010738D01*
X0014865Y0010641D01*
X0014968Y0010546D01*
X0015074Y0010454D01*
X0015183Y0010365D01*
X0015293Y0010279D01*
X0015407Y0010196D01*
X0015522Y0010117D01*
X0015640Y0010040D01*
X0015760Y0009967D01*
X0015881Y0009898D01*
X0016005Y0009832D01*
X0016131Y0009769D01*
X0016258Y0009710D01*
X0016387Y0009655D01*
X0016517Y0009603D01*
X0016649Y0009555D01*
X0016782Y0009510D01*
X0016916Y0009469D01*
X0017051Y0009432D01*
X0017187Y0009399D01*
X0017325Y0009370D01*
X0017462Y0009345D01*
X0017601Y0009323D01*
X0017740Y0009305D01*
X0017880Y0009292D01*
X0018020Y0009282D01*
X0018160Y0009276D01*
X0018300Y0009274D01*
X0318300Y0009274D01*
X0318452Y0009276D01*
X0318604Y0009282D01*
X0318756Y0009291D01*
X0318907Y0009305D01*
X0319058Y0009322D01*
X0319209Y0009343D01*
X0319359Y0009368D01*
X0319508Y0009397D01*
X0319656Y0009429D01*
X0319804Y0009466D01*
X0319951Y0009505D01*
X0320096Y0009549D01*
X0320241Y0009597D01*
X0320384Y0009647D01*
X0320526Y0009702D01*
X0320666Y0009760D01*
X0320805Y0009822D01*
X0320942Y0009887D01*
X0321078Y0009956D01*
X0321212Y0010028D01*
X0321344Y0010103D01*
X0321474Y0010182D01*
X0321602Y0010264D01*
X0321728Y0010349D01*
X0321851Y0010438D01*
X0321973Y0010529D01*
X0322092Y0010624D01*
X0322208Y0010721D01*
X0322322Y0010822D01*
X0322434Y0010925D01*
X0322543Y0011031D01*
X0322649Y0011140D01*
X0322752Y0011252D01*
X0322853Y0011366D01*
X0322950Y0011482D01*
X0323045Y0011601D01*
X0323136Y0011723D01*
X0323225Y0011846D01*
X0323310Y0011972D01*
X0323392Y0012100D01*
X0323471Y0012230D01*
X0323546Y0012362D01*
X0323618Y0012496D01*
X0323687Y0012632D01*
X0323752Y0012769D01*
X0323814Y0012908D01*
X0323872Y0013048D01*
X0323927Y0013190D01*
X0323977Y0013333D01*
X0324025Y0013478D01*
X0324069Y0013623D01*
X0324108Y0013770D01*
X0324145Y0013918D01*
X0324177Y0014066D01*
X0324206Y0014215D01*
X0324231Y0014365D01*
X0324252Y0014516D01*
X0324269Y0014667D01*
X0324283Y0014818D01*
X0324292Y0014970D01*
X0324298Y0015122D01*
X0324300Y0015274D01*
X0324324Y0017148D01*
X0359757Y0017148D01*
X0359757Y0135258D01*
X0324324Y0135258D01*
X0324324Y0139195D01*
X0359757Y0139195D01*
X0359757Y0257306D01*
X0324324Y0257306D01*
X0324324Y0355731D01*
X0324300Y0357274D01*
X0324298Y0357426D01*
X0324292Y0357578D01*
X0324283Y0357730D01*
X0324269Y0357881D01*
X0324252Y0358032D01*
X0324231Y0358183D01*
X0324206Y0358333D01*
X0324177Y0358482D01*
X0324145Y0358630D01*
X0324108Y0358778D01*
X0324069Y0358925D01*
X0324025Y0359070D01*
X0323977Y0359215D01*
X0323927Y0359358D01*
X0323872Y0359500D01*
X0323814Y0359640D01*
X0323752Y0359779D01*
X0323687Y0359916D01*
X0323618Y0360052D01*
X0323546Y0360186D01*
X0323471Y0360318D01*
X0323392Y0360448D01*
X0323310Y0360576D01*
X0323225Y0360702D01*
X0323136Y0360825D01*
X0323045Y0360947D01*
X0322950Y0361066D01*
X0322853Y0361182D01*
X0322752Y0361296D01*
X0322649Y0361408D01*
X0322543Y0361517D01*
X0322434Y0361623D01*
X0322322Y0361726D01*
X0322208Y0361827D01*
X0322092Y0361924D01*
X0321973Y0362019D01*
X0321851Y0362110D01*
X0321728Y0362199D01*
X0321602Y0362284D01*
X0321474Y0362366D01*
X0321344Y0362445D01*
X0321212Y0362520D01*
X0321078Y0362592D01*
X0320942Y0362661D01*
X0320805Y0362726D01*
X0320666Y0362788D01*
X0320526Y0362846D01*
X0320384Y0362901D01*
X0320241Y0362951D01*
X0320096Y0362999D01*
X0319951Y0363043D01*
X0319804Y0363082D01*
X0319656Y0363119D01*
X0319508Y0363151D01*
X0319359Y0363180D01*
X0319209Y0363205D01*
X0319058Y0363226D01*
X0318907Y0363243D01*
X0318756Y0363257D01*
X0318604Y0363266D01*
X0318452Y0363272D01*
X0318300Y0363274D01*
X0019300Y0363274D01*
X0019148Y0363272D01*
X0018996Y0363266D01*
X0018844Y0363257D01*
X0018693Y0363243D01*
X0018542Y0363226D01*
X0018391Y0363205D01*
X0018241Y0363180D01*
X0018092Y0363151D01*
X0017944Y0363119D01*
X0017796Y0363082D01*
X0017649Y0363043D01*
X0017504Y0362999D01*
X0017359Y0362951D01*
X0017216Y0362901D01*
X0017074Y0362846D01*
X0016934Y0362788D01*
X0016795Y0362726D01*
X0016658Y0362661D01*
X0016522Y0362592D01*
X0016388Y0362520D01*
X0016256Y0362445D01*
X0016126Y0362366D01*
X0015998Y0362284D01*
X0015872Y0362199D01*
X0015749Y0362110D01*
X0015627Y0362019D01*
X0015508Y0361924D01*
X0015392Y0361827D01*
X0015278Y0361726D01*
X0015166Y0361623D01*
X0015057Y0361517D01*
X0014951Y0361408D01*
X0014848Y0361296D01*
X0014747Y0361182D01*
X0014650Y0361066D01*
X0014555Y0360947D01*
X0014464Y0360825D01*
X0014375Y0360702D01*
X0014290Y0360576D01*
X0014208Y0360448D01*
X0014129Y0360318D01*
X0014054Y0360186D01*
X0013982Y0360052D01*
X0013913Y0359916D01*
X0013848Y0359779D01*
X0013786Y0359640D01*
X0013728Y0359500D01*
X0013673Y0359358D01*
X0013623Y0359215D01*
X0013575Y0359070D01*
X0013531Y0358925D01*
X0013492Y0358778D01*
X0013455Y0358630D01*
X0013423Y0358482D01*
X0013394Y0358333D01*
X0013369Y0358183D01*
X0013348Y0358032D01*
X0013331Y0357881D01*
X0013317Y0357730D01*
X0013308Y0357578D01*
X0013302Y0357426D01*
X0013300Y0357274D01*
X0255300Y0109274D02*
X0269300Y0109274D01*
X0269300Y0103274D01*
X0255300Y0103274D01*
X0255300Y0109274D01*
X0255300Y0067274D02*
X0241300Y0067274D01*
X0241300Y0061274D01*
X0255300Y0061274D01*
X0255300Y0067274D01*
X0269300Y0067274D02*
X0269300Y0061274D01*
X0283300Y0061274D01*
X0283300Y0067274D01*
X0269300Y0067274D01*
X0324324Y0036833D02*
X0336135Y0036833D01*
X0336135Y0115573D01*
X0324324Y0115573D01*
X0324324Y0036833D01*
X0324324Y0158880D02*
X0336135Y0158880D01*
X0336135Y0237620D01*
X0324324Y0237620D01*
X0324324Y0158880D01*
D12*
X0284954Y0333093D02*
X0253457Y0333093D01*
X0253457Y0338998D01*
X0284954Y0338998D01*
X0284954Y0333093D01*
X0088103Y0333093D02*
X0088103Y0338998D01*
X0056607Y0338998D01*
X0056607Y0333093D01*
X0088103Y0333093D01*
D13*
X0108038Y0296000D03*
X0115518Y0296000D03*
X0146739Y0210299D03*
X0154219Y0210299D03*
X0188539Y0190799D03*
X0196019Y0190799D03*
X0198039Y0179899D03*
X0205519Y0179899D03*
X0218439Y0181699D03*
X0225919Y0181699D03*
X0226119Y0189799D03*
X0218639Y0189799D03*
X0234039Y0189799D03*
X0241519Y0189799D03*
X0238039Y0169099D03*
X0239819Y0160499D03*
X0232339Y0160499D03*
X0232339Y0152299D03*
X0239819Y0152299D03*
X0245519Y0169099D03*
X0256935Y0140772D03*
X0264415Y0140772D03*
X0196419Y0150599D03*
X0188939Y0150599D03*
X0188939Y0158599D03*
X0196419Y0158599D03*
X0196419Y0166599D03*
X0188939Y0166599D03*
X0180219Y0173999D03*
X0172739Y0173999D03*
X0140619Y0150599D03*
X0133139Y0150599D03*
X0125319Y0173799D03*
X0117839Y0173799D03*
X0103819Y0165799D03*
X0096339Y0165799D03*
X0075419Y0130299D03*
X0067939Y0130299D03*
X0129939Y0124036D03*
X0129939Y0115936D03*
X0137419Y0115936D03*
X0137419Y0124036D03*
X0182039Y0131299D03*
X0189519Y0131299D03*
X0215235Y0297573D03*
X0222715Y0297573D03*
D14*
X0226079Y0247639D03*
X0226079Y0240159D03*
X0189479Y0182539D03*
X0189479Y0175059D03*
X0180779Y0158239D03*
X0180779Y0150759D03*
X0172779Y0150759D03*
X0172779Y0158239D03*
X0164779Y0158239D03*
X0164779Y0150759D03*
X0156779Y0150759D03*
X0156779Y0158239D03*
X0148779Y0158239D03*
X0148779Y0150759D03*
X0148779Y0166559D03*
X0148779Y0174039D03*
X0165979Y0131139D03*
X0165979Y0123659D03*
X0209664Y0123659D03*
X0209664Y0131139D03*
D15*
X0164419Y0173999D03*
X0156939Y0173999D03*
X0140619Y0158599D03*
X0133139Y0158599D03*
X0119619Y0165799D03*
X0112139Y0165799D03*
X0109519Y0173799D03*
X0102039Y0173799D03*
X0129939Y0132136D03*
X0137419Y0132136D03*
X0075219Y0122099D03*
X0067739Y0122099D03*
X0123882Y0296050D03*
X0131362Y0296050D03*
X0199341Y0297525D03*
X0206821Y0297525D03*
X0285020Y0253106D03*
X0291713Y0253106D03*
X0265761Y0215334D03*
X0259068Y0215334D03*
X0258584Y0207196D03*
X0266065Y0207196D03*
D16*
X0284141Y0168810D03*
X0284141Y0161330D03*
X0201664Y0131139D03*
X0201664Y0123659D03*
X0140779Y0166759D03*
X0140779Y0174239D03*
X0067979Y0158339D03*
X0067979Y0150859D03*
X0038179Y0192659D03*
X0038179Y0200139D03*
X0284450Y0285826D03*
X0284450Y0292519D03*
D17*
X0086991Y0156038D03*
X0075967Y0156038D03*
D18*
X0081479Y0173361D03*
D19*
X0221248Y0175139D03*
X0221248Y0167659D03*
X0229909Y0171399D03*
D20*
X0231842Y0175559D03*
X0231842Y0183039D03*
X0240109Y0179299D03*
D21*
X0223840Y0162511D03*
X0223840Y0151487D03*
D22*
X0206517Y0156999D03*
D23*
X0208139Y0168162D03*
X0215619Y0168162D03*
X0211879Y0176430D03*
X0151319Y0113899D03*
X0143839Y0113899D03*
X0147579Y0122167D03*
D24*
X0190979Y0235599D03*
X0190979Y0240599D03*
X0190979Y0245599D03*
X0190979Y0250599D03*
X0190979Y0255599D03*
X0190979Y0260599D03*
X0190979Y0265599D03*
X0215179Y0265599D03*
X0215179Y0260599D03*
X0215179Y0255599D03*
X0215179Y0250599D03*
X0215179Y0245599D03*
X0215179Y0240599D03*
X0215179Y0235599D03*
D25*
X0237879Y0239638D03*
X0237879Y0256961D03*
X0242540Y0271299D03*
X0225217Y0271299D03*
X0176979Y0271961D03*
X0176979Y0254638D03*
D26*
X0266719Y0241940D02*
X0269475Y0241940D01*
X0269475Y0239381D02*
X0266719Y0239381D01*
X0266719Y0236822D02*
X0269475Y0236822D01*
X0269475Y0234263D02*
X0266719Y0234263D01*
X0272526Y0231212D02*
X0272526Y0228456D01*
X0275085Y0228456D02*
X0275085Y0231212D01*
X0277644Y0231212D02*
X0277644Y0228456D01*
X0280203Y0228456D02*
X0280203Y0231212D01*
X0283254Y0234263D02*
X0286010Y0234263D01*
X0286010Y0236822D02*
X0283254Y0236822D01*
X0283254Y0239381D02*
X0286010Y0239381D01*
X0286010Y0241940D02*
X0283254Y0241940D01*
X0280203Y0244991D02*
X0280203Y0247747D01*
X0277644Y0247747D02*
X0277644Y0244991D01*
X0275085Y0244991D02*
X0275085Y0247747D01*
X0272526Y0247747D02*
X0272526Y0244991D01*
D27*
X0276365Y0241842D03*
X0276365Y0234361D03*
D28*
X0280105Y0238102D03*
X0272624Y0238102D03*
D29*
X0265957Y0225302D03*
X0254933Y0225302D03*
X0295175Y0241765D03*
X0306198Y0241765D03*
D30*
X0282130Y0215284D03*
X0282130Y0207410D03*
X0260272Y0252240D03*
X0260272Y0260114D03*
X0269854Y0261507D03*
X0269854Y0269381D03*
X0268350Y0277347D03*
X0268350Y0285221D03*
X0276399Y0284241D03*
X0276399Y0292115D03*
X0292454Y0293237D03*
X0292454Y0285363D03*
X0300454Y0285385D03*
X0300454Y0293259D03*
X0306925Y0124561D03*
X0306925Y0116687D03*
X0314952Y0116595D03*
X0314952Y0124469D03*
X0315074Y0108502D03*
X0306974Y0108531D03*
X0306974Y0100657D03*
X0315074Y0100628D03*
D31*
X0282167Y0223347D03*
X0274293Y0223347D03*
X0291980Y0231300D03*
X0299854Y0231300D03*
X0276502Y0252994D03*
X0268628Y0252994D03*
D32*
X0288748Y0224248D03*
X0296228Y0224248D03*
X0292488Y0214799D03*
D33*
X0306168Y0263254D03*
X0306168Y0274277D03*
D34*
X0304494Y0195617D03*
X0304494Y0193057D03*
X0304494Y0190498D03*
X0304494Y0187939D03*
X0304494Y0185380D03*
D35*
X0315420Y0187546D03*
X0315420Y0193451D03*
D36*
X0315026Y0204672D03*
X0315026Y0176325D03*
D37*
X0306168Y0176275D02*
X0301837Y0176275D01*
X0301837Y0175777D02*
X0306168Y0175777D01*
X0306168Y0175278D02*
X0301837Y0175278D01*
X0301837Y0174780D02*
X0306168Y0174780D01*
X0306168Y0174281D02*
X0301837Y0174281D01*
X0301837Y0173783D02*
X0306168Y0173783D01*
X0306168Y0173284D02*
X0301837Y0173284D01*
X0301837Y0172979D02*
X0301837Y0177309D01*
X0301861Y0177753D01*
X0301972Y0178183D01*
X0302164Y0178584D01*
X0302430Y0178939D01*
X0302761Y0179235D01*
X0303144Y0179462D01*
X0303563Y0179609D01*
X0304002Y0179672D01*
X0304442Y0179609D01*
X0304861Y0179462D01*
X0305243Y0179235D01*
X0305574Y0178939D01*
X0305841Y0178584D01*
X0306033Y0178183D01*
X0306143Y0177753D01*
X0306168Y0177309D01*
X0306168Y0172979D01*
X0306143Y0172535D01*
X0306033Y0172105D01*
X0305841Y0171704D01*
X0305574Y0171349D01*
X0305243Y0171053D01*
X0304861Y0170827D01*
X0304442Y0170679D01*
X0304002Y0170617D01*
X0303501Y0170695D01*
X0303030Y0170883D01*
X0302612Y0171172D01*
X0302270Y0171546D01*
X0302018Y0171987D01*
X0301872Y0172473D01*
X0301837Y0172979D01*
X0301850Y0172786D02*
X0306157Y0172786D01*
X0306080Y0172287D02*
X0301928Y0172287D01*
X0302131Y0171789D02*
X0305881Y0171789D01*
X0305508Y0171290D02*
X0302504Y0171290D01*
X0303260Y0170792D02*
X0304762Y0170792D01*
X0306168Y0176774D02*
X0301837Y0176774D01*
X0301837Y0177272D02*
X0306168Y0177272D01*
X0306139Y0177771D02*
X0301866Y0177771D01*
X0302013Y0178269D02*
X0305992Y0178269D01*
X0305703Y0178768D02*
X0302302Y0178768D01*
X0302813Y0179266D02*
X0305191Y0179266D01*
X0304002Y0201325D02*
X0303501Y0201404D01*
X0303030Y0201592D01*
X0302612Y0201880D01*
X0302270Y0202254D01*
X0302018Y0202695D01*
X0301872Y0203181D01*
X0301837Y0203687D01*
X0301837Y0208018D01*
X0301861Y0208462D01*
X0301972Y0208892D01*
X0302164Y0209292D01*
X0302430Y0209648D01*
X0302761Y0209944D01*
X0303144Y0210170D01*
X0303563Y0210318D01*
X0304002Y0210380D01*
X0304442Y0210318D01*
X0304861Y0210170D01*
X0305243Y0209944D01*
X0305574Y0209648D01*
X0305841Y0209292D01*
X0306033Y0208892D01*
X0306143Y0208462D01*
X0306168Y0208018D01*
X0306168Y0203687D01*
X0306143Y0203244D01*
X0306033Y0202814D01*
X0305841Y0202413D01*
X0305574Y0202058D01*
X0305243Y0201761D01*
X0304861Y0201535D01*
X0304442Y0201388D01*
X0304002Y0201325D01*
X0302875Y0201699D02*
X0305139Y0201699D01*
X0305679Y0202198D02*
X0302321Y0202198D01*
X0302018Y0202696D02*
X0305977Y0202696D01*
X0306131Y0203195D02*
X0301871Y0203195D01*
X0301837Y0203693D02*
X0306168Y0203693D01*
X0306168Y0204192D02*
X0301837Y0204192D01*
X0301837Y0204690D02*
X0306168Y0204690D01*
X0306168Y0205189D02*
X0301837Y0205189D01*
X0301837Y0205687D02*
X0306168Y0205687D01*
X0306168Y0206186D02*
X0301837Y0206186D01*
X0301837Y0206684D02*
X0306168Y0206684D01*
X0306168Y0207183D02*
X0301837Y0207183D01*
X0301837Y0207682D02*
X0306168Y0207682D01*
X0306159Y0208180D02*
X0301846Y0208180D01*
X0301917Y0208679D02*
X0306088Y0208679D01*
X0305896Y0209177D02*
X0302108Y0209177D01*
X0302462Y0209676D02*
X0305543Y0209676D01*
X0304851Y0210174D02*
X0303154Y0210174D01*
D38*
X0295150Y0264672D03*
X0295150Y0266641D03*
X0295150Y0268609D03*
X0295150Y0270578D03*
X0295150Y0272546D03*
X0279678Y0272546D03*
X0279678Y0270578D03*
X0279678Y0268609D03*
X0279678Y0266641D03*
X0279678Y0264672D03*
D39*
X0283477Y0260873D03*
X0285446Y0260873D03*
X0287414Y0260873D03*
X0289383Y0260873D03*
X0291351Y0260873D03*
X0291351Y0276346D03*
X0289383Y0276346D03*
X0287414Y0276346D03*
X0285446Y0276346D03*
X0283477Y0276346D03*
D40*
X0284954Y0271070D03*
X0284954Y0266149D03*
X0289875Y0266149D03*
X0289875Y0271070D03*
D41*
X0179804Y0025605D03*
X0150670Y0018124D03*
D42*
X0151064Y0066156D03*
D43*
X0179804Y0036628D03*
X0150670Y0029148D03*
D44*
X0168190Y0081904D03*
D45*
X0315200Y0081974D03*
X0315200Y0077974D03*
D46*
X0300200Y0072974D03*
X0300200Y0086974D03*
M02*
